<mxfile host="65bd71144e" modified="2021-01-05T13:44:08.523Z" agent="5.0 (Windows NT 10.0; Win64; x64) AppleWebKit/537.36 (KHTML, like Gecko) Code/1.52.1 Chrome/83.0.4103.122 Electron/9.3.5 Safari/537.36" etag="CnzmWSSYUp2d7wdBj3So" version="13.10.0" type="embed">
    <diagram id="VTo92kT6-jYy-7usxawj" name="Page-1">
        <mxGraphModel dx="1588" dy="755" grid="1" gridSize="10" guides="1" tooltips="1" connect="1" arrows="1" fold="1" page="1" pageScale="1" pageWidth="827" pageHeight="1169" math="0" shadow="0">
            <root>
                <mxCell id="0"/>
                <mxCell id="1" parent="0"/>
                <mxCell id="4" style="edgeStyle=orthogonalEdgeStyle;rounded=0;orthogonalLoop=1;jettySize=auto;html=1;entryX=0.5;entryY=0;entryDx=0;entryDy=0;" edge="1" parent="1" source="2" target="3">
                    <mxGeometry relative="1" as="geometry"/>
                </mxCell>
                <mxCell id="2" value="vuePlugin" style="rounded=1;whiteSpace=wrap;html=1;" parent="1" vertex="1">
                    <mxGeometry x="370" y="170" width="120" height="60" as="geometry"/>
                </mxCell>
                <mxCell id="16" style="edgeStyle=orthogonalEdgeStyle;rounded=0;orthogonalLoop=1;jettySize=auto;html=1;" edge="1" parent="1" source="3" target="10">
                    <mxGeometry relative="1" as="geometry"/>
                </mxCell>
                <mxCell id="3" value="koa过滤出.vue文件" style="rounded=1;whiteSpace=wrap;html=1;" vertex="1" parent="1">
                    <mxGeometry x="370" y="330" width="120" height="60" as="geometry"/>
                </mxCell>
                <mxCell id="9" style="edgeStyle=orthogonalEdgeStyle;rounded=0;orthogonalLoop=1;jettySize=auto;html=1;entryX=1;entryY=0.5;entryDx=0;entryDy=0;" edge="1" parent="1" source="8" target="3">
                    <mxGeometry relative="1" as="geometry"/>
                </mxCell>
                <mxCell id="8" value="&lt;span style=&quot;background-color: rgb(40 , 44 , 52) ; font-family: &amp;#34;consolas&amp;#34; , &amp;#34;courier new&amp;#34; , monospace ; font-size: 14px ; color: rgb(198 , 120 , 221)&quot;&gt;if&lt;/span&gt;&lt;span style=&quot;color: rgb(171 , 178 , 191) ; background-color: rgb(40 , 44 , 52) ; font-family: &amp;#34;consolas&amp;#34; , &amp;#34;courier new&amp;#34; , monospace ; font-size: 14px&quot;&gt;&amp;nbsp;(&lt;/span&gt;&lt;span style=&quot;background-color: rgb(40 , 44 , 52) ; font-family: &amp;#34;consolas&amp;#34; , &amp;#34;courier new&amp;#34; , monospace ; font-size: 14px ; color: rgb(86 , 182 , 194)&quot;&gt;!&lt;/span&gt;&lt;span style=&quot;color: rgb(171 , 178 , 191) ; background-color: rgb(40 , 44 , 52) ; font-family: &amp;#34;consolas&amp;#34; , &amp;#34;courier new&amp;#34; , monospace ; font-size: 14px&quot;&gt;ctx.&lt;/span&gt;&lt;span style=&quot;background-color: rgb(40 , 44 , 52) ; font-family: &amp;#34;consolas&amp;#34; , &amp;#34;courier new&amp;#34; , monospace ; font-size: 14px ; color: rgb(224 , 108 , 117)&quot;&gt;path&lt;/span&gt;&lt;span style=&quot;color: rgb(171 , 178 , 191) ; background-color: rgb(40 , 44 , 52) ; font-family: &amp;#34;consolas&amp;#34; , &amp;#34;courier new&amp;#34; , monospace ; font-size: 14px&quot;&gt;.&lt;/span&gt;&lt;span style=&quot;background-color: rgb(40 , 44 , 52) ; font-family: &amp;#34;consolas&amp;#34; , &amp;#34;courier new&amp;#34; , monospace ; font-size: 14px ; color: rgb(97 , 175 , 239)&quot;&gt;endsWith&lt;/span&gt;&lt;span style=&quot;color: rgb(171 , 178 , 191) ; background-color: rgb(40 , 44 , 52) ; font-family: &amp;#34;consolas&amp;#34; , &amp;#34;courier new&amp;#34; , monospace ; font-size: 14px&quot;&gt;(&lt;/span&gt;&lt;span style=&quot;background-color: rgb(40 , 44 , 52) ; font-family: &amp;#34;consolas&amp;#34; , &amp;#34;courier new&amp;#34; , monospace ; font-size: 14px ; color: rgb(152 , 195 , 121)&quot;&gt;'.vue'&lt;/span&gt;&lt;span style=&quot;color: rgb(171 , 178 , 191) ; background-color: rgb(40 , 44 , 52) ; font-family: &amp;#34;consolas&amp;#34; , &amp;#34;courier new&amp;#34; , monospace ; font-size: 14px&quot;&gt;)&amp;nbsp;&lt;/span&gt;&lt;span style=&quot;background-color: rgb(40 , 44 , 52) ; font-family: &amp;#34;consolas&amp;#34; , &amp;#34;courier new&amp;#34; , monospace ; font-size: 14px ; color: rgb(86 , 182 , 194)&quot;&gt;&amp;amp;&amp;amp;&lt;/span&gt;&lt;span style=&quot;color: rgb(171 , 178 , 191) ; background-color: rgb(40 , 44 , 52) ; font-family: &amp;#34;consolas&amp;#34; , &amp;#34;courier new&amp;#34; , monospace ; font-size: 14px&quot;&gt;&amp;nbsp;&lt;/span&gt;&lt;span style=&quot;background-color: rgb(40 , 44 , 52) ; font-family: &amp;#34;consolas&amp;#34; , &amp;#34;courier new&amp;#34; , monospace ; font-size: 14px ; color: rgb(86 , 182 , 194)&quot;&gt;!&lt;/span&gt;&lt;span style=&quot;color: rgb(171 , 178 , 191) ; background-color: rgb(40 , 44 , 52) ; font-family: &amp;#34;consolas&amp;#34; , &amp;#34;courier new&amp;#34; , monospace ; font-size: 14px&quot;&gt;ctx.&lt;/span&gt;&lt;span style=&quot;background-color: rgb(40 , 44 , 52) ; font-family: &amp;#34;consolas&amp;#34; , &amp;#34;courier new&amp;#34; , monospace ; font-size: 14px ; color: rgb(224 , 108 , 117)&quot;&gt;vue&lt;/span&gt;&lt;span style=&quot;color: rgb(171 , 178 , 191) ; background-color: rgb(40 , 44 , 52) ; font-family: &amp;#34;consolas&amp;#34; , &amp;#34;courier new&amp;#34; , monospace ; font-size: 14px&quot;&gt;)&amp;nbsp;{&lt;/span&gt;&lt;br&gt;&lt;div style=&quot;background-color: rgb(40 , 44 , 52) ; font-family: &amp;#34;consolas&amp;#34; , &amp;#34;courier new&amp;#34; , monospace ; font-weight: normal ; font-size: 14px ; line-height: 19px&quot;&gt;&lt;div&gt;&lt;font color=&quot;#abb2bf&quot;&gt;&amp;nbsp;&amp;nbsp;&lt;/font&gt;&lt;span style=&quot;color: rgb(198 , 120 , 221)&quot;&gt;return&lt;/span&gt;&lt;span style=&quot;color: rgb(171 , 178 , 191)&quot;&gt;&amp;nbsp;&lt;/span&gt;&lt;span style=&quot;color: rgb(97 , 175 , 239)&quot;&gt;next&lt;/span&gt;&lt;span style=&quot;color: rgb(171 , 178 , 191)&quot;&gt;();&lt;/span&gt;&lt;/div&gt;&lt;div style=&quot;color: rgb(171 , 178 , 191)&quot;&gt;&lt;span style=&quot;color: #abb2bf&quot;&gt;}&lt;/span&gt;&lt;/div&gt;&lt;/div&gt;" style="rounded=1;whiteSpace=wrap;html=1;align=left;" vertex="1" parent="1">
                    <mxGeometry x="630" y="325" width="350" height="70" as="geometry"/>
                </mxCell>
                <mxCell id="17" style="edgeStyle=orthogonalEdgeStyle;rounded=0;orthogonalLoop=1;jettySize=auto;html=1;entryX=0.5;entryY=0;entryDx=0;entryDy=0;" edge="1" parent="1" source="10" target="13">
                    <mxGeometry relative="1" as="geometry"/>
                </mxCell>
                <mxCell id="10" value="获取.vue文件的路径" style="rounded=1;whiteSpace=wrap;html=1;align=center;" vertex="1" parent="1">
                    <mxGeometry x="370" y="490" width="120" height="60" as="geometry"/>
                </mxCell>
                <mxCell id="12" style="edgeStyle=orthogonalEdgeStyle;rounded=0;orthogonalLoop=1;jettySize=auto;html=1;" edge="1" parent="1" source="11" target="10">
                    <mxGeometry relative="1" as="geometry"/>
                </mxCell>
                <mxCell id="11" value="&#10;&#10;&lt;div style=&quot;color: rgb(171, 178, 191); background-color: rgb(40, 44, 52); font-family: consolas, &amp;quot;courier new&amp;quot;, monospace; font-weight: normal; font-size: 14px; line-height: 19px;&quot;&gt;&lt;div&gt;&lt;span style=&quot;color: #c678dd&quot;&gt;let&lt;/span&gt;&lt;span style=&quot;color: #abb2bf&quot;&gt;&amp;nbsp;filePath&amp;nbsp;&lt;/span&gt;&lt;span style=&quot;color: #56b6c2&quot;&gt;=&lt;/span&gt;&lt;span style=&quot;color: #abb2bf&quot;&gt;&amp;nbsp;resolver.&lt;/span&gt;&lt;span style=&quot;color: #61afef&quot;&gt;requestToFile&lt;/span&gt;&lt;span style=&quot;color: #abb2bf&quot;&gt;(publicPath);&lt;/span&gt;&lt;/div&gt;&lt;/div&gt;&#10;&#10;" style="rounded=1;whiteSpace=wrap;html=1;align=left;" vertex="1" parent="1">
                    <mxGeometry x="630" y="490" width="390" height="60" as="geometry"/>
                </mxCell>
                <mxCell id="13" value="解析SFC文件" style="rounded=1;whiteSpace=wrap;html=1;align=center;" vertex="1" parent="1">
                    <mxGeometry x="370" y="650" width="120" height="60" as="geometry"/>
                </mxCell>
                <mxCell id="15" style="edgeStyle=orthogonalEdgeStyle;rounded=0;orthogonalLoop=1;jettySize=auto;html=1;" edge="1" parent="1" source="14" target="13">
                    <mxGeometry relative="1" as="geometry"/>
                </mxCell>
                <mxCell id="19" style="edgeStyle=orthogonalEdgeStyle;rounded=0;orthogonalLoop=1;jettySize=auto;html=1;" edge="1" parent="1" source="14" target="18">
                    <mxGeometry relative="1" as="geometry"/>
                </mxCell>
                <mxCell id="14" value="&#10;&#10;&lt;div style=&quot;color: rgb(171, 178, 191); background-color: rgb(40, 44, 52); font-family: consolas, &amp;quot;courier new&amp;quot;, monospace; font-weight: normal; font-size: 14px; line-height: 19px;&quot;&gt;&lt;div&gt;&lt;span style=&quot;color: #c678dd&quot;&gt;const&lt;/span&gt;&lt;span style=&quot;color: #abb2bf&quot;&gt;&amp;nbsp;&lt;/span&gt;&lt;span style=&quot;color: #d19a66&quot;&gt;descriptor&lt;/span&gt;&lt;span style=&quot;color: #abb2bf&quot;&gt;&amp;nbsp;&lt;/span&gt;&lt;span style=&quot;color: #56b6c2&quot;&gt;=&lt;/span&gt;&lt;span style=&quot;color: #abb2bf&quot;&gt;&amp;nbsp;&lt;/span&gt;&lt;span style=&quot;color: #c678dd&quot;&gt;await&lt;/span&gt;&lt;span style=&quot;color: #abb2bf&quot;&gt;&amp;nbsp;&lt;/span&gt;&lt;span style=&quot;color: #61afef&quot;&gt;parseSFC&lt;/span&gt;&lt;span style=&quot;color: #abb2bf&quot;&gt;(root,&amp;nbsp;filePath,&amp;nbsp;ctx.&lt;/span&gt;&lt;span style=&quot;color: #e06c75&quot;&gt;body&lt;/span&gt;&lt;span style=&quot;color: #abb2bf&quot;&gt;);&lt;/span&gt;&lt;/div&gt;&lt;/div&gt;&#10;&#10;" style="rounded=1;whiteSpace=wrap;html=1;align=left;" vertex="1" parent="1">
                    <mxGeometry x="630" y="650" width="480" height="60" as="geometry"/>
                </mxCell>
                <mxCell id="21" style="edgeStyle=orthogonalEdgeStyle;rounded=0;orthogonalLoop=1;jettySize=auto;html=1;" edge="1" parent="1" source="18" target="20">
                    <mxGeometry relative="1" as="geometry"/>
                </mxCell>
                <mxCell id="18" value="&#10;&#10;&lt;div style=&quot;color: rgb(171, 178, 191); background-color: rgb(40, 44, 52); font-family: consolas, &amp;quot;courier new&amp;quot;, monospace; font-weight: normal; font-size: 14px; line-height: 19px;&quot;&gt;&lt;div&gt;&lt;span style=&quot;color: #c678dd&quot;&gt;async&lt;/span&gt;&lt;span style=&quot;color: #abb2bf&quot;&gt;&amp;nbsp;&lt;/span&gt;&lt;span style=&quot;color: #c678dd&quot;&gt;function&lt;/span&gt;&lt;span style=&quot;color: #abb2bf&quot;&gt;&amp;nbsp;&lt;/span&gt;&lt;span style=&quot;color: #61afef&quot;&gt;parseSFC&lt;/span&gt;&lt;span style=&quot;color: #abb2bf&quot;&gt;(&lt;/span&gt;&lt;/div&gt;&lt;div&gt;&lt;span style=&quot;color: #abb2bf&quot;&gt;&amp;nbsp;&amp;nbsp;root&lt;/span&gt;&lt;span style=&quot;color: #56b6c2&quot;&gt;:&lt;/span&gt;&lt;span style=&quot;color: #abb2bf&quot;&gt;&amp;nbsp;&lt;/span&gt;&lt;span style=&quot;color: #56b6c2&quot;&gt;string&lt;/span&gt;&lt;span style=&quot;color: #abb2bf&quot;&gt;,&lt;/span&gt;&lt;/div&gt;&lt;div&gt;&lt;span style=&quot;color: #abb2bf&quot;&gt;&amp;nbsp;&amp;nbsp;filePath&lt;/span&gt;&lt;span style=&quot;color: #56b6c2&quot;&gt;:&lt;/span&gt;&lt;span style=&quot;color: #abb2bf&quot;&gt;&amp;nbsp;&lt;/span&gt;&lt;span style=&quot;color: #56b6c2&quot;&gt;string&lt;/span&gt;&lt;span style=&quot;color: #abb2bf&quot;&gt;,&lt;/span&gt;&lt;/div&gt;&lt;div&gt;&lt;span style=&quot;color: #abb2bf&quot;&gt;&amp;nbsp;&amp;nbsp;content&lt;/span&gt;&lt;span style=&quot;color: #56b6c2&quot;&gt;?:&lt;/span&gt;&lt;span style=&quot;color: #abb2bf&quot;&gt;&amp;nbsp;&lt;/span&gt;&lt;span style=&quot;color: #56b6c2&quot;&gt;string&lt;/span&gt;&lt;span style=&quot;color: #abb2bf&quot;&gt;&amp;nbsp;&lt;/span&gt;&lt;span style=&quot;color: #56b6c2&quot;&gt;|&lt;/span&gt;&lt;span style=&quot;color: #abb2bf&quot;&gt;&amp;nbsp;&lt;/span&gt;&lt;span style=&quot;color: #e5c07b&quot;&gt;Buffer&lt;/span&gt;&lt;/div&gt;&lt;div&gt;&lt;span style=&quot;color: #abb2bf&quot;&gt;)&lt;/span&gt;&lt;span style=&quot;color: #56b6c2&quot;&gt;:&lt;/span&gt;&lt;span style=&quot;color: #abb2bf&quot;&gt;&amp;nbsp;&lt;/span&gt;&lt;span style=&quot;color: #e5c07b&quot;&gt;Promise&lt;/span&gt;&lt;span style=&quot;color: #abb2bf&quot;&gt;&amp;lt;&lt;/span&gt;&lt;span style=&quot;color: #e5c07b&quot;&gt;SFCDescriptor&lt;/span&gt;&lt;span style=&quot;color: #abb2bf&quot;&gt;&amp;nbsp;&lt;/span&gt;&lt;span style=&quot;color: #56b6c2&quot;&gt;|&lt;/span&gt;&lt;span style=&quot;color: #abb2bf&quot;&gt;&amp;nbsp;undefined&amp;gt;&amp;nbsp;{&lt;/span&gt;&lt;/div&gt;&lt;div&gt;&lt;span style=&quot;color: #abb2bf&quot;&gt;&amp;nbsp;&amp;nbsp;&lt;/span&gt;&lt;span style=&quot;color: #5c6370 ; font-style: italic&quot;&gt;//&amp;nbsp;读取缓存&lt;/span&gt;&lt;/div&gt;&lt;div&gt;&lt;span style=&quot;color: #abb2bf&quot;&gt;&amp;nbsp;&amp;nbsp;&lt;/span&gt;&lt;span style=&quot;color: #c678dd&quot;&gt;let&lt;/span&gt;&lt;span style=&quot;color: #abb2bf&quot;&gt;&amp;nbsp;cached&amp;nbsp;&lt;/span&gt;&lt;span style=&quot;color: #56b6c2&quot;&gt;=&lt;/span&gt;&lt;span style=&quot;color: #abb2bf&quot;&gt;&amp;nbsp;vueCache.&lt;/span&gt;&lt;span style=&quot;color: #61afef&quot;&gt;get&lt;/span&gt;&lt;span style=&quot;color: #abb2bf&quot;&gt;(filePath)&lt;/span&gt;&lt;/div&gt;&lt;div&gt;&lt;span style=&quot;color: #abb2bf&quot;&gt;&amp;nbsp;&amp;nbsp;&lt;/span&gt;&lt;span style=&quot;color: #c678dd&quot;&gt;if&lt;/span&gt;&lt;span style=&quot;color: #abb2bf&quot;&gt;&amp;nbsp;(cached&amp;nbsp;&lt;/span&gt;&lt;span style=&quot;color: #56b6c2&quot;&gt;&amp;amp;&amp;amp;&lt;/span&gt;&lt;span style=&quot;color: #abb2bf&quot;&gt;&amp;nbsp;cached.&lt;/span&gt;&lt;span style=&quot;color: #e06c75&quot;&gt;descriptor&lt;/span&gt;&lt;span style=&quot;color: #abb2bf&quot;&gt;)&amp;nbsp;{&lt;/span&gt;&lt;/div&gt;&lt;div&gt;&lt;span style=&quot;color: #abb2bf&quot;&gt;&amp;nbsp;&amp;nbsp;&amp;nbsp;&amp;nbsp;&lt;/span&gt;&lt;span style=&quot;color: #61afef&quot;&gt;debug&lt;/span&gt;&lt;span style=&quot;color: #abb2bf&quot;&gt;(&lt;/span&gt;&lt;span style=&quot;color: #98c379&quot;&gt;`&lt;/span&gt;&lt;span style=&quot;color: #be5046&quot;&gt;${&lt;/span&gt;&lt;span style=&quot;color: #abb2bf&quot;&gt;filePath&lt;/span&gt;&lt;span style=&quot;color: #be5046&quot;&gt;}&lt;/span&gt;&lt;span style=&quot;color: #98c379&quot;&gt;&amp;nbsp;parse&amp;nbsp;cache&amp;nbsp;hit`&lt;/span&gt;&lt;span style=&quot;color: #abb2bf&quot;&gt;)&lt;/span&gt;&lt;/div&gt;&lt;div&gt;&lt;span style=&quot;color: #abb2bf&quot;&gt;&amp;nbsp;&amp;nbsp;&amp;nbsp;&amp;nbsp;&lt;/span&gt;&lt;span style=&quot;color: #c678dd&quot;&gt;return&lt;/span&gt;&lt;span style=&quot;color: #abb2bf&quot;&gt;&amp;nbsp;cached.&lt;/span&gt;&lt;span style=&quot;color: #e06c75&quot;&gt;descriptor&lt;/span&gt;&lt;/div&gt;&lt;div&gt;&lt;span style=&quot;color: #abb2bf&quot;&gt;&amp;nbsp;&amp;nbsp;}&lt;/span&gt;&lt;/div&gt;&lt;br&gt;&lt;div&gt;&lt;span style=&quot;color: #abb2bf&quot;&gt;&amp;nbsp;&amp;nbsp;&lt;/span&gt;&lt;span style=&quot;color: #c678dd&quot;&gt;if&lt;/span&gt;&lt;span style=&quot;color: #abb2bf&quot;&gt;&amp;nbsp;(&lt;/span&gt;&lt;span style=&quot;color: #56b6c2&quot;&gt;!&lt;/span&gt;&lt;span style=&quot;color: #abb2bf&quot;&gt;content)&amp;nbsp;{&lt;/span&gt;&lt;/div&gt;&lt;div&gt;&lt;span style=&quot;color: #abb2bf&quot;&gt;&amp;nbsp;&amp;nbsp;&amp;nbsp;&amp;nbsp;&lt;/span&gt;&lt;span style=&quot;color: #c678dd&quot;&gt;try&lt;/span&gt;&lt;span style=&quot;color: #abb2bf&quot;&gt;&amp;nbsp;{&lt;/span&gt;&lt;/div&gt;&lt;div&gt;&lt;span style=&quot;color: #abb2bf&quot;&gt;&amp;nbsp;&amp;nbsp;&amp;nbsp;&amp;nbsp;&amp;nbsp;&amp;nbsp;&lt;/span&gt;&lt;span style=&quot;color: #5c6370 ; font-style: italic&quot;&gt;//&amp;nbsp;不存在缓存和内容的情况下,直接读取文件内容并缓存&lt;/span&gt;&lt;/div&gt;&lt;div&gt;&lt;span style=&quot;color: #abb2bf&quot;&gt;&amp;nbsp;&amp;nbsp;&amp;nbsp;&amp;nbsp;&amp;nbsp;&amp;nbsp;content&amp;nbsp;&lt;/span&gt;&lt;span style=&quot;color: #56b6c2&quot;&gt;=&lt;/span&gt;&lt;span style=&quot;color: #abb2bf&quot;&gt;&amp;nbsp;&lt;/span&gt;&lt;span style=&quot;color: #c678dd&quot;&gt;await&lt;/span&gt;&lt;span style=&quot;color: #abb2bf&quot;&gt;&amp;nbsp;&lt;/span&gt;&lt;span style=&quot;color: #61afef&quot;&gt;cachedRead&lt;/span&gt;&lt;span style=&quot;color: #abb2bf&quot;&gt;(&lt;/span&gt;&lt;span style=&quot;color: #d19a66&quot;&gt;null&lt;/span&gt;&lt;span style=&quot;color: #abb2bf&quot;&gt;,&amp;nbsp;filePath,&amp;nbsp;&lt;/span&gt;&lt;span style=&quot;color: #d19a66&quot;&gt;true&lt;/span&gt;&lt;span style=&quot;color: #abb2bf&quot;&gt;&amp;nbsp;&lt;/span&gt;&lt;span style=&quot;color: #5c6370 ; font-style: italic&quot;&gt;/*&amp;nbsp;poll&amp;nbsp;*/&lt;/span&gt;&lt;span style=&quot;color: #abb2bf&quot;&gt;)&lt;/span&gt;&lt;/div&gt;&lt;div&gt;&lt;span style=&quot;color: #abb2bf&quot;&gt;&amp;nbsp;&amp;nbsp;&amp;nbsp;&amp;nbsp;}&amp;nbsp;&lt;/span&gt;&lt;span style=&quot;color: #c678dd&quot;&gt;catch&lt;/span&gt;&lt;span style=&quot;color: #abb2bf&quot;&gt;&amp;nbsp;(e)&amp;nbsp;{&lt;/span&gt;&lt;/div&gt;&lt;div&gt;&lt;span style=&quot;color: #abb2bf&quot;&gt;&amp;nbsp;&amp;nbsp;&amp;nbsp;&amp;nbsp;&amp;nbsp;&amp;nbsp;&lt;/span&gt;&lt;span style=&quot;color: #c678dd&quot;&gt;return&lt;/span&gt;&lt;/div&gt;&lt;div&gt;&lt;span style=&quot;color: #abb2bf&quot;&gt;&amp;nbsp;&amp;nbsp;&amp;nbsp;&amp;nbsp;}&lt;/span&gt;&lt;/div&gt;&lt;div&gt;&lt;span style=&quot;color: #abb2bf&quot;&gt;&amp;nbsp;&amp;nbsp;}&lt;/span&gt;&lt;/div&gt;&lt;br&gt;&lt;div&gt;&lt;span style=&quot;color: #abb2bf&quot;&gt;&amp;nbsp;&amp;nbsp;&lt;/span&gt;&lt;span style=&quot;color: #c678dd&quot;&gt;if&lt;/span&gt;&lt;span style=&quot;color: #abb2bf&quot;&gt;&amp;nbsp;(&lt;/span&gt;&lt;span style=&quot;color: #56b6c2&quot;&gt;typeof&lt;/span&gt;&lt;span style=&quot;color: #abb2bf&quot;&gt;&amp;nbsp;content&amp;nbsp;&lt;/span&gt;&lt;span style=&quot;color: #56b6c2&quot;&gt;!==&lt;/span&gt;&lt;span style=&quot;color: #abb2bf&quot;&gt;&amp;nbsp;&lt;/span&gt;&lt;span style=&quot;color: #98c379&quot;&gt;'string'&lt;/span&gt;&lt;span style=&quot;color: #abb2bf&quot;&gt;)&amp;nbsp;{&lt;/span&gt;&lt;/div&gt;&lt;div&gt;&lt;span style=&quot;color: #abb2bf&quot;&gt;&amp;nbsp;&amp;nbsp;&amp;nbsp;&amp;nbsp;content&amp;nbsp;&lt;/span&gt;&lt;span style=&quot;color: #56b6c2&quot;&gt;=&lt;/span&gt;&lt;span style=&quot;color: #abb2bf&quot;&gt;&amp;nbsp;content.&lt;/span&gt;&lt;span style=&quot;color: #61afef&quot;&gt;toString&lt;/span&gt;&lt;span style=&quot;color: #abb2bf&quot;&gt;()&lt;/span&gt;&lt;/div&gt;&lt;div&gt;&lt;span style=&quot;color: #abb2bf&quot;&gt;&amp;nbsp;&amp;nbsp;}&lt;/span&gt;&lt;/div&gt;&lt;br&gt;&lt;div&gt;&lt;span style=&quot;color: #abb2bf&quot;&gt;&amp;nbsp;&amp;nbsp;&lt;/span&gt;&lt;span style=&quot;color: #c678dd&quot;&gt;const&lt;/span&gt;&lt;span style=&quot;color: #abb2bf&quot;&gt;&amp;nbsp;&lt;/span&gt;&lt;span style=&quot;color: #d19a66&quot;&gt;start&lt;/span&gt;&lt;span style=&quot;color: #abb2bf&quot;&gt;&amp;nbsp;&lt;/span&gt;&lt;span style=&quot;color: #56b6c2&quot;&gt;=&lt;/span&gt;&lt;span style=&quot;color: #abb2bf&quot;&gt;&amp;nbsp;&lt;/span&gt;&lt;span style=&quot;color: #e5c07b&quot;&gt;Date&lt;/span&gt;&lt;span style=&quot;color: #abb2bf&quot;&gt;.&lt;/span&gt;&lt;span style=&quot;color: #61afef&quot;&gt;now&lt;/span&gt;&lt;span style=&quot;color: #abb2bf&quot;&gt;()&lt;/span&gt;&lt;/div&gt;&lt;div&gt;&lt;span style=&quot;color: #abb2bf&quot;&gt;&amp;nbsp;&amp;nbsp;&lt;/span&gt;&lt;span style=&quot;color: #5c6370 ; font-style: italic&quot;&gt;//&amp;nbsp;获取&amp;nbsp;@vue/compiler-sfc&lt;/span&gt;&lt;/div&gt;&lt;div&gt;&lt;span style=&quot;color: #abb2bf&quot;&gt;&amp;nbsp;&amp;nbsp;&lt;/span&gt;&lt;span style=&quot;color: #c678dd&quot;&gt;const&lt;/span&gt;&lt;span style=&quot;color: #abb2bf&quot;&gt;&amp;nbsp;{&amp;nbsp;&lt;/span&gt;&lt;span style=&quot;color: #d19a66&quot;&gt;parse&lt;/span&gt;&lt;span style=&quot;color: #abb2bf&quot;&gt;&amp;nbsp;}&amp;nbsp;&lt;/span&gt;&lt;span style=&quot;color: #56b6c2&quot;&gt;=&lt;/span&gt;&lt;span style=&quot;color: #abb2bf&quot;&gt;&amp;nbsp;&lt;/span&gt;&lt;span style=&quot;color: #61afef&quot;&gt;resolveCompiler&lt;/span&gt;&lt;span style=&quot;color: #abb2bf&quot;&gt;(root)&lt;/span&gt;&lt;/div&gt;&lt;div&gt;&lt;span style=&quot;color: #abb2bf&quot;&gt;&amp;nbsp;&amp;nbsp;&lt;/span&gt;&lt;span style=&quot;color: #5c6370 ; font-style: italic&quot;&gt;//&amp;nbsp;@vue/compiler-sfc&amp;nbsp;暴露的&amp;nbsp;parse&amp;nbsp;进行解析&amp;nbsp;.vue&amp;nbsp;文件&lt;/span&gt;&lt;/div&gt;&lt;div&gt;&lt;span style=&quot;color: #abb2bf&quot;&gt;&amp;nbsp;&amp;nbsp;&lt;/span&gt;&lt;span style=&quot;color: #5c6370 ; font-style: italic&quot;&gt;/**&lt;/span&gt;&lt;/div&gt;&lt;div&gt;&lt;span style=&quot;color: #5c6370 ; font-style: italic&quot;&gt;&amp;nbsp;&amp;nbsp;&amp;nbsp;*&amp;nbsp;const&amp;nbsp;descriptor&amp;nbsp;=&amp;nbsp;{&lt;/span&gt;&lt;/div&gt;&lt;div&gt;&lt;span style=&quot;color: #5c6370 ; font-style: italic&quot;&gt;&amp;nbsp;&amp;nbsp;&amp;nbsp;&amp;nbsp;&amp;nbsp;&amp;nbsp;&amp;nbsp;&amp;nbsp;filename,&lt;/span&gt;&lt;/div&gt;&lt;div&gt;&lt;span style=&quot;color: #5c6370 ; font-style: italic&quot;&gt;&amp;nbsp;&amp;nbsp;&amp;nbsp;&amp;nbsp;&amp;nbsp;&amp;nbsp;&amp;nbsp;&amp;nbsp;source,&lt;/span&gt;&lt;/div&gt;&lt;div&gt;&lt;span style=&quot;color: #5c6370 ; font-style: italic&quot;&gt;&amp;nbsp;&amp;nbsp;&amp;nbsp;&amp;nbsp;&amp;nbsp;&amp;nbsp;&amp;nbsp;&amp;nbsp;template:&amp;nbsp;null,&lt;/span&gt;&lt;/div&gt;&lt;div&gt;&lt;span style=&quot;color: #5c6370 ; font-style: italic&quot;&gt;&amp;nbsp;&amp;nbsp;&amp;nbsp;&amp;nbsp;&amp;nbsp;&amp;nbsp;&amp;nbsp;&amp;nbsp;script:&amp;nbsp;null,&lt;/span&gt;&lt;/div&gt;&lt;div&gt;&lt;span style=&quot;color: #5c6370 ; font-style: italic&quot;&gt;&amp;nbsp;&amp;nbsp;&amp;nbsp;&amp;nbsp;&amp;nbsp;&amp;nbsp;&amp;nbsp;&amp;nbsp;scriptSetup:&amp;nbsp;null,&lt;/span&gt;&lt;/div&gt;&lt;div&gt;&lt;span style=&quot;color: #5c6370 ; font-style: italic&quot;&gt;&amp;nbsp;&amp;nbsp;&amp;nbsp;&amp;nbsp;&amp;nbsp;&amp;nbsp;&amp;nbsp;&amp;nbsp;styles:&amp;nbsp;[],&lt;/span&gt;&lt;/div&gt;&lt;div&gt;&lt;span style=&quot;color: #5c6370 ; font-style: italic&quot;&gt;&amp;nbsp;&amp;nbsp;&amp;nbsp;&amp;nbsp;&amp;nbsp;&amp;nbsp;&amp;nbsp;&amp;nbsp;customBlocks:&amp;nbsp;[],&lt;/span&gt;&lt;/div&gt;&lt;div&gt;&lt;span style=&quot;color: #5c6370 ; font-style: italic&quot;&gt;&amp;nbsp;&amp;nbsp;&amp;nbsp;&amp;nbsp;&amp;nbsp;&amp;nbsp;&amp;nbsp;&amp;nbsp;cssVars:&amp;nbsp;[]&lt;/span&gt;&lt;/div&gt;&lt;div&gt;&lt;span style=&quot;color: #5c6370 ; font-style: italic&quot;&gt;&amp;nbsp;&amp;nbsp;&amp;nbsp;&amp;nbsp;};&lt;/span&gt;&lt;/div&gt;&lt;div&gt;&lt;span style=&quot;color: #5c6370 ; font-style: italic&quot;&gt;&amp;nbsp;&amp;nbsp;&amp;nbsp;*/&lt;/span&gt;&lt;/div&gt;&lt;div&gt;&lt;span style=&quot;color: #abb2bf&quot;&gt;&amp;nbsp;&amp;nbsp;&lt;/span&gt;&lt;span style=&quot;color: #c678dd&quot;&gt;const&lt;/span&gt;&lt;span style=&quot;color: #abb2bf&quot;&gt;&amp;nbsp;{&amp;nbsp;&lt;/span&gt;&lt;span style=&quot;color: #d19a66&quot;&gt;descriptor&lt;/span&gt;&lt;span style=&quot;color: #abb2bf&quot;&gt;,&amp;nbsp;&lt;/span&gt;&lt;span style=&quot;color: #d19a66&quot;&gt;errors&lt;/span&gt;&lt;span style=&quot;color: #abb2bf&quot;&gt;&amp;nbsp;}&amp;nbsp;&lt;/span&gt;&lt;span style=&quot;color: #56b6c2&quot;&gt;=&lt;/span&gt;&lt;span style=&quot;color: #abb2bf&quot;&gt;&amp;nbsp;&lt;/span&gt;&lt;span style=&quot;color: #61afef&quot;&gt;parse&lt;/span&gt;&lt;span style=&quot;color: #abb2bf&quot;&gt;(content,&amp;nbsp;{&lt;/span&gt;&lt;/div&gt;&lt;div&gt;&lt;span style=&quot;color: #abb2bf&quot;&gt;&amp;nbsp;&amp;nbsp;&amp;nbsp;&amp;nbsp;&lt;/span&gt;&lt;span style=&quot;color: #e06c75&quot;&gt;filename&lt;/span&gt;&lt;span style=&quot;color: #56b6c2&quot;&gt;:&lt;/span&gt;&lt;span style=&quot;color: #abb2bf&quot;&gt;&amp;nbsp;filePath,&lt;/span&gt;&lt;/div&gt;&lt;div&gt;&lt;span style=&quot;color: #abb2bf&quot;&gt;&amp;nbsp;&amp;nbsp;&amp;nbsp;&amp;nbsp;&lt;/span&gt;&lt;span style=&quot;color: #e06c75&quot;&gt;sourceMap&lt;/span&gt;&lt;span style=&quot;color: #56b6c2&quot;&gt;:&lt;/span&gt;&lt;span style=&quot;color: #abb2bf&quot;&gt;&amp;nbsp;&lt;/span&gt;&lt;span style=&quot;color: #d19a66&quot;&gt;true&lt;/span&gt;&lt;/div&gt;&lt;div&gt;&lt;span style=&quot;color: #abb2bf&quot;&gt;&amp;nbsp;&amp;nbsp;})&lt;/span&gt;&lt;/div&gt;&lt;br&gt;&lt;div&gt;&lt;span style=&quot;color: #abb2bf&quot;&gt;&amp;nbsp;&amp;nbsp;cached&amp;nbsp;&lt;/span&gt;&lt;span style=&quot;color: #56b6c2&quot;&gt;=&lt;/span&gt;&lt;span style=&quot;color: #abb2bf&quot;&gt;&amp;nbsp;cached&amp;nbsp;&lt;/span&gt;&lt;span style=&quot;color: #56b6c2&quot;&gt;||&lt;/span&gt;&lt;span style=&quot;color: #abb2bf&quot;&gt;&amp;nbsp;{&amp;nbsp;&lt;/span&gt;&lt;span style=&quot;color: #e06c75&quot;&gt;styles&lt;/span&gt;&lt;span style=&quot;color: #56b6c2&quot;&gt;:&lt;/span&gt;&lt;span style=&quot;color: #abb2bf&quot;&gt;&amp;nbsp;[],&amp;nbsp;&lt;/span&gt;&lt;span style=&quot;color: #e06c75&quot;&gt;customs&lt;/span&gt;&lt;span style=&quot;color: #56b6c2&quot;&gt;:&lt;/span&gt;&lt;span style=&quot;color: #abb2bf&quot;&gt;&amp;nbsp;[]&amp;nbsp;}&lt;/span&gt;&lt;/div&gt;&lt;div&gt;&lt;span style=&quot;color: #abb2bf&quot;&gt;&amp;nbsp;&amp;nbsp;&lt;/span&gt;&lt;span style=&quot;color: #5c6370 ; font-style: italic&quot;&gt;//&amp;nbsp;设置缓存&lt;/span&gt;&lt;/div&gt;&lt;div&gt;&lt;span style=&quot;color: #abb2bf&quot;&gt;&amp;nbsp;&amp;nbsp;cached.&lt;/span&gt;&lt;span style=&quot;color: #e06c75&quot;&gt;descriptor&lt;/span&gt;&lt;span style=&quot;color: #abb2bf&quot;&gt;&amp;nbsp;&lt;/span&gt;&lt;span style=&quot;color: #56b6c2&quot;&gt;=&lt;/span&gt;&lt;span style=&quot;color: #abb2bf&quot;&gt;&amp;nbsp;descriptor&lt;/span&gt;&lt;/div&gt;&lt;br&gt;&lt;div&gt;&lt;span style=&quot;color: #abb2bf&quot;&gt;&amp;nbsp;&amp;nbsp;&lt;/span&gt;&lt;span style=&quot;color: #61afef&quot;&gt;debug&lt;/span&gt;&lt;span style=&quot;color: #abb2bf&quot;&gt;(&lt;/span&gt;&lt;span style=&quot;color: #98c379&quot;&gt;`&lt;/span&gt;&lt;span style=&quot;color: #be5046&quot;&gt;${&lt;/span&gt;&lt;span style=&quot;color: #abb2bf&quot;&gt;filePath&lt;/span&gt;&lt;span style=&quot;color: #be5046&quot;&gt;}&lt;/span&gt;&lt;span style=&quot;color: #98c379&quot;&gt;&amp;nbsp;parsed&amp;nbsp;in&amp;nbsp;&lt;/span&gt;&lt;span style=&quot;color: #be5046&quot;&gt;${&lt;/span&gt;&lt;span style=&quot;color: #e5c07b&quot;&gt;Date&lt;/span&gt;&lt;span style=&quot;color: #98c379&quot;&gt;.&lt;/span&gt;&lt;span style=&quot;color: #61afef&quot;&gt;now&lt;/span&gt;&lt;span style=&quot;color: #abb2bf&quot;&gt;()&lt;/span&gt;&lt;span style=&quot;color: #98c379&quot;&gt;&amp;nbsp;&lt;/span&gt;&lt;span style=&quot;color: #56b6c2&quot;&gt;-&lt;/span&gt;&lt;span style=&quot;color: #98c379&quot;&gt;&amp;nbsp;&lt;/span&gt;&lt;span style=&quot;color: #abb2bf&quot;&gt;start&lt;/span&gt;&lt;span style=&quot;color: #be5046&quot;&gt;}&lt;/span&gt;&lt;span style=&quot;color: #98c379&quot;&gt;ms.`&lt;/span&gt;&lt;span style=&quot;color: #abb2bf&quot;&gt;)&lt;/span&gt;&lt;/div&gt;&lt;div&gt;&lt;span style=&quot;color: #abb2bf&quot;&gt;&amp;nbsp;&amp;nbsp;&lt;/span&gt;&lt;span style=&quot;color: #c678dd&quot;&gt;return&lt;/span&gt;&lt;span style=&quot;color: #abb2bf&quot;&gt;&amp;nbsp;descriptor&lt;/span&gt;&lt;/div&gt;&lt;div&gt;&lt;span style=&quot;color: #abb2bf&quot;&gt;}&lt;/span&gt;&lt;/div&gt;&lt;/div&gt;&#10;&#10;" style="rounded=1;whiteSpace=wrap;html=1;align=left;" vertex="1" parent="1">
                    <mxGeometry x="615" y="890" width="510" height="1130" as="geometry"/>
                </mxCell>
                <mxCell id="24" style="edgeStyle=orthogonalEdgeStyle;rounded=0;orthogonalLoop=1;jettySize=auto;html=1;" edge="1" parent="1" source="20" target="22">
                    <mxGeometry relative="1" as="geometry"/>
                </mxCell>
                <mxCell id="20" value="@vue/compiler-sfc" style="rounded=1;whiteSpace=wrap;html=1;align=center;" vertex="1" parent="1">
                    <mxGeometry x="1360" y="1425" width="120" height="60" as="geometry"/>
                </mxCell>
                <mxCell id="26" style="edgeStyle=orthogonalEdgeStyle;rounded=0;orthogonalLoop=1;jettySize=auto;html=1;" edge="1" parent="1" source="22" target="25">
                    <mxGeometry relative="1" as="geometry"/>
                </mxCell>
                <mxCell id="22" value="&#10;&#10;&lt;div style=&quot;color: rgb(171, 178, 191); background-color: rgb(40, 44, 52); font-family: consolas, &amp;quot;courier new&amp;quot;, monospace; font-weight: normal; font-size: 14px; line-height: 19px;&quot;&gt;&lt;div&gt;&lt;span style=&quot;color: #c678dd&quot;&gt;function&lt;/span&gt;&lt;span style=&quot;color: #abb2bf&quot;&gt;&amp;nbsp;&lt;/span&gt;&lt;span style=&quot;color: #61afef&quot;&gt;parse&lt;/span&gt;&lt;span style=&quot;color: #abb2bf&quot;&gt;(source,&amp;nbsp;{&amp;nbsp;sourceMap&amp;nbsp;&lt;/span&gt;&lt;span style=&quot;color: #56b6c2&quot;&gt;=&lt;/span&gt;&lt;span style=&quot;color: #abb2bf&quot;&gt;&amp;nbsp;&lt;/span&gt;&lt;span style=&quot;color: #d19a66&quot;&gt;true&lt;/span&gt;&lt;span style=&quot;color: #abb2bf&quot;&gt;,&amp;nbsp;filename&amp;nbsp;&lt;/span&gt;&lt;span style=&quot;color: #56b6c2&quot;&gt;=&lt;/span&gt;&lt;span style=&quot;color: #abb2bf&quot;&gt;&amp;nbsp;&lt;/span&gt;&lt;span style=&quot;color: #98c379&quot;&gt;'anonymous.vue'&lt;/span&gt;&lt;span style=&quot;color: #abb2bf&quot;&gt;,&amp;nbsp;sourceRoot&amp;nbsp;&lt;/span&gt;&lt;span style=&quot;color: #56b6c2&quot;&gt;=&lt;/span&gt;&lt;span style=&quot;color: #abb2bf&quot;&gt;&amp;nbsp;&lt;/span&gt;&lt;span style=&quot;color: #98c379&quot;&gt;''&lt;/span&gt;&lt;span style=&quot;color: #abb2bf&quot;&gt;,&amp;nbsp;pad&amp;nbsp;&lt;/span&gt;&lt;span style=&quot;color: #56b6c2&quot;&gt;=&lt;/span&gt;&lt;span style=&quot;color: #abb2bf&quot;&gt;&amp;nbsp;&lt;/span&gt;&lt;span style=&quot;color: #d19a66&quot;&gt;false&lt;/span&gt;&lt;span style=&quot;color: #abb2bf&quot;&gt;,&amp;nbsp;compiler&amp;nbsp;&lt;/span&gt;&lt;span style=&quot;color: #56b6c2&quot;&gt;=&lt;/span&gt;&lt;span style=&quot;color: #abb2bf&quot;&gt;&amp;nbsp;CompilerDOM__namespace&amp;nbsp;}&amp;nbsp;&lt;/span&gt;&lt;span style=&quot;color: #56b6c2&quot;&gt;=&lt;/span&gt;&lt;span style=&quot;color: #abb2bf&quot;&gt;&amp;nbsp;{})&amp;nbsp;{&lt;/span&gt;&lt;/div&gt;&lt;div&gt;&lt;span style=&quot;color: #abb2bf&quot;&gt;&amp;nbsp;&amp;nbsp;&lt;/span&gt;&lt;span style=&quot;color: #c678dd&quot;&gt;const&lt;/span&gt;&lt;span style=&quot;color: #abb2bf&quot;&gt;&amp;nbsp;&lt;/span&gt;&lt;span style=&quot;color: #d19a66&quot;&gt;sourceKey&lt;/span&gt;&lt;span style=&quot;color: #abb2bf&quot;&gt;&amp;nbsp;&lt;/span&gt;&lt;span style=&quot;color: #56b6c2&quot;&gt;=&lt;/span&gt;&lt;span style=&quot;color: #abb2bf&quot;&gt;&amp;nbsp;source&amp;nbsp;&lt;/span&gt;&lt;span style=&quot;color: #56b6c2&quot;&gt;+&lt;/span&gt;&lt;span style=&quot;color: #abb2bf&quot;&gt;&amp;nbsp;sourceMap&amp;nbsp;&lt;/span&gt;&lt;span style=&quot;color: #56b6c2&quot;&gt;+&lt;/span&gt;&lt;span style=&quot;color: #abb2bf&quot;&gt;&amp;nbsp;filename&amp;nbsp;&lt;/span&gt;&lt;span style=&quot;color: #56b6c2&quot;&gt;+&lt;/span&gt;&lt;span style=&quot;color: #abb2bf&quot;&gt;&amp;nbsp;sourceRoot&amp;nbsp;&lt;/span&gt;&lt;span style=&quot;color: #56b6c2&quot;&gt;+&lt;/span&gt;&lt;span style=&quot;color: #abb2bf&quot;&gt;&amp;nbsp;pad&amp;nbsp;&lt;/span&gt;&lt;span style=&quot;color: #56b6c2&quot;&gt;+&lt;/span&gt;&lt;span style=&quot;color: #abb2bf&quot;&gt;&amp;nbsp;compiler.&lt;/span&gt;&lt;span style=&quot;color: #e06c75&quot;&gt;parse&lt;/span&gt;&lt;span style=&quot;color: #abb2bf&quot;&gt;;&lt;/span&gt;&lt;/div&gt;&lt;div&gt;&lt;span style=&quot;color: #abb2bf&quot;&gt;&amp;nbsp;&amp;nbsp;&lt;/span&gt;&lt;span style=&quot;color: #c678dd&quot;&gt;const&lt;/span&gt;&lt;span style=&quot;color: #abb2bf&quot;&gt;&amp;nbsp;&lt;/span&gt;&lt;span style=&quot;color: #d19a66&quot;&gt;cache&lt;/span&gt;&lt;span style=&quot;color: #abb2bf&quot;&gt;&amp;nbsp;&lt;/span&gt;&lt;span style=&quot;color: #56b6c2&quot;&gt;=&lt;/span&gt;&lt;span style=&quot;color: #abb2bf&quot;&gt;&amp;nbsp;sourceToSFC.&lt;/span&gt;&lt;span style=&quot;color: #61afef&quot;&gt;get&lt;/span&gt;&lt;span style=&quot;color: #abb2bf&quot;&gt;(sourceKey);&lt;/span&gt;&lt;/div&gt;&lt;div&gt;&lt;span style=&quot;color: #abb2bf&quot;&gt;&amp;nbsp;&amp;nbsp;&lt;/span&gt;&lt;span style=&quot;color: #c678dd&quot;&gt;if&lt;/span&gt;&lt;span style=&quot;color: #abb2bf&quot;&gt;&amp;nbsp;(cache)&amp;nbsp;{&lt;/span&gt;&lt;/div&gt;&lt;div&gt;&lt;span style=&quot;color: #abb2bf&quot;&gt;&amp;nbsp;&amp;nbsp;&amp;nbsp;&amp;nbsp;&amp;nbsp;&amp;nbsp;&lt;/span&gt;&lt;span style=&quot;color: #c678dd&quot;&gt;return&lt;/span&gt;&lt;span style=&quot;color: #abb2bf&quot;&gt;&amp;nbsp;cache;&lt;/span&gt;&lt;/div&gt;&lt;div&gt;&lt;span style=&quot;color: #abb2bf&quot;&gt;&amp;nbsp;&amp;nbsp;}&lt;/span&gt;&lt;/div&gt;&lt;div&gt;&lt;span style=&quot;color: #abb2bf&quot;&gt;&amp;nbsp;&amp;nbsp;&lt;/span&gt;&lt;span style=&quot;color: #c678dd&quot;&gt;const&lt;/span&gt;&lt;span style=&quot;color: #abb2bf&quot;&gt;&amp;nbsp;&lt;/span&gt;&lt;span style=&quot;color: #d19a66&quot;&gt;descriptor&lt;/span&gt;&lt;span style=&quot;color: #abb2bf&quot;&gt;&amp;nbsp;&lt;/span&gt;&lt;span style=&quot;color: #56b6c2&quot;&gt;=&lt;/span&gt;&lt;span style=&quot;color: #abb2bf&quot;&gt;&amp;nbsp;{&lt;/span&gt;&lt;/div&gt;&lt;div&gt;&lt;span style=&quot;color: #abb2bf&quot;&gt;&amp;nbsp;&amp;nbsp;&amp;nbsp;&amp;nbsp;&amp;nbsp;&amp;nbsp;filename,&lt;/span&gt;&lt;/div&gt;&lt;div&gt;&lt;span style=&quot;color: #abb2bf&quot;&gt;&amp;nbsp;&amp;nbsp;&amp;nbsp;&amp;nbsp;&amp;nbsp;&amp;nbsp;source,&lt;/span&gt;&lt;/div&gt;&lt;div&gt;&lt;span style=&quot;color: #abb2bf&quot;&gt;&amp;nbsp;&amp;nbsp;&amp;nbsp;&amp;nbsp;&amp;nbsp;&amp;nbsp;&lt;/span&gt;&lt;span style=&quot;color: #e06c75&quot;&gt;template&lt;/span&gt;&lt;span style=&quot;color: #56b6c2&quot;&gt;:&lt;/span&gt;&lt;span style=&quot;color: #abb2bf&quot;&gt;&amp;nbsp;&lt;/span&gt;&lt;span style=&quot;color: #d19a66&quot;&gt;null&lt;/span&gt;&lt;span style=&quot;color: #abb2bf&quot;&gt;,&lt;/span&gt;&lt;/div&gt;&lt;div&gt;&lt;span style=&quot;color: #abb2bf&quot;&gt;&amp;nbsp;&amp;nbsp;&amp;nbsp;&amp;nbsp;&amp;nbsp;&amp;nbsp;&lt;/span&gt;&lt;span style=&quot;color: #e06c75&quot;&gt;script&lt;/span&gt;&lt;span style=&quot;color: #56b6c2&quot;&gt;:&lt;/span&gt;&lt;span style=&quot;color: #abb2bf&quot;&gt;&amp;nbsp;&lt;/span&gt;&lt;span style=&quot;color: #d19a66&quot;&gt;null&lt;/span&gt;&lt;span style=&quot;color: #abb2bf&quot;&gt;,&lt;/span&gt;&lt;/div&gt;&lt;div&gt;&lt;span style=&quot;color: #abb2bf&quot;&gt;&amp;nbsp;&amp;nbsp;&amp;nbsp;&amp;nbsp;&amp;nbsp;&amp;nbsp;&lt;/span&gt;&lt;span style=&quot;color: #e06c75&quot;&gt;scriptSetup&lt;/span&gt;&lt;span style=&quot;color: #56b6c2&quot;&gt;:&lt;/span&gt;&lt;span style=&quot;color: #abb2bf&quot;&gt;&amp;nbsp;&lt;/span&gt;&lt;span style=&quot;color: #d19a66&quot;&gt;null&lt;/span&gt;&lt;span style=&quot;color: #abb2bf&quot;&gt;,&lt;/span&gt;&lt;/div&gt;&lt;div&gt;&lt;span style=&quot;color: #abb2bf&quot;&gt;&amp;nbsp;&amp;nbsp;&amp;nbsp;&amp;nbsp;&amp;nbsp;&amp;nbsp;&lt;/span&gt;&lt;span style=&quot;color: #e06c75&quot;&gt;styles&lt;/span&gt;&lt;span style=&quot;color: #56b6c2&quot;&gt;:&lt;/span&gt;&lt;span style=&quot;color: #abb2bf&quot;&gt;&amp;nbsp;[],&lt;/span&gt;&lt;/div&gt;&lt;div&gt;&lt;span style=&quot;color: #abb2bf&quot;&gt;&amp;nbsp;&amp;nbsp;&amp;nbsp;&amp;nbsp;&amp;nbsp;&amp;nbsp;&lt;/span&gt;&lt;span style=&quot;color: #e06c75&quot;&gt;customBlocks&lt;/span&gt;&lt;span style=&quot;color: #56b6c2&quot;&gt;:&lt;/span&gt;&lt;span style=&quot;color: #abb2bf&quot;&gt;&amp;nbsp;[],&lt;/span&gt;&lt;/div&gt;&lt;div&gt;&lt;span style=&quot;color: #abb2bf&quot;&gt;&amp;nbsp;&amp;nbsp;&amp;nbsp;&amp;nbsp;&amp;nbsp;&amp;nbsp;&lt;/span&gt;&lt;span style=&quot;color: #e06c75&quot;&gt;cssVars&lt;/span&gt;&lt;span style=&quot;color: #56b6c2&quot;&gt;:&lt;/span&gt;&lt;span style=&quot;color: #abb2bf&quot;&gt;&amp;nbsp;[]&lt;/span&gt;&lt;/div&gt;&lt;div&gt;&lt;span style=&quot;color: #abb2bf&quot;&gt;&amp;nbsp;&amp;nbsp;};&lt;/span&gt;&lt;/div&gt;&lt;div&gt;&lt;span style=&quot;color: #abb2bf&quot;&gt;&amp;nbsp;&amp;nbsp;&lt;/span&gt;&lt;span style=&quot;color: #c678dd&quot;&gt;const&lt;/span&gt;&lt;span style=&quot;color: #abb2bf&quot;&gt;&amp;nbsp;&lt;/span&gt;&lt;span style=&quot;color: #d19a66&quot;&gt;errors&lt;/span&gt;&lt;span style=&quot;color: #abb2bf&quot;&gt;&amp;nbsp;&lt;/span&gt;&lt;span style=&quot;color: #56b6c2&quot;&gt;=&lt;/span&gt;&lt;span style=&quot;color: #abb2bf&quot;&gt;&amp;nbsp;[]&lt;/span&gt;&lt;/div&gt;&lt;div&gt;&lt;span style=&quot;color: #abb2bf&quot;&gt;&amp;nbsp;&amp;nbsp;&lt;/span&gt;&lt;span style=&quot;color: #5c6370 ; font-style: italic&quot;&gt;//&amp;nbsp;@vue/compiler-dom&amp;nbsp;parse&amp;nbsp;生成&amp;nbsp;ast&lt;/span&gt;&lt;/div&gt;&lt;div&gt;&lt;span style=&quot;color: #abb2bf&quot;&gt;&amp;nbsp;&amp;nbsp;&lt;/span&gt;&lt;span style=&quot;color: #c678dd&quot;&gt;const&lt;/span&gt;&lt;span style=&quot;color: #abb2bf&quot;&gt;&amp;nbsp;&lt;/span&gt;&lt;span style=&quot;color: #d19a66&quot;&gt;ast&lt;/span&gt;&lt;span style=&quot;color: #abb2bf&quot;&gt;&amp;nbsp;&lt;/span&gt;&lt;span style=&quot;color: #56b6c2&quot;&gt;=&lt;/span&gt;&lt;span style=&quot;color: #abb2bf&quot;&gt;&amp;nbsp;compiler.&lt;/span&gt;&lt;span style=&quot;color: #61afef&quot;&gt;parse&lt;/span&gt;&lt;span style=&quot;color: #abb2bf&quot;&gt;(source,&amp;nbsp;{&lt;/span&gt;&lt;/div&gt;&lt;div&gt;&lt;span style=&quot;color: #abb2bf&quot;&gt;&amp;nbsp;&amp;nbsp;&amp;nbsp;&amp;nbsp;&amp;nbsp;&amp;nbsp;&lt;/span&gt;&lt;span style=&quot;color: #5c6370 ; font-style: italic&quot;&gt;//&amp;nbsp;there&amp;nbsp;are&amp;nbsp;no&amp;nbsp;components&amp;nbsp;at&amp;nbsp;SFC&amp;nbsp;parsing&amp;nbsp;level&lt;/span&gt;&lt;/div&gt;&lt;div&gt;&lt;span style=&quot;color: #abb2bf&quot;&gt;&amp;nbsp;&amp;nbsp;&amp;nbsp;&amp;nbsp;&amp;nbsp;&amp;nbsp;&lt;/span&gt;&lt;span style=&quot;color: #61afef&quot;&gt;isNativeTag&lt;/span&gt;&lt;span style=&quot;color: #56b6c2&quot;&gt;:&lt;/span&gt;&lt;span style=&quot;color: #abb2bf&quot;&gt;&amp;nbsp;()&amp;nbsp;&lt;/span&gt;&lt;span style=&quot;color: #c678dd&quot;&gt;=&amp;gt;&lt;/span&gt;&lt;span style=&quot;color: #abb2bf&quot;&gt;&amp;nbsp;&lt;/span&gt;&lt;span style=&quot;color: #d19a66&quot;&gt;true&lt;/span&gt;&lt;span style=&quot;color: #abb2bf&quot;&gt;,&lt;/span&gt;&lt;/div&gt;&lt;div&gt;&lt;span style=&quot;color: #abb2bf&quot;&gt;&amp;nbsp;&amp;nbsp;&amp;nbsp;&amp;nbsp;&amp;nbsp;&amp;nbsp;&lt;/span&gt;&lt;span style=&quot;color: #5c6370 ; font-style: italic&quot;&gt;//&amp;nbsp;preserve&amp;nbsp;all&amp;nbsp;whitespaces&lt;/span&gt;&lt;/div&gt;&lt;div&gt;&lt;span style=&quot;color: #abb2bf&quot;&gt;&amp;nbsp;&amp;nbsp;&amp;nbsp;&amp;nbsp;&amp;nbsp;&amp;nbsp;&lt;/span&gt;&lt;span style=&quot;color: #61afef&quot;&gt;isPreTag&lt;/span&gt;&lt;span style=&quot;color: #56b6c2&quot;&gt;:&lt;/span&gt;&lt;span style=&quot;color: #abb2bf&quot;&gt;&amp;nbsp;()&amp;nbsp;&lt;/span&gt;&lt;span style=&quot;color: #c678dd&quot;&gt;=&amp;gt;&lt;/span&gt;&lt;span style=&quot;color: #abb2bf&quot;&gt;&amp;nbsp;&lt;/span&gt;&lt;span style=&quot;color: #d19a66&quot;&gt;true&lt;/span&gt;&lt;span style=&quot;color: #abb2bf&quot;&gt;,&lt;/span&gt;&lt;/div&gt;&lt;div&gt;&lt;span style=&quot;color: #abb2bf&quot;&gt;&amp;nbsp;&amp;nbsp;&amp;nbsp;&amp;nbsp;&amp;nbsp;&amp;nbsp;&lt;/span&gt;&lt;span style=&quot;color: #61afef&quot;&gt;getTextMode&lt;/span&gt;&lt;span style=&quot;color: #56b6c2&quot;&gt;:&lt;/span&gt;&lt;span style=&quot;color: #abb2bf&quot;&gt;&amp;nbsp;({&amp;nbsp;tag,&amp;nbsp;props&amp;nbsp;},&amp;nbsp;parent)&amp;nbsp;&lt;/span&gt;&lt;span style=&quot;color: #c678dd&quot;&gt;=&amp;gt;&lt;/span&gt;&lt;span style=&quot;color: #abb2bf&quot;&gt;&amp;nbsp;{&lt;/span&gt;&lt;/div&gt;&lt;div&gt;&lt;span style=&quot;color: #abb2bf&quot;&gt;&amp;nbsp;&amp;nbsp;&amp;nbsp;&amp;nbsp;&amp;nbsp;&amp;nbsp;&amp;nbsp;&amp;nbsp;&amp;nbsp;&amp;nbsp;&lt;/span&gt;&lt;span style=&quot;color: #5c6370 ; font-style: italic&quot;&gt;//&amp;nbsp;all&amp;nbsp;top&amp;nbsp;level&amp;nbsp;elements&amp;nbsp;except&amp;nbsp;&amp;lt;template&amp;gt;&amp;nbsp;are&amp;nbsp;parsed&amp;nbsp;as&amp;nbsp;raw&amp;nbsp;text&lt;/span&gt;&lt;/div&gt;&lt;div&gt;&lt;span style=&quot;color: #abb2bf&quot;&gt;&amp;nbsp;&amp;nbsp;&amp;nbsp;&amp;nbsp;&amp;nbsp;&amp;nbsp;&amp;nbsp;&amp;nbsp;&amp;nbsp;&amp;nbsp;&lt;/span&gt;&lt;span style=&quot;color: #5c6370 ; font-style: italic&quot;&gt;//&amp;nbsp;containers&lt;/span&gt;&lt;/div&gt;&lt;div&gt;&lt;span style=&quot;color: #abb2bf&quot;&gt;&amp;nbsp;&amp;nbsp;&amp;nbsp;&amp;nbsp;&amp;nbsp;&amp;nbsp;&amp;nbsp;&amp;nbsp;&amp;nbsp;&amp;nbsp;&lt;/span&gt;&lt;span style=&quot;color: #c678dd&quot;&gt;if&lt;/span&gt;&lt;span style=&quot;color: #abb2bf&quot;&gt;&amp;nbsp;((&lt;/span&gt;&lt;span style=&quot;color: #56b6c2&quot;&gt;!&lt;/span&gt;&lt;span style=&quot;color: #abb2bf&quot;&gt;parent&amp;nbsp;&lt;/span&gt;&lt;span style=&quot;color: #56b6c2&quot;&gt;&amp;amp;&amp;amp;&lt;/span&gt;&lt;span style=&quot;color: #abb2bf&quot;&gt;&amp;nbsp;tag&amp;nbsp;&lt;/span&gt;&lt;span style=&quot;color: #56b6c2&quot;&gt;!==&lt;/span&gt;&lt;span style=&quot;color: #abb2bf&quot;&gt;&amp;nbsp;&lt;/span&gt;&lt;span style=&quot;color: #98c379&quot;&gt;'template'&lt;/span&gt;&lt;span style=&quot;color: #abb2bf&quot;&gt;)&amp;nbsp;&lt;/span&gt;&lt;span style=&quot;color: #56b6c2&quot;&gt;||&lt;/span&gt;&lt;/div&gt;&lt;div&gt;&lt;span style=&quot;color: #abb2bf&quot;&gt;&amp;nbsp;&amp;nbsp;&amp;nbsp;&amp;nbsp;&amp;nbsp;&amp;nbsp;&amp;nbsp;&amp;nbsp;&amp;nbsp;&amp;nbsp;&amp;nbsp;&amp;nbsp;&amp;nbsp;&amp;nbsp;&lt;/span&gt;&lt;span style=&quot;color: #5c6370 ; font-style: italic&quot;&gt;//&amp;nbsp;&amp;lt;template&amp;nbsp;lang=&quot;xxx&quot;&amp;gt;&amp;nbsp;should&amp;nbsp;also&amp;nbsp;be&amp;nbsp;treated&amp;nbsp;as&amp;nbsp;raw&amp;nbsp;text&lt;/span&gt;&lt;/div&gt;&lt;div&gt;&lt;span style=&quot;color: #abb2bf&quot;&gt;&amp;nbsp;&amp;nbsp;&amp;nbsp;&amp;nbsp;&amp;nbsp;&amp;nbsp;&amp;nbsp;&amp;nbsp;&amp;nbsp;&amp;nbsp;&amp;nbsp;&amp;nbsp;&amp;nbsp;&amp;nbsp;(tag&amp;nbsp;&lt;/span&gt;&lt;span style=&quot;color: #56b6c2&quot;&gt;===&lt;/span&gt;&lt;span style=&quot;color: #abb2bf&quot;&gt;&amp;nbsp;&lt;/span&gt;&lt;span style=&quot;color: #98c379&quot;&gt;'template'&lt;/span&gt;&lt;span style=&quot;color: #abb2bf&quot;&gt;&amp;nbsp;&lt;/span&gt;&lt;span style=&quot;color: #56b6c2&quot;&gt;&amp;amp;&amp;amp;&lt;/span&gt;&lt;/div&gt;&lt;div&gt;&lt;span style=&quot;color: #abb2bf&quot;&gt;&amp;nbsp;&amp;nbsp;&amp;nbsp;&amp;nbsp;&amp;nbsp;&amp;nbsp;&amp;nbsp;&amp;nbsp;&amp;nbsp;&amp;nbsp;&amp;nbsp;&amp;nbsp;&amp;nbsp;&amp;nbsp;&amp;nbsp;&amp;nbsp;&amp;nbsp;&amp;nbsp;props.&lt;/span&gt;&lt;span style=&quot;color: #61afef&quot;&gt;some&lt;/span&gt;&lt;span style=&quot;color: #abb2bf&quot;&gt;(p&amp;nbsp;&lt;/span&gt;&lt;span style=&quot;color: #c678dd&quot;&gt;=&amp;gt;&lt;/span&gt;&lt;span style=&quot;color: #abb2bf&quot;&gt;&amp;nbsp;p.&lt;/span&gt;&lt;span style=&quot;color: #e06c75&quot;&gt;type&lt;/span&gt;&lt;span style=&quot;color: #abb2bf&quot;&gt;&amp;nbsp;&lt;/span&gt;&lt;span style=&quot;color: #56b6c2&quot;&gt;===&lt;/span&gt;&lt;span style=&quot;color: #abb2bf&quot;&gt;&amp;nbsp;&lt;/span&gt;&lt;span style=&quot;color: #d19a66&quot;&gt;6&lt;/span&gt;&lt;span style=&quot;color: #abb2bf&quot;&gt;&amp;nbsp;&lt;/span&gt;&lt;span style=&quot;color: #5c6370 ; font-style: italic&quot;&gt;/*&amp;nbsp;ATTRIBUTE&amp;nbsp;*/&lt;/span&gt;&lt;span style=&quot;color: #abb2bf&quot;&gt;&amp;nbsp;&lt;/span&gt;&lt;span style=&quot;color: #56b6c2&quot;&gt;&amp;amp;&amp;amp;&lt;/span&gt;&lt;/div&gt;&lt;div&gt;&lt;span style=&quot;color: #abb2bf&quot;&gt;&amp;nbsp;&amp;nbsp;&amp;nbsp;&amp;nbsp;&amp;nbsp;&amp;nbsp;&amp;nbsp;&amp;nbsp;&amp;nbsp;&amp;nbsp;&amp;nbsp;&amp;nbsp;&amp;nbsp;&amp;nbsp;&amp;nbsp;&amp;nbsp;&amp;nbsp;&amp;nbsp;&amp;nbsp;&amp;nbsp;&amp;nbsp;&amp;nbsp;p.&lt;/span&gt;&lt;span style=&quot;color: #e06c75&quot;&gt;name&lt;/span&gt;&lt;span style=&quot;color: #abb2bf&quot;&gt;&amp;nbsp;&lt;/span&gt;&lt;span style=&quot;color: #56b6c2&quot;&gt;===&lt;/span&gt;&lt;span style=&quot;color: #abb2bf&quot;&gt;&amp;nbsp;&lt;/span&gt;&lt;span style=&quot;color: #98c379&quot;&gt;'lang'&lt;/span&gt;&lt;span style=&quot;color: #abb2bf&quot;&gt;&amp;nbsp;&lt;/span&gt;&lt;span style=&quot;color: #56b6c2&quot;&gt;&amp;amp;&amp;amp;&lt;/span&gt;&lt;/div&gt;&lt;div&gt;&lt;span style=&quot;color: #abb2bf&quot;&gt;&amp;nbsp;&amp;nbsp;&amp;nbsp;&amp;nbsp;&amp;nbsp;&amp;nbsp;&amp;nbsp;&amp;nbsp;&amp;nbsp;&amp;nbsp;&amp;nbsp;&amp;nbsp;&amp;nbsp;&amp;nbsp;&amp;nbsp;&amp;nbsp;&amp;nbsp;&amp;nbsp;&amp;nbsp;&amp;nbsp;&amp;nbsp;&amp;nbsp;p.&lt;/span&gt;&lt;span style=&quot;color: #e06c75&quot;&gt;value&lt;/span&gt;&lt;span style=&quot;color: #abb2bf&quot;&gt;&amp;nbsp;&lt;/span&gt;&lt;span style=&quot;color: #56b6c2&quot;&gt;&amp;amp;&amp;amp;&lt;/span&gt;&lt;/div&gt;&lt;div&gt;&lt;span style=&quot;color: #abb2bf&quot;&gt;&amp;nbsp;&amp;nbsp;&amp;nbsp;&amp;nbsp;&amp;nbsp;&amp;nbsp;&amp;nbsp;&amp;nbsp;&amp;nbsp;&amp;nbsp;&amp;nbsp;&amp;nbsp;&amp;nbsp;&amp;nbsp;&amp;nbsp;&amp;nbsp;&amp;nbsp;&amp;nbsp;&amp;nbsp;&amp;nbsp;&amp;nbsp;&amp;nbsp;p.&lt;/span&gt;&lt;span style=&quot;color: #e06c75&quot;&gt;value&lt;/span&gt;&lt;span style=&quot;color: #abb2bf&quot;&gt;.&lt;/span&gt;&lt;span style=&quot;color: #e06c75&quot;&gt;content&lt;/span&gt;&lt;span style=&quot;color: #abb2bf&quot;&gt;&amp;nbsp;&lt;/span&gt;&lt;span style=&quot;color: #56b6c2&quot;&gt;!==&lt;/span&gt;&lt;span style=&quot;color: #abb2bf&quot;&gt;&amp;nbsp;&lt;/span&gt;&lt;span style=&quot;color: #98c379&quot;&gt;'html'&lt;/span&gt;&lt;span style=&quot;color: #abb2bf&quot;&gt;)))&amp;nbsp;{&lt;/span&gt;&lt;/div&gt;&lt;div&gt;&lt;span style=&quot;color: #abb2bf&quot;&gt;&amp;nbsp;&amp;nbsp;&amp;nbsp;&amp;nbsp;&amp;nbsp;&amp;nbsp;&amp;nbsp;&amp;nbsp;&amp;nbsp;&amp;nbsp;&amp;nbsp;&amp;nbsp;&amp;nbsp;&amp;nbsp;&lt;/span&gt;&lt;span style=&quot;color: #c678dd&quot;&gt;return&lt;/span&gt;&lt;span style=&quot;color: #abb2bf&quot;&gt;&amp;nbsp;&lt;/span&gt;&lt;span style=&quot;color: #d19a66&quot;&gt;2&lt;/span&gt;&lt;span style=&quot;color: #abb2bf&quot;&gt;&amp;nbsp;&lt;/span&gt;&lt;span style=&quot;color: #5c6370 ; font-style: italic&quot;&gt;/*&amp;nbsp;RAWTEXT&amp;nbsp;*/&lt;/span&gt;&lt;span style=&quot;color: #abb2bf&quot;&gt;;&lt;/span&gt;&lt;/div&gt;&lt;div&gt;&lt;span style=&quot;color: #abb2bf&quot;&gt;&amp;nbsp;&amp;nbsp;&amp;nbsp;&amp;nbsp;&amp;nbsp;&amp;nbsp;&amp;nbsp;&amp;nbsp;&amp;nbsp;&amp;nbsp;}&lt;/span&gt;&lt;/div&gt;&lt;div&gt;&lt;span style=&quot;color: #abb2bf&quot;&gt;&amp;nbsp;&amp;nbsp;&amp;nbsp;&amp;nbsp;&amp;nbsp;&amp;nbsp;&amp;nbsp;&amp;nbsp;&amp;nbsp;&amp;nbsp;&lt;/span&gt;&lt;span style=&quot;color: #c678dd&quot;&gt;else&lt;/span&gt;&lt;span style=&quot;color: #abb2bf&quot;&gt;&amp;nbsp;{&lt;/span&gt;&lt;/div&gt;&lt;div&gt;&lt;span style=&quot;color: #abb2bf&quot;&gt;&amp;nbsp;&amp;nbsp;&amp;nbsp;&amp;nbsp;&amp;nbsp;&amp;nbsp;&amp;nbsp;&amp;nbsp;&amp;nbsp;&amp;nbsp;&amp;nbsp;&amp;nbsp;&amp;nbsp;&amp;nbsp;&lt;/span&gt;&lt;span style=&quot;color: #c678dd&quot;&gt;return&lt;/span&gt;&lt;span style=&quot;color: #abb2bf&quot;&gt;&amp;nbsp;&lt;/span&gt;&lt;span style=&quot;color: #d19a66&quot;&gt;0&lt;/span&gt;&lt;span style=&quot;color: #abb2bf&quot;&gt;&amp;nbsp;&lt;/span&gt;&lt;span style=&quot;color: #5c6370 ; font-style: italic&quot;&gt;/*&amp;nbsp;DATA&amp;nbsp;*/&lt;/span&gt;&lt;span style=&quot;color: #abb2bf&quot;&gt;;&lt;/span&gt;&lt;/div&gt;&lt;div&gt;&lt;span style=&quot;color: #abb2bf&quot;&gt;&amp;nbsp;&amp;nbsp;&amp;nbsp;&amp;nbsp;&amp;nbsp;&amp;nbsp;&amp;nbsp;&amp;nbsp;&amp;nbsp;&amp;nbsp;}&lt;/span&gt;&lt;/div&gt;&lt;div&gt;&lt;span style=&quot;color: #abb2bf&quot;&gt;&amp;nbsp;&amp;nbsp;&amp;nbsp;&amp;nbsp;&amp;nbsp;&amp;nbsp;},&lt;/span&gt;&lt;/div&gt;&lt;div&gt;&lt;span style=&quot;color: #abb2bf&quot;&gt;&amp;nbsp;&amp;nbsp;&amp;nbsp;&amp;nbsp;&amp;nbsp;&amp;nbsp;&lt;/span&gt;&lt;span style=&quot;color: #61afef&quot;&gt;onError&lt;/span&gt;&lt;span style=&quot;color: #56b6c2&quot;&gt;:&lt;/span&gt;&lt;span style=&quot;color: #abb2bf&quot;&gt;&amp;nbsp;e&amp;nbsp;&lt;/span&gt;&lt;span style=&quot;color: #c678dd&quot;&gt;=&amp;gt;&lt;/span&gt;&lt;span style=&quot;color: #abb2bf&quot;&gt;&amp;nbsp;{&lt;/span&gt;&lt;/div&gt;&lt;div&gt;&lt;span style=&quot;color: #abb2bf&quot;&gt;&amp;nbsp;&amp;nbsp;&amp;nbsp;&amp;nbsp;&amp;nbsp;&amp;nbsp;&amp;nbsp;&amp;nbsp;&amp;nbsp;&amp;nbsp;errors.&lt;/span&gt;&lt;span style=&quot;color: #61afef&quot;&gt;push&lt;/span&gt;&lt;span style=&quot;color: #abb2bf&quot;&gt;(e);&lt;/span&gt;&lt;/div&gt;&lt;div&gt;&lt;span style=&quot;color: #abb2bf&quot;&gt;&amp;nbsp;&amp;nbsp;&amp;nbsp;&amp;nbsp;&amp;nbsp;&amp;nbsp;}&lt;/span&gt;&lt;/div&gt;&lt;div&gt;&lt;span style=&quot;color: #abb2bf&quot;&gt;&amp;nbsp;&amp;nbsp;});&lt;/span&gt;&lt;/div&gt;&lt;div&gt;&lt;span style=&quot;color: #abb2bf&quot;&gt;&amp;nbsp;&amp;nbsp;ast.&lt;/span&gt;&lt;span style=&quot;color: #e06c75&quot;&gt;children&lt;/span&gt;&lt;span style=&quot;color: #abb2bf&quot;&gt;.&lt;/span&gt;&lt;span style=&quot;color: #61afef&quot;&gt;forEach&lt;/span&gt;&lt;span style=&quot;color: #abb2bf&quot;&gt;(node&amp;nbsp;&lt;/span&gt;&lt;span style=&quot;color: #c678dd&quot;&gt;=&amp;gt;&lt;/span&gt;&lt;span style=&quot;color: #abb2bf&quot;&gt;&amp;nbsp;{&lt;/span&gt;&lt;/div&gt;&lt;div&gt;&lt;span style=&quot;color: #abb2bf&quot;&gt;&amp;nbsp;&amp;nbsp;&amp;nbsp;&amp;nbsp;&amp;nbsp;&amp;nbsp;&lt;/span&gt;&lt;span style=&quot;color: #c678dd&quot;&gt;if&lt;/span&gt;&lt;span style=&quot;color: #abb2bf&quot;&gt;&amp;nbsp;(node.&lt;/span&gt;&lt;span style=&quot;color: #e06c75&quot;&gt;type&lt;/span&gt;&lt;span style=&quot;color: #abb2bf&quot;&gt;&amp;nbsp;&lt;/span&gt;&lt;span style=&quot;color: #56b6c2&quot;&gt;!==&lt;/span&gt;&lt;span style=&quot;color: #abb2bf&quot;&gt;&amp;nbsp;&lt;/span&gt;&lt;span style=&quot;color: #d19a66&quot;&gt;1&lt;/span&gt;&lt;span style=&quot;color: #abb2bf&quot;&gt;&amp;nbsp;&lt;/span&gt;&lt;span style=&quot;color: #5c6370 ; font-style: italic&quot;&gt;/*&amp;nbsp;ELEMENT&amp;nbsp;*/&lt;/span&gt;&lt;span style=&quot;color: #abb2bf&quot;&gt;)&amp;nbsp;{&lt;/span&gt;&lt;/div&gt;&lt;div&gt;&lt;span style=&quot;color: #abb2bf&quot;&gt;&amp;nbsp;&amp;nbsp;&amp;nbsp;&amp;nbsp;&amp;nbsp;&amp;nbsp;&amp;nbsp;&amp;nbsp;&amp;nbsp;&amp;nbsp;&lt;/span&gt;&lt;span style=&quot;color: #c678dd&quot;&gt;return&lt;/span&gt;&lt;span style=&quot;color: #abb2bf&quot;&gt;;&lt;/span&gt;&lt;/div&gt;&lt;div&gt;&lt;span style=&quot;color: #abb2bf&quot;&gt;&amp;nbsp;&amp;nbsp;&amp;nbsp;&amp;nbsp;&amp;nbsp;&amp;nbsp;}&lt;/span&gt;&lt;/div&gt;&lt;div&gt;&lt;span style=&quot;color: #abb2bf&quot;&gt;&amp;nbsp;&amp;nbsp;&amp;nbsp;&amp;nbsp;&amp;nbsp;&amp;nbsp;&lt;/span&gt;&lt;span style=&quot;color: #c678dd&quot;&gt;if&lt;/span&gt;&lt;span style=&quot;color: #abb2bf&quot;&gt;&amp;nbsp;(&lt;/span&gt;&lt;span style=&quot;color: #56b6c2&quot;&gt;!&lt;/span&gt;&lt;span style=&quot;color: #abb2bf&quot;&gt;node.&lt;/span&gt;&lt;span style=&quot;color: #e06c75&quot;&gt;children&lt;/span&gt;&lt;span style=&quot;color: #abb2bf&quot;&gt;.&lt;/span&gt;&lt;span style=&quot;color: #e06c75&quot;&gt;length&lt;/span&gt;&lt;span style=&quot;color: #abb2bf&quot;&gt;&amp;nbsp;&lt;/span&gt;&lt;span style=&quot;color: #56b6c2&quot;&gt;&amp;amp;&amp;amp;&lt;/span&gt;&lt;span style=&quot;color: #abb2bf&quot;&gt;&amp;nbsp;&lt;/span&gt;&lt;span style=&quot;color: #56b6c2&quot;&gt;!&lt;/span&gt;&lt;span style=&quot;color: #61afef&quot;&gt;hasSrc&lt;/span&gt;&lt;span style=&quot;color: #abb2bf&quot;&gt;(node))&amp;nbsp;{&lt;/span&gt;&lt;/div&gt;&lt;div&gt;&lt;span style=&quot;color: #abb2bf&quot;&gt;&amp;nbsp;&amp;nbsp;&amp;nbsp;&amp;nbsp;&amp;nbsp;&amp;nbsp;&amp;nbsp;&amp;nbsp;&amp;nbsp;&amp;nbsp;&lt;/span&gt;&lt;span style=&quot;color: #c678dd&quot;&gt;return&lt;/span&gt;&lt;span style=&quot;color: #abb2bf&quot;&gt;;&lt;/span&gt;&lt;/div&gt;&lt;div&gt;&lt;span style=&quot;color: #abb2bf&quot;&gt;&amp;nbsp;&amp;nbsp;&amp;nbsp;&amp;nbsp;&amp;nbsp;&amp;nbsp;}&lt;/span&gt;&lt;/div&gt;&lt;div&gt;&lt;span style=&quot;color: #abb2bf&quot;&gt;&amp;nbsp;&amp;nbsp;&amp;nbsp;&amp;nbsp;&amp;nbsp;&amp;nbsp;&lt;/span&gt;&lt;span style=&quot;color: #c678dd&quot;&gt;switch&lt;/span&gt;&lt;span style=&quot;color: #abb2bf&quot;&gt;&amp;nbsp;(node.&lt;/span&gt;&lt;span style=&quot;color: #e06c75&quot;&gt;tag&lt;/span&gt;&lt;span style=&quot;color: #abb2bf&quot;&gt;)&amp;nbsp;{&lt;/span&gt;&lt;/div&gt;&lt;div&gt;&lt;span style=&quot;color: #abb2bf&quot;&gt;&amp;nbsp;&amp;nbsp;&amp;nbsp;&amp;nbsp;&amp;nbsp;&amp;nbsp;&amp;nbsp;&amp;nbsp;&amp;nbsp;&amp;nbsp;&lt;/span&gt;&lt;span style=&quot;color: #c678dd&quot;&gt;case&lt;/span&gt;&lt;span style=&quot;color: #abb2bf&quot;&gt;&amp;nbsp;&lt;/span&gt;&lt;span style=&quot;color: #98c379&quot;&gt;'template'&lt;/span&gt;&lt;span style=&quot;color: #abb2bf&quot;&gt;:&lt;/span&gt;&lt;/div&gt;&lt;div&gt;&lt;span style=&quot;color: #abb2bf&quot;&gt;&amp;nbsp;&amp;nbsp;&amp;nbsp;&amp;nbsp;&amp;nbsp;&amp;nbsp;&amp;nbsp;&amp;nbsp;&amp;nbsp;&amp;nbsp;&amp;nbsp;&amp;nbsp;&amp;nbsp;&amp;nbsp;&lt;/span&gt;&lt;span style=&quot;color: #c678dd&quot;&gt;if&lt;/span&gt;&lt;span style=&quot;color: #abb2bf&quot;&gt;&amp;nbsp;(&lt;/span&gt;&lt;span style=&quot;color: #56b6c2&quot;&gt;!&lt;/span&gt;&lt;span style=&quot;color: #abb2bf&quot;&gt;descriptor.&lt;/span&gt;&lt;span style=&quot;color: #e06c75&quot;&gt;template&lt;/span&gt;&lt;span style=&quot;color: #abb2bf&quot;&gt;)&amp;nbsp;{&lt;/span&gt;&lt;/div&gt;&lt;div&gt;&lt;span style=&quot;color: #abb2bf&quot;&gt;&amp;nbsp;&amp;nbsp;&amp;nbsp;&amp;nbsp;&amp;nbsp;&amp;nbsp;&amp;nbsp;&amp;nbsp;&amp;nbsp;&amp;nbsp;&amp;nbsp;&amp;nbsp;&amp;nbsp;&amp;nbsp;&amp;nbsp;&amp;nbsp;&amp;nbsp;&amp;nbsp;&lt;/span&gt;&lt;span style=&quot;color: #c678dd&quot;&gt;const&lt;/span&gt;&lt;span style=&quot;color: #abb2bf&quot;&gt;&amp;nbsp;&lt;/span&gt;&lt;span style=&quot;color: #d19a66&quot;&gt;templateBlock&lt;/span&gt;&lt;span style=&quot;color: #abb2bf&quot;&gt;&amp;nbsp;&lt;/span&gt;&lt;span style=&quot;color: #56b6c2&quot;&gt;=&lt;/span&gt;&lt;span style=&quot;color: #abb2bf&quot;&gt;&amp;nbsp;(descriptor.&lt;/span&gt;&lt;span style=&quot;color: #e06c75&quot;&gt;template&lt;/span&gt;&lt;span style=&quot;color: #abb2bf&quot;&gt;&amp;nbsp;&lt;/span&gt;&lt;span style=&quot;color: #56b6c2&quot;&gt;=&lt;/span&gt;&lt;span style=&quot;color: #abb2bf&quot;&gt;&amp;nbsp;&lt;/span&gt;&lt;span style=&quot;color: #61afef&quot;&gt;createBlock&lt;/span&gt;&lt;span style=&quot;color: #abb2bf&quot;&gt;(node,&amp;nbsp;source,&amp;nbsp;&lt;/span&gt;&lt;span style=&quot;color: #d19a66&quot;&gt;false&lt;/span&gt;&lt;span style=&quot;color: #abb2bf&quot;&gt;));&lt;/span&gt;&lt;/div&gt;&lt;div&gt;&lt;span style=&quot;color: #abb2bf&quot;&gt;&amp;nbsp;&amp;nbsp;&amp;nbsp;&amp;nbsp;&amp;nbsp;&amp;nbsp;&amp;nbsp;&amp;nbsp;&amp;nbsp;&amp;nbsp;&amp;nbsp;&amp;nbsp;&amp;nbsp;&amp;nbsp;&amp;nbsp;&amp;nbsp;&amp;nbsp;&amp;nbsp;templateBlock.&lt;/span&gt;&lt;span style=&quot;color: #e06c75&quot;&gt;ast&lt;/span&gt;&lt;span style=&quot;color: #abb2bf&quot;&gt;&amp;nbsp;&lt;/span&gt;&lt;span style=&quot;color: #56b6c2&quot;&gt;=&lt;/span&gt;&lt;span style=&quot;color: #abb2bf&quot;&gt;&amp;nbsp;node;&lt;/span&gt;&lt;/div&gt;&lt;div&gt;&lt;span style=&quot;color: #abb2bf&quot;&gt;&amp;nbsp;&amp;nbsp;&amp;nbsp;&amp;nbsp;&amp;nbsp;&amp;nbsp;&amp;nbsp;&amp;nbsp;&amp;nbsp;&amp;nbsp;&amp;nbsp;&amp;nbsp;&amp;nbsp;&amp;nbsp;}&lt;/span&gt;&lt;/div&gt;&lt;div&gt;&lt;span style=&quot;color: #abb2bf&quot;&gt;&amp;nbsp;&amp;nbsp;&amp;nbsp;&amp;nbsp;&amp;nbsp;&amp;nbsp;&amp;nbsp;&amp;nbsp;&amp;nbsp;&amp;nbsp;&amp;nbsp;&amp;nbsp;&amp;nbsp;&amp;nbsp;&lt;/span&gt;&lt;span style=&quot;color: #c678dd&quot;&gt;else&lt;/span&gt;&lt;span style=&quot;color: #abb2bf&quot;&gt;&amp;nbsp;{&lt;/span&gt;&lt;/div&gt;&lt;div&gt;&lt;span style=&quot;color: #abb2bf&quot;&gt;&amp;nbsp;&amp;nbsp;&amp;nbsp;&amp;nbsp;&amp;nbsp;&amp;nbsp;&amp;nbsp;&amp;nbsp;&amp;nbsp;&amp;nbsp;&amp;nbsp;&amp;nbsp;&amp;nbsp;&amp;nbsp;&amp;nbsp;&amp;nbsp;&amp;nbsp;&amp;nbsp;errors.&lt;/span&gt;&lt;span style=&quot;color: #61afef&quot;&gt;push&lt;/span&gt;&lt;span style=&quot;color: #abb2bf&quot;&gt;(&lt;/span&gt;&lt;span style=&quot;color: #61afef&quot;&gt;createDuplicateBlockError&lt;/span&gt;&lt;span style=&quot;color: #abb2bf&quot;&gt;(node));&lt;/span&gt;&lt;/div&gt;&lt;div&gt;&lt;span style=&quot;color: #abb2bf&quot;&gt;&amp;nbsp;&amp;nbsp;&amp;nbsp;&amp;nbsp;&amp;nbsp;&amp;nbsp;&amp;nbsp;&amp;nbsp;&amp;nbsp;&amp;nbsp;&amp;nbsp;&amp;nbsp;&amp;nbsp;&amp;nbsp;}&lt;/span&gt;&lt;/div&gt;&lt;div&gt;&lt;span style=&quot;color: #abb2bf&quot;&gt;&amp;nbsp;&amp;nbsp;&amp;nbsp;&amp;nbsp;&amp;nbsp;&amp;nbsp;&amp;nbsp;&amp;nbsp;&amp;nbsp;&amp;nbsp;&amp;nbsp;&amp;nbsp;&amp;nbsp;&amp;nbsp;&lt;/span&gt;&lt;span style=&quot;color: #c678dd&quot;&gt;break&lt;/span&gt;&lt;span style=&quot;color: #abb2bf&quot;&gt;;&lt;/span&gt;&lt;/div&gt;&lt;div&gt;&lt;span style=&quot;color: #abb2bf&quot;&gt;&amp;nbsp;&amp;nbsp;&amp;nbsp;&amp;nbsp;&amp;nbsp;&amp;nbsp;&amp;nbsp;&amp;nbsp;&amp;nbsp;&amp;nbsp;&lt;/span&gt;&lt;span style=&quot;color: #c678dd&quot;&gt;case&lt;/span&gt;&lt;span style=&quot;color: #abb2bf&quot;&gt;&amp;nbsp;&lt;/span&gt;&lt;span style=&quot;color: #98c379&quot;&gt;'script'&lt;/span&gt;&lt;span style=&quot;color: #abb2bf&quot;&gt;:&lt;/span&gt;&lt;/div&gt;&lt;div&gt;&lt;span style=&quot;color: #abb2bf&quot;&gt;&amp;nbsp;&amp;nbsp;&amp;nbsp;&amp;nbsp;&amp;nbsp;&amp;nbsp;&amp;nbsp;&amp;nbsp;&amp;nbsp;&amp;nbsp;&amp;nbsp;&amp;nbsp;&amp;nbsp;&amp;nbsp;&lt;/span&gt;&lt;span style=&quot;color: #c678dd&quot;&gt;const&lt;/span&gt;&lt;span style=&quot;color: #abb2bf&quot;&gt;&amp;nbsp;&lt;/span&gt;&lt;span style=&quot;color: #d19a66&quot;&gt;scriptBlock&lt;/span&gt;&lt;span style=&quot;color: #abb2bf&quot;&gt;&amp;nbsp;&lt;/span&gt;&lt;span style=&quot;color: #56b6c2&quot;&gt;=&lt;/span&gt;&lt;span style=&quot;color: #abb2bf&quot;&gt;&amp;nbsp;&lt;/span&gt;&lt;span style=&quot;color: #61afef&quot;&gt;createBlock&lt;/span&gt;&lt;span style=&quot;color: #abb2bf&quot;&gt;(node,&amp;nbsp;source,&amp;nbsp;pad);&lt;/span&gt;&lt;/div&gt;&lt;div&gt;&lt;span style=&quot;color: #abb2bf&quot;&gt;&amp;nbsp;&amp;nbsp;&amp;nbsp;&amp;nbsp;&amp;nbsp;&amp;nbsp;&amp;nbsp;&amp;nbsp;&amp;nbsp;&amp;nbsp;&amp;nbsp;&amp;nbsp;&amp;nbsp;&amp;nbsp;&lt;/span&gt;&lt;span style=&quot;color: #c678dd&quot;&gt;const&lt;/span&gt;&lt;span style=&quot;color: #abb2bf&quot;&gt;&amp;nbsp;&lt;/span&gt;&lt;span style=&quot;color: #d19a66&quot;&gt;isSetup&lt;/span&gt;&lt;span style=&quot;color: #abb2bf&quot;&gt;&amp;nbsp;&lt;/span&gt;&lt;span style=&quot;color: #56b6c2&quot;&gt;=&lt;/span&gt;&lt;span style=&quot;color: #abb2bf&quot;&gt;&amp;nbsp;&lt;/span&gt;&lt;span style=&quot;color: #56b6c2&quot;&gt;!!&lt;/span&gt;&lt;span style=&quot;color: #abb2bf&quot;&gt;scriptBlock.&lt;/span&gt;&lt;span style=&quot;color: #e06c75&quot;&gt;attrs&lt;/span&gt;&lt;span style=&quot;color: #abb2bf&quot;&gt;.&lt;/span&gt;&lt;span style=&quot;color: #e06c75&quot;&gt;setup&lt;/span&gt;&lt;span style=&quot;color: #abb2bf&quot;&gt;;&lt;/span&gt;&lt;/div&gt;&lt;div&gt;&lt;span style=&quot;color: #abb2bf&quot;&gt;&amp;nbsp;&amp;nbsp;&amp;nbsp;&amp;nbsp;&amp;nbsp;&amp;nbsp;&amp;nbsp;&amp;nbsp;&amp;nbsp;&amp;nbsp;&amp;nbsp;&amp;nbsp;&amp;nbsp;&amp;nbsp;&lt;/span&gt;&lt;span style=&quot;color: #c678dd&quot;&gt;if&lt;/span&gt;&lt;span style=&quot;color: #abb2bf&quot;&gt;&amp;nbsp;(isSetup&amp;nbsp;&lt;/span&gt;&lt;span style=&quot;color: #56b6c2&quot;&gt;&amp;amp;&amp;amp;&lt;/span&gt;&lt;span style=&quot;color: #abb2bf&quot;&gt;&amp;nbsp;&lt;/span&gt;&lt;span style=&quot;color: #56b6c2&quot;&gt;!&lt;/span&gt;&lt;span style=&quot;color: #abb2bf&quot;&gt;descriptor.&lt;/span&gt;&lt;span style=&quot;color: #e06c75&quot;&gt;scriptSetup&lt;/span&gt;&lt;span style=&quot;color: #abb2bf&quot;&gt;)&amp;nbsp;{&lt;/span&gt;&lt;/div&gt;&lt;div&gt;&lt;span style=&quot;color: #abb2bf&quot;&gt;&amp;nbsp;&amp;nbsp;&amp;nbsp;&amp;nbsp;&amp;nbsp;&amp;nbsp;&amp;nbsp;&amp;nbsp;&amp;nbsp;&amp;nbsp;&amp;nbsp;&amp;nbsp;&amp;nbsp;&amp;nbsp;&amp;nbsp;&amp;nbsp;&amp;nbsp;&amp;nbsp;descriptor.&lt;/span&gt;&lt;span style=&quot;color: #e06c75&quot;&gt;scriptSetup&lt;/span&gt;&lt;span style=&quot;color: #abb2bf&quot;&gt;&amp;nbsp;&lt;/span&gt;&lt;span style=&quot;color: #56b6c2&quot;&gt;=&lt;/span&gt;&lt;span style=&quot;color: #abb2bf&quot;&gt;&amp;nbsp;scriptBlock;&lt;/span&gt;&lt;/div&gt;&lt;div&gt;&lt;span style=&quot;color: #abb2bf&quot;&gt;&amp;nbsp;&amp;nbsp;&amp;nbsp;&amp;nbsp;&amp;nbsp;&amp;nbsp;&amp;nbsp;&amp;nbsp;&amp;nbsp;&amp;nbsp;&amp;nbsp;&amp;nbsp;&amp;nbsp;&amp;nbsp;&amp;nbsp;&amp;nbsp;&amp;nbsp;&amp;nbsp;&lt;/span&gt;&lt;span style=&quot;color: #c678dd&quot;&gt;break&lt;/span&gt;&lt;span style=&quot;color: #abb2bf&quot;&gt;;&lt;/span&gt;&lt;/div&gt;&lt;div&gt;&lt;span style=&quot;color: #abb2bf&quot;&gt;&amp;nbsp;&amp;nbsp;&amp;nbsp;&amp;nbsp;&amp;nbsp;&amp;nbsp;&amp;nbsp;&amp;nbsp;&amp;nbsp;&amp;nbsp;&amp;nbsp;&amp;nbsp;&amp;nbsp;&amp;nbsp;}&lt;/span&gt;&lt;/div&gt;&lt;div&gt;&lt;span style=&quot;color: #abb2bf&quot;&gt;&amp;nbsp;&amp;nbsp;&amp;nbsp;&amp;nbsp;&amp;nbsp;&amp;nbsp;&amp;nbsp;&amp;nbsp;&amp;nbsp;&amp;nbsp;&amp;nbsp;&amp;nbsp;&amp;nbsp;&amp;nbsp;&lt;/span&gt;&lt;span style=&quot;color: #c678dd&quot;&gt;if&lt;/span&gt;&lt;span style=&quot;color: #abb2bf&quot;&gt;&amp;nbsp;(&lt;/span&gt;&lt;span style=&quot;color: #56b6c2&quot;&gt;!&lt;/span&gt;&lt;span style=&quot;color: #abb2bf&quot;&gt;isSetup&amp;nbsp;&lt;/span&gt;&lt;span style=&quot;color: #56b6c2&quot;&gt;&amp;amp;&amp;amp;&lt;/span&gt;&lt;span style=&quot;color: #abb2bf&quot;&gt;&amp;nbsp;&lt;/span&gt;&lt;span style=&quot;color: #56b6c2&quot;&gt;!&lt;/span&gt;&lt;span style=&quot;color: #abb2bf&quot;&gt;descriptor.&lt;/span&gt;&lt;span style=&quot;color: #e06c75&quot;&gt;script&lt;/span&gt;&lt;span style=&quot;color: #abb2bf&quot;&gt;)&amp;nbsp;{&lt;/span&gt;&lt;/div&gt;&lt;div&gt;&lt;span style=&quot;color: #abb2bf&quot;&gt;&amp;nbsp;&amp;nbsp;&amp;nbsp;&amp;nbsp;&amp;nbsp;&amp;nbsp;&amp;nbsp;&amp;nbsp;&amp;nbsp;&amp;nbsp;&amp;nbsp;&amp;nbsp;&amp;nbsp;&amp;nbsp;&amp;nbsp;&amp;nbsp;&amp;nbsp;&amp;nbsp;descriptor.&lt;/span&gt;&lt;span style=&quot;color: #e06c75&quot;&gt;script&lt;/span&gt;&lt;span style=&quot;color: #abb2bf&quot;&gt;&amp;nbsp;&lt;/span&gt;&lt;span style=&quot;color: #56b6c2&quot;&gt;=&lt;/span&gt;&lt;span style=&quot;color: #abb2bf&quot;&gt;&amp;nbsp;scriptBlock;&lt;/span&gt;&lt;/div&gt;&lt;div&gt;&lt;span style=&quot;color: #abb2bf&quot;&gt;&amp;nbsp;&amp;nbsp;&amp;nbsp;&amp;nbsp;&amp;nbsp;&amp;nbsp;&amp;nbsp;&amp;nbsp;&amp;nbsp;&amp;nbsp;&amp;nbsp;&amp;nbsp;&amp;nbsp;&amp;nbsp;&amp;nbsp;&amp;nbsp;&amp;nbsp;&amp;nbsp;&lt;/span&gt;&lt;span style=&quot;color: #c678dd&quot;&gt;break&lt;/span&gt;&lt;span style=&quot;color: #abb2bf&quot;&gt;;&lt;/span&gt;&lt;/div&gt;&lt;div&gt;&lt;span style=&quot;color: #abb2bf&quot;&gt;&amp;nbsp;&amp;nbsp;&amp;nbsp;&amp;nbsp;&amp;nbsp;&amp;nbsp;&amp;nbsp;&amp;nbsp;&amp;nbsp;&amp;nbsp;&amp;nbsp;&amp;nbsp;&amp;nbsp;&amp;nbsp;}&lt;/span&gt;&lt;/div&gt;&lt;div&gt;&lt;span style=&quot;color: #abb2bf&quot;&gt;&amp;nbsp;&amp;nbsp;&amp;nbsp;&amp;nbsp;&amp;nbsp;&amp;nbsp;&amp;nbsp;&amp;nbsp;&amp;nbsp;&amp;nbsp;&amp;nbsp;&amp;nbsp;&amp;nbsp;&amp;nbsp;errors.&lt;/span&gt;&lt;span style=&quot;color: #61afef&quot;&gt;push&lt;/span&gt;&lt;span style=&quot;color: #abb2bf&quot;&gt;(&lt;/span&gt;&lt;span style=&quot;color: #61afef&quot;&gt;createDuplicateBlockError&lt;/span&gt;&lt;span style=&quot;color: #abb2bf&quot;&gt;(node,&amp;nbsp;isSetup));&lt;/span&gt;&lt;/div&gt;&lt;div&gt;&lt;span style=&quot;color: #abb2bf&quot;&gt;&amp;nbsp;&amp;nbsp;&amp;nbsp;&amp;nbsp;&amp;nbsp;&amp;nbsp;&amp;nbsp;&amp;nbsp;&amp;nbsp;&amp;nbsp;&amp;nbsp;&amp;nbsp;&amp;nbsp;&amp;nbsp;&lt;/span&gt;&lt;span style=&quot;color: #c678dd&quot;&gt;break&lt;/span&gt;&lt;span style=&quot;color: #abb2bf&quot;&gt;;&lt;/span&gt;&lt;/div&gt;&lt;div&gt;&lt;span style=&quot;color: #abb2bf&quot;&gt;&amp;nbsp;&amp;nbsp;&amp;nbsp;&amp;nbsp;&amp;nbsp;&amp;nbsp;&amp;nbsp;&amp;nbsp;&amp;nbsp;&amp;nbsp;&lt;/span&gt;&lt;span style=&quot;color: #c678dd&quot;&gt;case&lt;/span&gt;&lt;span style=&quot;color: #abb2bf&quot;&gt;&amp;nbsp;&lt;/span&gt;&lt;span style=&quot;color: #98c379&quot;&gt;'style'&lt;/span&gt;&lt;span style=&quot;color: #abb2bf&quot;&gt;:&lt;/span&gt;&lt;/div&gt;&lt;div&gt;&lt;span style=&quot;color: #abb2bf&quot;&gt;&amp;nbsp;&amp;nbsp;&amp;nbsp;&amp;nbsp;&amp;nbsp;&amp;nbsp;&amp;nbsp;&amp;nbsp;&amp;nbsp;&amp;nbsp;&amp;nbsp;&amp;nbsp;&amp;nbsp;&amp;nbsp;&lt;/span&gt;&lt;span style=&quot;color: #c678dd&quot;&gt;const&lt;/span&gt;&lt;span style=&quot;color: #abb2bf&quot;&gt;&amp;nbsp;&lt;/span&gt;&lt;span style=&quot;color: #d19a66&quot;&gt;styleBlock&lt;/span&gt;&lt;span style=&quot;color: #abb2bf&quot;&gt;&amp;nbsp;&lt;/span&gt;&lt;span style=&quot;color: #56b6c2&quot;&gt;=&lt;/span&gt;&lt;span style=&quot;color: #abb2bf&quot;&gt;&amp;nbsp;&lt;/span&gt;&lt;span style=&quot;color: #61afef&quot;&gt;createBlock&lt;/span&gt;&lt;span style=&quot;color: #abb2bf&quot;&gt;(node,&amp;nbsp;source,&amp;nbsp;pad);&lt;/span&gt;&lt;/div&gt;&lt;div&gt;&lt;span style=&quot;color: #abb2bf&quot;&gt;&amp;nbsp;&amp;nbsp;&amp;nbsp;&amp;nbsp;&amp;nbsp;&amp;nbsp;&amp;nbsp;&amp;nbsp;&amp;nbsp;&amp;nbsp;&amp;nbsp;&amp;nbsp;&amp;nbsp;&amp;nbsp;&lt;/span&gt;&lt;span style=&quot;color: #c678dd&quot;&gt;if&lt;/span&gt;&lt;span style=&quot;color: #abb2bf&quot;&gt;&amp;nbsp;(styleBlock.&lt;/span&gt;&lt;span style=&quot;color: #e06c75&quot;&gt;attrs&lt;/span&gt;&lt;span style=&quot;color: #abb2bf&quot;&gt;.&lt;/span&gt;&lt;span style=&quot;color: #e06c75&quot;&gt;vars&lt;/span&gt;&lt;span style=&quot;color: #abb2bf&quot;&gt;)&amp;nbsp;{&lt;/span&gt;&lt;/div&gt;&lt;div&gt;&lt;span style=&quot;color: #abb2bf&quot;&gt;&amp;nbsp;&amp;nbsp;&amp;nbsp;&amp;nbsp;&amp;nbsp;&amp;nbsp;&amp;nbsp;&amp;nbsp;&amp;nbsp;&amp;nbsp;&amp;nbsp;&amp;nbsp;&amp;nbsp;&amp;nbsp;&amp;nbsp;&amp;nbsp;&amp;nbsp;&amp;nbsp;errors.&lt;/span&gt;&lt;span style=&quot;color: #61afef&quot;&gt;push&lt;/span&gt;&lt;span style=&quot;color: #abb2bf&quot;&gt;(&lt;/span&gt;&lt;span style=&quot;color: #c678dd&quot;&gt;new&lt;/span&gt;&lt;span style=&quot;color: #abb2bf&quot;&gt;&amp;nbsp;&lt;/span&gt;&lt;span style=&quot;color: #e5c07b&quot;&gt;SyntaxError&lt;/span&gt;&lt;span style=&quot;color: #abb2bf&quot;&gt;(&lt;/span&gt;&lt;span style=&quot;color: #98c379&quot;&gt;`&amp;lt;style&amp;nbsp;vars&amp;gt;&amp;nbsp;has&amp;nbsp;been&amp;nbsp;replaced&amp;nbsp;by&amp;nbsp;a&amp;nbsp;new&amp;nbsp;proposal:&amp;nbsp;`&lt;/span&gt;&lt;span style=&quot;color: #abb2bf&quot;&gt;&amp;nbsp;&lt;/span&gt;&lt;span style=&quot;color: #56b6c2&quot;&gt;+&lt;/span&gt;&lt;/div&gt;&lt;div&gt;&lt;span style=&quot;color: #abb2bf&quot;&gt;&amp;nbsp;&amp;nbsp;&amp;nbsp;&amp;nbsp;&amp;nbsp;&amp;nbsp;&amp;nbsp;&amp;nbsp;&amp;nbsp;&amp;nbsp;&amp;nbsp;&amp;nbsp;&amp;nbsp;&amp;nbsp;&amp;nbsp;&amp;nbsp;&amp;nbsp;&amp;nbsp;&amp;nbsp;&amp;nbsp;&amp;nbsp;&amp;nbsp;&lt;/span&gt;&lt;span style=&quot;color: #98c379&quot;&gt;`https://github.com/vuejs/rfcs/pull/231`&lt;/span&gt;&lt;span style=&quot;color: #abb2bf&quot;&gt;));&lt;/span&gt;&lt;/div&gt;&lt;div&gt;&lt;span style=&quot;color: #abb2bf&quot;&gt;&amp;nbsp;&amp;nbsp;&amp;nbsp;&amp;nbsp;&amp;nbsp;&amp;nbsp;&amp;nbsp;&amp;nbsp;&amp;nbsp;&amp;nbsp;&amp;nbsp;&amp;nbsp;&amp;nbsp;&amp;nbsp;}&lt;/span&gt;&lt;/div&gt;&lt;div&gt;&lt;span style=&quot;color: #abb2bf&quot;&gt;&amp;nbsp;&amp;nbsp;&amp;nbsp;&amp;nbsp;&amp;nbsp;&amp;nbsp;&amp;nbsp;&amp;nbsp;&amp;nbsp;&amp;nbsp;&amp;nbsp;&amp;nbsp;&amp;nbsp;&amp;nbsp;descriptor.&lt;/span&gt;&lt;span style=&quot;color: #e06c75&quot;&gt;styles&lt;/span&gt;&lt;span style=&quot;color: #abb2bf&quot;&gt;.&lt;/span&gt;&lt;span style=&quot;color: #61afef&quot;&gt;push&lt;/span&gt;&lt;span style=&quot;color: #abb2bf&quot;&gt;(styleBlock);&lt;/span&gt;&lt;/div&gt;&lt;div&gt;&lt;span style=&quot;color: #abb2bf&quot;&gt;&amp;nbsp;&amp;nbsp;&amp;nbsp;&amp;nbsp;&amp;nbsp;&amp;nbsp;&amp;nbsp;&amp;nbsp;&amp;nbsp;&amp;nbsp;&amp;nbsp;&amp;nbsp;&amp;nbsp;&amp;nbsp;&lt;/span&gt;&lt;span style=&quot;color: #c678dd&quot;&gt;break&lt;/span&gt;&lt;span style=&quot;color: #abb2bf&quot;&gt;;&lt;/span&gt;&lt;/div&gt;&lt;div&gt;&lt;span style=&quot;color: #abb2bf&quot;&gt;&amp;nbsp;&amp;nbsp;&amp;nbsp;&amp;nbsp;&amp;nbsp;&amp;nbsp;&amp;nbsp;&amp;nbsp;&amp;nbsp;&amp;nbsp;&lt;/span&gt;&lt;span style=&quot;color: #c678dd&quot;&gt;default&lt;/span&gt;&lt;span style=&quot;color: #abb2bf&quot;&gt;:&lt;/span&gt;&lt;/div&gt;&lt;div&gt;&lt;span style=&quot;color: #abb2bf&quot;&gt;&amp;nbsp;&amp;nbsp;&amp;nbsp;&amp;nbsp;&amp;nbsp;&amp;nbsp;&amp;nbsp;&amp;nbsp;&amp;nbsp;&amp;nbsp;&amp;nbsp;&amp;nbsp;&amp;nbsp;&amp;nbsp;descriptor.&lt;/span&gt;&lt;span style=&quot;color: #e06c75&quot;&gt;customBlocks&lt;/span&gt;&lt;span style=&quot;color: #abb2bf&quot;&gt;.&lt;/span&gt;&lt;span style=&quot;color: #61afef&quot;&gt;push&lt;/span&gt;&lt;span style=&quot;color: #abb2bf&quot;&gt;(&lt;/span&gt;&lt;span style=&quot;color: #61afef&quot;&gt;createBlock&lt;/span&gt;&lt;span style=&quot;color: #abb2bf&quot;&gt;(node,&amp;nbsp;source,&amp;nbsp;pad));&lt;/span&gt;&lt;/div&gt;&lt;div&gt;&lt;span style=&quot;color: #abb2bf&quot;&gt;&amp;nbsp;&amp;nbsp;&amp;nbsp;&amp;nbsp;&amp;nbsp;&amp;nbsp;&amp;nbsp;&amp;nbsp;&amp;nbsp;&amp;nbsp;&amp;nbsp;&amp;nbsp;&amp;nbsp;&amp;nbsp;&lt;/span&gt;&lt;span style=&quot;color: #c678dd&quot;&gt;break&lt;/span&gt;&lt;span style=&quot;color: #abb2bf&quot;&gt;;&lt;/span&gt;&lt;/div&gt;&lt;div&gt;&lt;span style=&quot;color: #abb2bf&quot;&gt;&amp;nbsp;&amp;nbsp;&amp;nbsp;&amp;nbsp;&amp;nbsp;&amp;nbsp;}&lt;/span&gt;&lt;/div&gt;&lt;div&gt;&lt;span style=&quot;color: #abb2bf&quot;&gt;&amp;nbsp;&amp;nbsp;});&lt;/span&gt;&lt;/div&gt;&lt;br&gt;&lt;div&gt;&lt;span style=&quot;color: #abb2bf&quot;&gt;&amp;nbsp;&amp;nbsp;&lt;/span&gt;&lt;span style=&quot;color: #5c6370 ; font-style: italic&quot;&gt;//&amp;nbsp;处理sourceMap&lt;/span&gt;&lt;/div&gt;&lt;div&gt;&lt;span style=&quot;color: #abb2bf&quot;&gt;&amp;nbsp;&amp;nbsp;&lt;/span&gt;&lt;span style=&quot;color: #c678dd&quot;&gt;if&lt;/span&gt;&lt;span style=&quot;color: #abb2bf&quot;&gt;&amp;nbsp;(sourceMap)&amp;nbsp;{&lt;/span&gt;&lt;/div&gt;&lt;div&gt;&lt;span style=&quot;color: #abb2bf&quot;&gt;&amp;nbsp;&amp;nbsp;&amp;nbsp;&amp;nbsp;&amp;nbsp;&amp;nbsp;&lt;/span&gt;&lt;span style=&quot;color: #c678dd&quot;&gt;const&lt;/span&gt;&lt;span style=&quot;color: #abb2bf&quot;&gt;&amp;nbsp;&lt;/span&gt;&lt;span style=&quot;color: #61afef&quot;&gt;genMap&lt;/span&gt;&lt;span style=&quot;color: #abb2bf&quot;&gt;&amp;nbsp;&lt;/span&gt;&lt;span style=&quot;color: #56b6c2&quot;&gt;=&lt;/span&gt;&lt;span style=&quot;color: #abb2bf&quot;&gt;&amp;nbsp;(block)&amp;nbsp;&lt;/span&gt;&lt;span style=&quot;color: #c678dd&quot;&gt;=&amp;gt;&lt;/span&gt;&lt;span style=&quot;color: #abb2bf&quot;&gt;&amp;nbsp;{&lt;/span&gt;&lt;/div&gt;&lt;div&gt;&lt;span style=&quot;color: #abb2bf&quot;&gt;&amp;nbsp;&amp;nbsp;&amp;nbsp;&amp;nbsp;&amp;nbsp;&amp;nbsp;&amp;nbsp;&amp;nbsp;&amp;nbsp;&amp;nbsp;&lt;/span&gt;&lt;span style=&quot;color: #c678dd&quot;&gt;if&lt;/span&gt;&lt;span style=&quot;color: #abb2bf&quot;&gt;&amp;nbsp;(block&amp;nbsp;&lt;/span&gt;&lt;span style=&quot;color: #56b6c2&quot;&gt;&amp;amp;&amp;amp;&lt;/span&gt;&lt;span style=&quot;color: #abb2bf&quot;&gt;&amp;nbsp;&lt;/span&gt;&lt;span style=&quot;color: #56b6c2&quot;&gt;!&lt;/span&gt;&lt;span style=&quot;color: #abb2bf&quot;&gt;block.&lt;/span&gt;&lt;span style=&quot;color: #e06c75&quot;&gt;src&lt;/span&gt;&lt;span style=&quot;color: #abb2bf&quot;&gt;)&amp;nbsp;{&lt;/span&gt;&lt;/div&gt;&lt;div&gt;&lt;span style=&quot;color: #abb2bf&quot;&gt;&amp;nbsp;&amp;nbsp;&amp;nbsp;&amp;nbsp;&amp;nbsp;&amp;nbsp;&amp;nbsp;&amp;nbsp;&amp;nbsp;&amp;nbsp;&amp;nbsp;&amp;nbsp;&amp;nbsp;&amp;nbsp;block.&lt;/span&gt;&lt;span style=&quot;color: #e06c75&quot;&gt;map&lt;/span&gt;&lt;span style=&quot;color: #abb2bf&quot;&gt;&amp;nbsp;&lt;/span&gt;&lt;span style=&quot;color: #56b6c2&quot;&gt;=&lt;/span&gt;&lt;span style=&quot;color: #abb2bf&quot;&gt;&amp;nbsp;&lt;/span&gt;&lt;span style=&quot;color: #61afef&quot;&gt;generateSourceMap&lt;/span&gt;&lt;span style=&quot;color: #abb2bf&quot;&gt;(filename,&amp;nbsp;source,&amp;nbsp;block.&lt;/span&gt;&lt;span style=&quot;color: #e06c75&quot;&gt;content&lt;/span&gt;&lt;span style=&quot;color: #abb2bf&quot;&gt;,&amp;nbsp;sourceRoot,&amp;nbsp;&lt;/span&gt;&lt;span style=&quot;color: #56b6c2&quot;&gt;!&lt;/span&gt;&lt;span style=&quot;color: #abb2bf&quot;&gt;pad&amp;nbsp;&lt;/span&gt;&lt;span style=&quot;color: #56b6c2&quot;&gt;||&lt;/span&gt;&lt;span style=&quot;color: #abb2bf&quot;&gt;&amp;nbsp;block.&lt;/span&gt;&lt;span style=&quot;color: #e06c75&quot;&gt;type&lt;/span&gt;&lt;span style=&quot;color: #abb2bf&quot;&gt;&amp;nbsp;&lt;/span&gt;&lt;span style=&quot;color: #56b6c2&quot;&gt;===&lt;/span&gt;&lt;span style=&quot;color: #abb2bf&quot;&gt;&amp;nbsp;&lt;/span&gt;&lt;span style=&quot;color: #98c379&quot;&gt;'template'&lt;/span&gt;&lt;span style=&quot;color: #abb2bf&quot;&gt;&amp;nbsp;&lt;/span&gt;&lt;span style=&quot;color: #56b6c2&quot;&gt;?&lt;/span&gt;&lt;span style=&quot;color: #abb2bf&quot;&gt;&amp;nbsp;block.&lt;/span&gt;&lt;span style=&quot;color: #e06c75&quot;&gt;loc&lt;/span&gt;&lt;span style=&quot;color: #abb2bf&quot;&gt;.&lt;/span&gt;&lt;span style=&quot;color: #e06c75&quot;&gt;start&lt;/span&gt;&lt;span style=&quot;color: #abb2bf&quot;&gt;.&lt;/span&gt;&lt;span style=&quot;color: #e06c75&quot;&gt;line&lt;/span&gt;&lt;span style=&quot;color: #abb2bf&quot;&gt;&amp;nbsp;&lt;/span&gt;&lt;span style=&quot;color: #56b6c2&quot;&gt;-&lt;/span&gt;&lt;span style=&quot;color: #abb2bf&quot;&gt;&amp;nbsp;&lt;/span&gt;&lt;span style=&quot;color: #d19a66&quot;&gt;1&lt;/span&gt;&lt;span style=&quot;color: #abb2bf&quot;&gt;&amp;nbsp;&lt;/span&gt;&lt;span style=&quot;color: #56b6c2&quot;&gt;:&lt;/span&gt;&lt;span style=&quot;color: #abb2bf&quot;&gt;&amp;nbsp;&lt;/span&gt;&lt;span style=&quot;color: #d19a66&quot;&gt;0&lt;/span&gt;&lt;span style=&quot;color: #abb2bf&quot;&gt;);&lt;/span&gt;&lt;/div&gt;&lt;div&gt;&lt;span style=&quot;color: #abb2bf&quot;&gt;&amp;nbsp;&amp;nbsp;&amp;nbsp;&amp;nbsp;&amp;nbsp;&amp;nbsp;&amp;nbsp;&amp;nbsp;&amp;nbsp;&amp;nbsp;}&lt;/span&gt;&lt;/div&gt;&lt;div&gt;&lt;span style=&quot;color: #abb2bf&quot;&gt;&amp;nbsp;&amp;nbsp;&amp;nbsp;&amp;nbsp;&amp;nbsp;&amp;nbsp;};&lt;/span&gt;&lt;/div&gt;&lt;div&gt;&lt;span style=&quot;color: #abb2bf&quot;&gt;&amp;nbsp;&amp;nbsp;&amp;nbsp;&amp;nbsp;&amp;nbsp;&amp;nbsp;&lt;/span&gt;&lt;span style=&quot;color: #61afef&quot;&gt;genMap&lt;/span&gt;&lt;span style=&quot;color: #abb2bf&quot;&gt;(descriptor.&lt;/span&gt;&lt;span style=&quot;color: #e06c75&quot;&gt;template&lt;/span&gt;&lt;span style=&quot;color: #abb2bf&quot;&gt;);&lt;/span&gt;&lt;/div&gt;&lt;div&gt;&lt;span style=&quot;color: #abb2bf&quot;&gt;&amp;nbsp;&amp;nbsp;&amp;nbsp;&amp;nbsp;&amp;nbsp;&amp;nbsp;&lt;/span&gt;&lt;span style=&quot;color: #61afef&quot;&gt;genMap&lt;/span&gt;&lt;span style=&quot;color: #abb2bf&quot;&gt;(descriptor.&lt;/span&gt;&lt;span style=&quot;color: #e06c75&quot;&gt;script&lt;/span&gt;&lt;span style=&quot;color: #abb2bf&quot;&gt;);&lt;/span&gt;&lt;/div&gt;&lt;div&gt;&lt;span style=&quot;color: #abb2bf&quot;&gt;&amp;nbsp;&amp;nbsp;&amp;nbsp;&amp;nbsp;&amp;nbsp;&amp;nbsp;descriptor.&lt;/span&gt;&lt;span style=&quot;color: #e06c75&quot;&gt;styles&lt;/span&gt;&lt;span style=&quot;color: #abb2bf&quot;&gt;.&lt;/span&gt;&lt;span style=&quot;color: #61afef&quot;&gt;forEach&lt;/span&gt;&lt;span style=&quot;color: #abb2bf&quot;&gt;(genMap);&lt;/span&gt;&lt;/div&gt;&lt;div&gt;&lt;span style=&quot;color: #abb2bf&quot;&gt;&amp;nbsp;&amp;nbsp;&amp;nbsp;&amp;nbsp;&amp;nbsp;&amp;nbsp;descriptor.&lt;/span&gt;&lt;span style=&quot;color: #e06c75&quot;&gt;customBlocks&lt;/span&gt;&lt;span style=&quot;color: #abb2bf&quot;&gt;.&lt;/span&gt;&lt;span style=&quot;color: #61afef&quot;&gt;forEach&lt;/span&gt;&lt;span style=&quot;color: #abb2bf&quot;&gt;(genMap);&lt;/span&gt;&lt;/div&gt;&lt;div&gt;&lt;span style=&quot;color: #abb2bf&quot;&gt;&amp;nbsp;&amp;nbsp;}&lt;/span&gt;&lt;/div&gt;&lt;div&gt;&lt;span style=&quot;color: #abb2bf&quot;&gt;&amp;nbsp;&amp;nbsp;&lt;/span&gt;&lt;span style=&quot;color: #5c6370 ; font-style: italic&quot;&gt;//&amp;nbsp;处理css变量&lt;/span&gt;&lt;/div&gt;&lt;div&gt;&lt;span style=&quot;color: #abb2bf&quot;&gt;&amp;nbsp;&amp;nbsp;descriptor.&lt;/span&gt;&lt;span style=&quot;color: #e06c75&quot;&gt;cssVars&lt;/span&gt;&lt;span style=&quot;color: #abb2bf&quot;&gt;&amp;nbsp;&lt;/span&gt;&lt;span style=&quot;color: #56b6c2&quot;&gt;=&lt;/span&gt;&lt;span style=&quot;color: #abb2bf&quot;&gt;&amp;nbsp;&lt;/span&gt;&lt;span style=&quot;color: #61afef&quot;&gt;parseCssVars&lt;/span&gt;&lt;span style=&quot;color: #abb2bf&quot;&gt;(descriptor);&lt;/span&gt;&lt;/div&gt;&lt;div&gt;&lt;span style=&quot;color: #abb2bf&quot;&gt;&amp;nbsp;&amp;nbsp;&lt;/span&gt;&lt;span style=&quot;color: #c678dd&quot;&gt;if&lt;/span&gt;&lt;span style=&quot;color: #abb2bf&quot;&gt;&amp;nbsp;(descriptor.&lt;/span&gt;&lt;span style=&quot;color: #e06c75&quot;&gt;cssVars&lt;/span&gt;&lt;span style=&quot;color: #abb2bf&quot;&gt;.&lt;/span&gt;&lt;span style=&quot;color: #e06c75&quot;&gt;length&lt;/span&gt;&lt;span style=&quot;color: #abb2bf&quot;&gt;)&amp;nbsp;{&lt;/span&gt;&lt;/div&gt;&lt;div&gt;&lt;span style=&quot;color: #abb2bf&quot;&gt;&amp;nbsp;&amp;nbsp;&amp;nbsp;&amp;nbsp;&amp;nbsp;&amp;nbsp;&lt;/span&gt;&lt;span style=&quot;color: #61afef&quot;&gt;warnExperimental&lt;/span&gt;&lt;span style=&quot;color: #abb2bf&quot;&gt;(&lt;/span&gt;&lt;span style=&quot;color: #98c379&quot;&gt;`v-bind()&amp;nbsp;CSS&amp;nbsp;variable&amp;nbsp;injection`&lt;/span&gt;&lt;span style=&quot;color: #abb2bf&quot;&gt;,&amp;nbsp;&lt;/span&gt;&lt;span style=&quot;color: #d19a66&quot;&gt;231&lt;/span&gt;&lt;span style=&quot;color: #abb2bf&quot;&gt;);&lt;/span&gt;&lt;/div&gt;&lt;div&gt;&lt;span style=&quot;color: #abb2bf&quot;&gt;&amp;nbsp;&amp;nbsp;}&lt;/span&gt;&lt;/div&gt;&lt;div&gt;&lt;span style=&quot;color: #abb2bf&quot;&gt;&amp;nbsp;&amp;nbsp;&lt;/span&gt;&lt;span style=&quot;color: #c678dd&quot;&gt;const&lt;/span&gt;&lt;span style=&quot;color: #abb2bf&quot;&gt;&amp;nbsp;&lt;/span&gt;&lt;span style=&quot;color: #d19a66&quot;&gt;result&lt;/span&gt;&lt;span style=&quot;color: #abb2bf&quot;&gt;&amp;nbsp;&lt;/span&gt;&lt;span style=&quot;color: #56b6c2&quot;&gt;=&lt;/span&gt;&lt;span style=&quot;color: #abb2bf&quot;&gt;&amp;nbsp;{&lt;/span&gt;&lt;/div&gt;&lt;div&gt;&lt;span style=&quot;color: #abb2bf&quot;&gt;&amp;nbsp;&amp;nbsp;&amp;nbsp;&amp;nbsp;&amp;nbsp;&amp;nbsp;descriptor,&lt;/span&gt;&lt;/div&gt;&lt;div&gt;&lt;span style=&quot;color: #abb2bf&quot;&gt;&amp;nbsp;&amp;nbsp;&amp;nbsp;&amp;nbsp;&amp;nbsp;&amp;nbsp;errors&lt;/span&gt;&lt;/div&gt;&lt;div&gt;&lt;span style=&quot;color: #abb2bf&quot;&gt;&amp;nbsp;&amp;nbsp;};&lt;/span&gt;&lt;/div&gt;&lt;div&gt;&lt;span style=&quot;color: #abb2bf&quot;&gt;&amp;nbsp;&amp;nbsp;sourceToSFC.&lt;/span&gt;&lt;span style=&quot;color: #61afef&quot;&gt;set&lt;/span&gt;&lt;span style=&quot;color: #abb2bf&quot;&gt;(sourceKey,&amp;nbsp;result);&lt;/span&gt;&lt;/div&gt;&lt;div&gt;&lt;span style=&quot;color: #abb2bf&quot;&gt;&amp;nbsp;&amp;nbsp;&lt;/span&gt;&lt;span style=&quot;color: #c678dd&quot;&gt;return&lt;/span&gt;&lt;span style=&quot;color: #abb2bf&quot;&gt;&amp;nbsp;result;&lt;/span&gt;&lt;/div&gt;&lt;div&gt;&lt;span style=&quot;color: #abb2bf&quot;&gt;}&lt;/span&gt;&lt;/div&gt;&lt;/div&gt;&#10;&#10;" style="rounded=1;whiteSpace=wrap;html=1;align=left;" vertex="1" parent="1">
                    <mxGeometry x="1700" y="245" width="1210" height="2420" as="geometry"/>
                </mxCell>
                <mxCell id="28" style="edgeStyle=orthogonalEdgeStyle;rounded=0;orthogonalLoop=1;jettySize=auto;html=1;entryX=0;entryY=0.5;entryDx=0;entryDy=0;" edge="1" parent="1" source="25" target="27">
                    <mxGeometry relative="1" as="geometry"/>
                </mxCell>
                <mxCell id="25" value="@vue/compiler-dom" style="rounded=1;whiteSpace=wrap;html=1;align=center;" vertex="1" parent="1">
                    <mxGeometry x="3150" y="1425" width="120" height="60" as="geometry"/>
                </mxCell>
                <mxCell id="30" style="edgeStyle=orthogonalEdgeStyle;rounded=0;orthogonalLoop=1;jettySize=auto;html=1;" edge="1" parent="1" source="27" target="29">
                    <mxGeometry relative="1" as="geometry"/>
                </mxCell>
                <mxCell id="27" value="&#10;&#10;&lt;div style=&quot;color: rgb(171, 178, 191); background-color: rgb(40, 44, 52); font-family: consolas, &amp;quot;courier new&amp;quot;, monospace; font-weight: normal; font-size: 14px; line-height: 19px;&quot;&gt;&lt;div&gt;&lt;span style=&quot;color: #c678dd&quot;&gt;function&lt;/span&gt;&lt;span style=&quot;color: #abb2bf&quot;&gt;&amp;nbsp;&lt;/span&gt;&lt;span style=&quot;color: #61afef&quot;&gt;parse&lt;/span&gt;&lt;span style=&quot;color: #abb2bf&quot;&gt;(template,&amp;nbsp;options&amp;nbsp;&lt;/span&gt;&lt;span style=&quot;color: #56b6c2&quot;&gt;=&lt;/span&gt;&lt;span style=&quot;color: #abb2bf&quot;&gt;&amp;nbsp;{})&amp;nbsp;{&lt;/span&gt;&lt;/div&gt;&lt;div&gt;&lt;span style=&quot;color: #abb2bf&quot;&gt;&amp;nbsp;&amp;nbsp;&amp;nbsp;&amp;nbsp;&lt;/span&gt;&lt;span style=&quot;color: #c678dd&quot;&gt;return&lt;/span&gt;&lt;span style=&quot;color: #abb2bf&quot;&gt;&amp;nbsp;compilerCore.&lt;/span&gt;&lt;span style=&quot;color: #61afef&quot;&gt;baseParse&lt;/span&gt;&lt;span style=&quot;color: #abb2bf&quot;&gt;(template,&amp;nbsp;shared.&lt;/span&gt;&lt;span style=&quot;color: #61afef&quot;&gt;extend&lt;/span&gt;&lt;span style=&quot;color: #abb2bf&quot;&gt;({},&amp;nbsp;parserOptions,&amp;nbsp;options));&lt;/span&gt;&lt;/div&gt;&lt;div&gt;&lt;span style=&quot;color: #abb2bf&quot;&gt;}&lt;/span&gt;&lt;/div&gt;&lt;br&gt;&lt;/div&gt;&#10;&#10;" style="rounded=1;whiteSpace=wrap;html=1;align=left;" vertex="1" parent="1">
                    <mxGeometry x="3445" y="1410" width="690" height="90" as="geometry"/>
                </mxCell>
                <mxCell id="32" style="edgeStyle=orthogonalEdgeStyle;rounded=0;orthogonalLoop=1;jettySize=auto;html=1;entryX=0;entryY=0.5;entryDx=0;entryDy=0;" edge="1" parent="1" source="29" target="31">
                    <mxGeometry relative="1" as="geometry"/>
                </mxCell>
                <mxCell id="29" value="@vue/compiler-core" style="rounded=1;whiteSpace=wrap;html=1;align=center;" vertex="1" parent="1">
                    <mxGeometry x="4300" y="1425" width="120" height="60" as="geometry"/>
                </mxCell>
                <mxCell id="34" style="edgeStyle=orthogonalEdgeStyle;rounded=0;orthogonalLoop=1;jettySize=auto;html=1;entryX=0.5;entryY=0;entryDx=0;entryDy=0;" edge="1" parent="1" source="31" target="33">
                    <mxGeometry relative="1" as="geometry"/>
                </mxCell>
                <mxCell id="36" style="edgeStyle=orthogonalEdgeStyle;rounded=0;orthogonalLoop=1;jettySize=auto;html=1;entryX=0;entryY=0.5;entryDx=0;entryDy=0;" edge="1" parent="1" source="31" target="35">
                    <mxGeometry relative="1" as="geometry"/>
                </mxCell>
                <mxCell id="31" value="&#10;&#10;&lt;div style=&quot;color: rgb(171, 178, 191); background-color: rgb(40, 44, 52); font-family: consolas, &amp;quot;courier new&amp;quot;, monospace; font-weight: normal; font-size: 14px; line-height: 19px;&quot;&gt;&lt;div&gt;&lt;span style=&quot;color: #c678dd&quot;&gt;function&lt;/span&gt;&lt;span style=&quot;color: #abb2bf&quot;&gt;&amp;nbsp;&lt;/span&gt;&lt;span style=&quot;color: #61afef&quot;&gt;baseParse&lt;/span&gt;&lt;span style=&quot;color: #abb2bf&quot;&gt;(content,&amp;nbsp;options&amp;nbsp;&lt;/span&gt;&lt;span style=&quot;color: #56b6c2&quot;&gt;=&lt;/span&gt;&lt;span style=&quot;color: #abb2bf&quot;&gt;&amp;nbsp;{})&amp;nbsp;{&lt;/span&gt;&lt;/div&gt;&lt;div&gt;&lt;span style=&quot;color: #abb2bf&quot;&gt;&amp;nbsp;&amp;nbsp;&amp;nbsp;&amp;nbsp;&lt;/span&gt;&lt;span style=&quot;color: #c678dd&quot;&gt;const&lt;/span&gt;&lt;span style=&quot;color: #abb2bf&quot;&gt;&amp;nbsp;&lt;/span&gt;&lt;span style=&quot;color: #d19a66&quot;&gt;context&lt;/span&gt;&lt;span style=&quot;color: #abb2bf&quot;&gt;&amp;nbsp;&lt;/span&gt;&lt;span style=&quot;color: #56b6c2&quot;&gt;=&lt;/span&gt;&lt;span style=&quot;color: #abb2bf&quot;&gt;&amp;nbsp;&lt;/span&gt;&lt;span style=&quot;color: #61afef&quot;&gt;createParserContext&lt;/span&gt;&lt;span style=&quot;color: #abb2bf&quot;&gt;(content,&amp;nbsp;options);&lt;/span&gt;&lt;/div&gt;&lt;div&gt;&lt;span style=&quot;color: #abb2bf&quot;&gt;&amp;nbsp;&amp;nbsp;&amp;nbsp;&amp;nbsp;&lt;/span&gt;&lt;span style=&quot;color: #c678dd&quot;&gt;const&lt;/span&gt;&lt;span style=&quot;color: #abb2bf&quot;&gt;&amp;nbsp;&lt;/span&gt;&lt;span style=&quot;color: #d19a66&quot;&gt;start&lt;/span&gt;&lt;span style=&quot;color: #abb2bf&quot;&gt;&amp;nbsp;&lt;/span&gt;&lt;span style=&quot;color: #56b6c2&quot;&gt;=&lt;/span&gt;&lt;span style=&quot;color: #abb2bf&quot;&gt;&amp;nbsp;&lt;/span&gt;&lt;span style=&quot;color: #61afef&quot;&gt;getCursor&lt;/span&gt;&lt;span style=&quot;color: #abb2bf&quot;&gt;(context);&lt;/span&gt;&lt;/div&gt;&lt;div&gt;&lt;span style=&quot;color: #abb2bf&quot;&gt;&amp;nbsp;&amp;nbsp;&amp;nbsp;&amp;nbsp;&lt;/span&gt;&lt;span style=&quot;color: #c678dd&quot;&gt;return&lt;/span&gt;&lt;span style=&quot;color: #abb2bf&quot;&gt;&amp;nbsp;&lt;/span&gt;&lt;span style=&quot;color: #61afef&quot;&gt;createRoot&lt;/span&gt;&lt;span style=&quot;color: #abb2bf&quot;&gt;(&lt;/span&gt;&lt;span style=&quot;color: #61afef&quot;&gt;parseChildren&lt;/span&gt;&lt;span style=&quot;color: #abb2bf&quot;&gt;(context,&amp;nbsp;&lt;/span&gt;&lt;span style=&quot;color: #d19a66&quot;&gt;0&lt;/span&gt;&lt;span style=&quot;color: #abb2bf&quot;&gt;&amp;nbsp;&lt;/span&gt;&lt;span style=&quot;color: #5c6370 ; font-style: italic&quot;&gt;/*&amp;nbsp;DATA&amp;nbsp;*/&lt;/span&gt;&lt;span style=&quot;color: #abb2bf&quot;&gt;,&amp;nbsp;[]),&amp;nbsp;&lt;/span&gt;&lt;span style=&quot;color: #61afef&quot;&gt;getSelection&lt;/span&gt;&lt;span style=&quot;color: #abb2bf&quot;&gt;(context,&amp;nbsp;start));&lt;/span&gt;&lt;/div&gt;&lt;div&gt;&lt;span style=&quot;color: #abb2bf&quot;&gt;}&lt;/span&gt;&lt;/div&gt;&lt;/div&gt;&#10;&#10;" style="rounded=1;whiteSpace=wrap;html=1;align=left;" vertex="1" parent="1">
                    <mxGeometry x="4560" y="1402.5" width="751" height="105" as="geometry"/>
                </mxCell>
                <mxCell id="33" value="&#10;&#10;&lt;div style=&quot;color: rgb(171, 178, 191); background-color: rgb(40, 44, 52); font-family: consolas, &amp;quot;courier new&amp;quot;, monospace; font-weight: normal; font-size: 14px; line-height: 19px;&quot;&gt;&lt;div&gt;&lt;span style=&quot;color: #c678dd&quot;&gt;function&lt;/span&gt;&lt;span style=&quot;color: #abb2bf&quot;&gt;&amp;nbsp;&lt;/span&gt;&lt;span style=&quot;color: #61afef&quot;&gt;createRoot&lt;/span&gt;&lt;span style=&quot;color: #abb2bf&quot;&gt;(children,&amp;nbsp;loc&amp;nbsp;&lt;/span&gt;&lt;span style=&quot;color: #56b6c2&quot;&gt;=&lt;/span&gt;&lt;span style=&quot;color: #abb2bf&quot;&gt;&amp;nbsp;locStub)&amp;nbsp;{&lt;/span&gt;&lt;/div&gt;&lt;div&gt;&lt;span style=&quot;color: #abb2bf&quot;&gt;&amp;nbsp;&amp;nbsp;&amp;nbsp;&amp;nbsp;&lt;/span&gt;&lt;span style=&quot;color: #c678dd&quot;&gt;return&lt;/span&gt;&lt;span style=&quot;color: #abb2bf&quot;&gt;&amp;nbsp;{&lt;/span&gt;&lt;/div&gt;&lt;div&gt;&lt;span style=&quot;color: #abb2bf&quot;&gt;&amp;nbsp;&amp;nbsp;&amp;nbsp;&amp;nbsp;&amp;nbsp;&amp;nbsp;&amp;nbsp;&amp;nbsp;&lt;/span&gt;&lt;span style=&quot;color: #e06c75&quot;&gt;type&lt;/span&gt;&lt;span style=&quot;color: #56b6c2&quot;&gt;:&lt;/span&gt;&lt;span style=&quot;color: #abb2bf&quot;&gt;&amp;nbsp;&lt;/span&gt;&lt;span style=&quot;color: #d19a66&quot;&gt;0&lt;/span&gt;&lt;span style=&quot;color: #abb2bf&quot;&gt;&amp;nbsp;&lt;/span&gt;&lt;span style=&quot;color: #5c6370 ; font-style: italic&quot;&gt;/*&amp;nbsp;ROOT&amp;nbsp;*/&lt;/span&gt;&lt;span style=&quot;color: #abb2bf&quot;&gt;,&lt;/span&gt;&lt;/div&gt;&lt;div&gt;&lt;span style=&quot;color: #abb2bf&quot;&gt;&amp;nbsp;&amp;nbsp;&amp;nbsp;&amp;nbsp;&amp;nbsp;&amp;nbsp;&amp;nbsp;&amp;nbsp;children,&lt;/span&gt;&lt;/div&gt;&lt;div&gt;&lt;span style=&quot;color: #abb2bf&quot;&gt;&amp;nbsp;&amp;nbsp;&amp;nbsp;&amp;nbsp;&amp;nbsp;&amp;nbsp;&amp;nbsp;&amp;nbsp;&lt;/span&gt;&lt;span style=&quot;color: #e06c75&quot;&gt;helpers&lt;/span&gt;&lt;span style=&quot;color: #56b6c2&quot;&gt;:&lt;/span&gt;&lt;span style=&quot;color: #abb2bf&quot;&gt;&amp;nbsp;[],&lt;/span&gt;&lt;/div&gt;&lt;div&gt;&lt;span style=&quot;color: #abb2bf&quot;&gt;&amp;nbsp;&amp;nbsp;&amp;nbsp;&amp;nbsp;&amp;nbsp;&amp;nbsp;&amp;nbsp;&amp;nbsp;&lt;/span&gt;&lt;span style=&quot;color: #e06c75&quot;&gt;components&lt;/span&gt;&lt;span style=&quot;color: #56b6c2&quot;&gt;:&lt;/span&gt;&lt;span style=&quot;color: #abb2bf&quot;&gt;&amp;nbsp;[],&lt;/span&gt;&lt;/div&gt;&lt;div&gt;&lt;span style=&quot;color: #abb2bf&quot;&gt;&amp;nbsp;&amp;nbsp;&amp;nbsp;&amp;nbsp;&amp;nbsp;&amp;nbsp;&amp;nbsp;&amp;nbsp;&lt;/span&gt;&lt;span style=&quot;color: #e06c75&quot;&gt;directives&lt;/span&gt;&lt;span style=&quot;color: #56b6c2&quot;&gt;:&lt;/span&gt;&lt;span style=&quot;color: #abb2bf&quot;&gt;&amp;nbsp;[],&lt;/span&gt;&lt;/div&gt;&lt;div&gt;&lt;span style=&quot;color: #abb2bf&quot;&gt;&amp;nbsp;&amp;nbsp;&amp;nbsp;&amp;nbsp;&amp;nbsp;&amp;nbsp;&amp;nbsp;&amp;nbsp;&lt;/span&gt;&lt;span style=&quot;color: #e06c75&quot;&gt;hoists&lt;/span&gt;&lt;span style=&quot;color: #56b6c2&quot;&gt;:&lt;/span&gt;&lt;span style=&quot;color: #abb2bf&quot;&gt;&amp;nbsp;[],&lt;/span&gt;&lt;/div&gt;&lt;div&gt;&lt;span style=&quot;color: #abb2bf&quot;&gt;&amp;nbsp;&amp;nbsp;&amp;nbsp;&amp;nbsp;&amp;nbsp;&amp;nbsp;&amp;nbsp;&amp;nbsp;&lt;/span&gt;&lt;span style=&quot;color: #e06c75&quot;&gt;imports&lt;/span&gt;&lt;span style=&quot;color: #56b6c2&quot;&gt;:&lt;/span&gt;&lt;span style=&quot;color: #abb2bf&quot;&gt;&amp;nbsp;[],&lt;/span&gt;&lt;/div&gt;&lt;div&gt;&lt;span style=&quot;color: #abb2bf&quot;&gt;&amp;nbsp;&amp;nbsp;&amp;nbsp;&amp;nbsp;&amp;nbsp;&amp;nbsp;&amp;nbsp;&amp;nbsp;&lt;/span&gt;&lt;span style=&quot;color: #e06c75&quot;&gt;cached&lt;/span&gt;&lt;span style=&quot;color: #56b6c2&quot;&gt;:&lt;/span&gt;&lt;span style=&quot;color: #abb2bf&quot;&gt;&amp;nbsp;&lt;/span&gt;&lt;span style=&quot;color: #d19a66&quot;&gt;0&lt;/span&gt;&lt;span style=&quot;color: #abb2bf&quot;&gt;,&lt;/span&gt;&lt;/div&gt;&lt;div&gt;&lt;span style=&quot;color: #abb2bf&quot;&gt;&amp;nbsp;&amp;nbsp;&amp;nbsp;&amp;nbsp;&amp;nbsp;&amp;nbsp;&amp;nbsp;&amp;nbsp;&lt;/span&gt;&lt;span style=&quot;color: #e06c75&quot;&gt;temps&lt;/span&gt;&lt;span style=&quot;color: #56b6c2&quot;&gt;:&lt;/span&gt;&lt;span style=&quot;color: #abb2bf&quot;&gt;&amp;nbsp;&lt;/span&gt;&lt;span style=&quot;color: #d19a66&quot;&gt;0&lt;/span&gt;&lt;span style=&quot;color: #abb2bf&quot;&gt;,&lt;/span&gt;&lt;/div&gt;&lt;div&gt;&lt;span style=&quot;color: #abb2bf&quot;&gt;&amp;nbsp;&amp;nbsp;&amp;nbsp;&amp;nbsp;&amp;nbsp;&amp;nbsp;&amp;nbsp;&amp;nbsp;&lt;/span&gt;&lt;span style=&quot;color: #e06c75&quot;&gt;codegenNode&lt;/span&gt;&lt;span style=&quot;color: #56b6c2&quot;&gt;:&lt;/span&gt;&lt;span style=&quot;color: #abb2bf&quot;&gt;&amp;nbsp;&lt;/span&gt;&lt;span style=&quot;color: #d19a66&quot;&gt;undefined&lt;/span&gt;&lt;span style=&quot;color: #abb2bf&quot;&gt;,&lt;/span&gt;&lt;/div&gt;&lt;div&gt;&lt;span style=&quot;color: #abb2bf&quot;&gt;&amp;nbsp;&amp;nbsp;&amp;nbsp;&amp;nbsp;&amp;nbsp;&amp;nbsp;&amp;nbsp;&amp;nbsp;loc&lt;/span&gt;&lt;/div&gt;&lt;div&gt;&lt;span style=&quot;color: #abb2bf&quot;&gt;&amp;nbsp;&amp;nbsp;&amp;nbsp;&amp;nbsp;};&lt;/span&gt;&lt;/div&gt;&lt;div&gt;&lt;span style=&quot;color: #abb2bf&quot;&gt;}&lt;/span&gt;&lt;/div&gt;&lt;/div&gt;&#10;&#10;" style="rounded=1;whiteSpace=wrap;html=1;align=left;" vertex="1" parent="1">
                    <mxGeometry x="4753.5" y="1650" width="364" height="360" as="geometry"/>
                </mxCell>
                <mxCell id="39" style="edgeStyle=orthogonalEdgeStyle;rounded=0;orthogonalLoop=1;jettySize=auto;html=1;" edge="1" parent="1" source="35" target="38">
                    <mxGeometry relative="1" as="geometry"/>
                </mxCell>
                <mxCell id="46" style="edgeStyle=orthogonalEdgeStyle;rounded=0;orthogonalLoop=1;jettySize=auto;html=1;entryX=0.5;entryY=1;entryDx=0;entryDy=0;" edge="1" parent="1" source="35" target="33">
                    <mxGeometry relative="1" as="geometry"/>
                </mxCell>
                <mxCell id="35" value="&lt;br&gt;&lt;br&gt;&lt;div style=&quot;color: rgb(171 , 178 , 191) ; background-color: rgb(40 , 44 , 52) ; font-family: &amp;#34;consolas&amp;#34; , &amp;#34;courier new&amp;#34; , monospace ; font-weight: normal ; font-size: 14px ; line-height: 19px&quot;&gt;&lt;div style=&quot;font-family: &amp;#34;consolas&amp;#34; , &amp;#34;courier new&amp;#34; , monospace ; line-height: 19px&quot;&gt;&lt;br&gt;&lt;br&gt;&lt;div&gt;&lt;span style=&quot;color: #c678dd&quot;&gt;function&lt;/span&gt;&amp;nbsp;&lt;span style=&quot;color: #61afef&quot;&gt;parseChildren&lt;/span&gt;(context,&amp;nbsp;mode,&amp;nbsp;ancestors)&amp;nbsp;{&lt;/div&gt;&lt;div&gt;&amp;nbsp;&amp;nbsp;&lt;span style=&quot;color: #5c6370 ; font-style: italic&quot;&gt;//&amp;nbsp;ancestors&amp;nbsp;用于存储祖先节点对象&lt;/span&gt;&lt;/div&gt;&lt;div&gt;&amp;nbsp;&amp;nbsp;&lt;span style=&quot;color: #c678dd&quot;&gt;const&lt;/span&gt;&amp;nbsp;&lt;span style=&quot;color: #d19a66&quot;&gt;parent&lt;/span&gt;&amp;nbsp;&lt;span style=&quot;color: #56b6c2&quot;&gt;=&lt;/span&gt;&amp;nbsp;&lt;span style=&quot;color: #61afef&quot;&gt;last&lt;/span&gt;(ancestors);&lt;/div&gt;&lt;div&gt;&amp;nbsp;&amp;nbsp;&lt;span style=&quot;color: #c678dd&quot;&gt;const&lt;/span&gt;&amp;nbsp;&lt;span style=&quot;color: #d19a66&quot;&gt;ns&lt;/span&gt;&amp;nbsp;&lt;span style=&quot;color: #56b6c2&quot;&gt;=&lt;/span&gt;&amp;nbsp;parent&amp;nbsp;&lt;span style=&quot;color: #56b6c2&quot;&gt;?&lt;/span&gt;&amp;nbsp;parent.&lt;span style=&quot;color: #e06c75&quot;&gt;ns&lt;/span&gt;&amp;nbsp;&lt;span style=&quot;color: #56b6c2&quot;&gt;:&lt;/span&gt;&amp;nbsp;&lt;span style=&quot;color: #d19a66&quot;&gt;0&lt;/span&gt;&amp;nbsp;&lt;span style=&quot;color: #5c6370 ; font-style: italic&quot;&gt;/*&amp;nbsp;HTML&amp;nbsp;*/&lt;/span&gt;;&lt;/div&gt;&lt;div&gt;&amp;nbsp;&amp;nbsp;&lt;span style=&quot;color: #c678dd&quot;&gt;const&lt;/span&gt;&amp;nbsp;&lt;span style=&quot;color: #d19a66&quot;&gt;nodes&lt;/span&gt;&amp;nbsp;&lt;span style=&quot;color: #56b6c2&quot;&gt;=&lt;/span&gt;&amp;nbsp;[];&lt;/div&gt;&lt;div&gt;&amp;nbsp;&amp;nbsp;&lt;span style=&quot;color: #c678dd&quot;&gt;while&lt;/span&gt;&amp;nbsp;(&lt;span style=&quot;color: #56b6c2&quot;&gt;!&lt;/span&gt;&lt;span style=&quot;color: #61afef&quot;&gt;isEnd&lt;/span&gt;(context,&amp;nbsp;mode,&amp;nbsp;ancestors))&amp;nbsp;{&lt;/div&gt;&lt;div&gt;&amp;nbsp;&amp;nbsp;&amp;nbsp;&amp;nbsp;&amp;nbsp;&amp;nbsp;&lt;span style=&quot;color: #c678dd&quot;&gt;const&lt;/span&gt;&amp;nbsp;&lt;span style=&quot;color: #d19a66&quot;&gt;s&lt;/span&gt;&amp;nbsp;&lt;span style=&quot;color: #56b6c2&quot;&gt;=&lt;/span&gt;&amp;nbsp;context.&lt;span style=&quot;color: #e06c75&quot;&gt;source&lt;/span&gt;;&lt;/div&gt;&lt;div&gt;&amp;nbsp;&amp;nbsp;&amp;nbsp;&amp;nbsp;&amp;nbsp;&amp;nbsp;&lt;span style=&quot;color: #c678dd&quot;&gt;let&lt;/span&gt;&amp;nbsp;node&amp;nbsp;&lt;span style=&quot;color: #56b6c2&quot;&gt;=&lt;/span&gt;&amp;nbsp;&lt;span style=&quot;color: #d19a66&quot;&gt;undefined&lt;/span&gt;;&lt;/div&gt;&lt;div&gt;&amp;nbsp;&amp;nbsp;&amp;nbsp;&amp;nbsp;&amp;nbsp;&amp;nbsp;&lt;span style=&quot;color: #c678dd&quot;&gt;if&lt;/span&gt;&amp;nbsp;(mode&amp;nbsp;&lt;span style=&quot;color: #56b6c2&quot;&gt;===&lt;/span&gt;&amp;nbsp;&lt;span style=&quot;color: #d19a66&quot;&gt;0&lt;/span&gt;&amp;nbsp;&lt;span style=&quot;color: #5c6370 ; font-style: italic&quot;&gt;/*&amp;nbsp;DATA&amp;nbsp;*/&lt;/span&gt;&amp;nbsp;&lt;span style=&quot;color: #56b6c2&quot;&gt;||&lt;/span&gt;&amp;nbsp;mode&amp;nbsp;&lt;span style=&quot;color: #56b6c2&quot;&gt;===&lt;/span&gt;&amp;nbsp;&lt;span style=&quot;color: #d19a66&quot;&gt;1&lt;/span&gt;&amp;nbsp;&lt;span style=&quot;color: #5c6370 ; font-style: italic&quot;&gt;/*&amp;nbsp;RCDATA&amp;nbsp;*/&lt;/span&gt;)&amp;nbsp;{&lt;/div&gt;&lt;div&gt;&amp;nbsp;&amp;nbsp;&amp;nbsp;&amp;nbsp;&amp;nbsp;&amp;nbsp;&amp;nbsp;&amp;nbsp;&amp;nbsp;&amp;nbsp;&lt;span style=&quot;color: #c678dd&quot;&gt;if&lt;/span&gt;&amp;nbsp;(&lt;span style=&quot;color: #56b6c2&quot;&gt;!&lt;/span&gt;context.&lt;span style=&quot;color: #e06c75&quot;&gt;inVPre&lt;/span&gt;&amp;nbsp;&lt;span style=&quot;color: #56b6c2&quot;&gt;&amp;amp;&amp;amp;&lt;/span&gt;&amp;nbsp;&lt;span style=&quot;color: #61afef&quot;&gt;startsWith&lt;/span&gt;(s,&amp;nbsp;context.&lt;span style=&quot;color: #e06c75&quot;&gt;options&lt;/span&gt;.&lt;span style=&quot;color: #e06c75&quot;&gt;delimiters&lt;/span&gt;[&lt;span style=&quot;color: #d19a66&quot;&gt;0&lt;/span&gt;]))&amp;nbsp;{&lt;/div&gt;&lt;div&gt;&amp;nbsp;&amp;nbsp;&amp;nbsp;&amp;nbsp;&amp;nbsp;&amp;nbsp;&amp;nbsp;&amp;nbsp;&amp;nbsp;&amp;nbsp;&amp;nbsp;&amp;nbsp;&amp;nbsp;&amp;nbsp;&lt;span style=&quot;color: #5c6370 ; font-style: italic&quot;&gt;//&amp;nbsp;'{{'&lt;/span&gt;&lt;/div&gt;&lt;div&gt;&amp;nbsp;&amp;nbsp;&amp;nbsp;&amp;nbsp;&amp;nbsp;&amp;nbsp;&amp;nbsp;&amp;nbsp;&amp;nbsp;&amp;nbsp;&amp;nbsp;&amp;nbsp;&amp;nbsp;&amp;nbsp;node&amp;nbsp;&lt;span style=&quot;color: #56b6c2&quot;&gt;=&lt;/span&gt;&amp;nbsp;&lt;span style=&quot;color: #61afef&quot;&gt;parseInterpolation&lt;/span&gt;(context,&amp;nbsp;mode);&lt;/div&gt;&lt;div&gt;&amp;nbsp;&amp;nbsp;&amp;nbsp;&amp;nbsp;&amp;nbsp;&amp;nbsp;&amp;nbsp;&amp;nbsp;&amp;nbsp;&amp;nbsp;}&lt;/div&gt;&lt;div&gt;&amp;nbsp;&amp;nbsp;&amp;nbsp;&amp;nbsp;&amp;nbsp;&amp;nbsp;&amp;nbsp;&amp;nbsp;&amp;nbsp;&amp;nbsp;&lt;span style=&quot;color: #c678dd&quot;&gt;else&lt;/span&gt;&amp;nbsp;&lt;span style=&quot;color: #c678dd&quot;&gt;if&lt;/span&gt;&amp;nbsp;(mode&amp;nbsp;&lt;span style=&quot;color: #56b6c2&quot;&gt;===&lt;/span&gt;&amp;nbsp;&lt;span style=&quot;color: #d19a66&quot;&gt;0&lt;/span&gt;&amp;nbsp;&lt;span style=&quot;color: #5c6370 ; font-style: italic&quot;&gt;/*&amp;nbsp;DATA&amp;nbsp;*/&lt;/span&gt;&amp;nbsp;&lt;span style=&quot;color: #56b6c2&quot;&gt;&amp;amp;&amp;amp;&lt;/span&gt;&amp;nbsp;s[&lt;span style=&quot;color: #d19a66&quot;&gt;0&lt;/span&gt;]&amp;nbsp;&lt;span style=&quot;color: #56b6c2&quot;&gt;===&lt;/span&gt;&amp;nbsp;&lt;span style=&quot;color: #98c379&quot;&gt;'&amp;lt;'&lt;/span&gt;)&amp;nbsp;{&lt;/div&gt;&lt;div&gt;&amp;nbsp;&amp;nbsp;&amp;nbsp;&amp;nbsp;&amp;nbsp;&amp;nbsp;&amp;nbsp;&amp;nbsp;&amp;nbsp;&amp;nbsp;&amp;nbsp;&amp;nbsp;&amp;nbsp;&amp;nbsp;&lt;span style=&quot;color: #5c6370 ; font-style: italic&quot;&gt;//&amp;nbsp;https://html.spec.whatwg.org/multipage/parsing.html#tag-open-state&lt;/span&gt;&lt;/div&gt;&lt;div&gt;&amp;nbsp;&amp;nbsp;&amp;nbsp;&amp;nbsp;&amp;nbsp;&amp;nbsp;&amp;nbsp;&amp;nbsp;&amp;nbsp;&amp;nbsp;&amp;nbsp;&amp;nbsp;&amp;nbsp;&amp;nbsp;&lt;span style=&quot;color: #c678dd&quot;&gt;if&lt;/span&gt;&amp;nbsp;(s.&lt;span style=&quot;color: #e06c75&quot;&gt;length&lt;/span&gt;&amp;nbsp;&lt;span style=&quot;color: #56b6c2&quot;&gt;===&lt;/span&gt;&amp;nbsp;&lt;span style=&quot;color: #d19a66&quot;&gt;1&lt;/span&gt;)&amp;nbsp;{&lt;/div&gt;&lt;div&gt;&amp;nbsp;&amp;nbsp;&amp;nbsp;&amp;nbsp;&amp;nbsp;&amp;nbsp;&amp;nbsp;&amp;nbsp;&amp;nbsp;&amp;nbsp;&amp;nbsp;&amp;nbsp;&amp;nbsp;&amp;nbsp;&amp;nbsp;&amp;nbsp;&amp;nbsp;&amp;nbsp;&lt;span style=&quot;color: #61afef&quot;&gt;emitError&lt;/span&gt;(context,&amp;nbsp;&lt;span style=&quot;color: #d19a66&quot;&gt;5&lt;/span&gt;&amp;nbsp;&lt;span style=&quot;color: #5c6370 ; font-style: italic&quot;&gt;/*&amp;nbsp;EOF_BEFORE_TAG_NAME&amp;nbsp;*/&lt;/span&gt;,&amp;nbsp;&lt;span style=&quot;color: #d19a66&quot;&gt;1&lt;/span&gt;);&lt;/div&gt;&lt;div&gt;&amp;nbsp;&amp;nbsp;&amp;nbsp;&amp;nbsp;&amp;nbsp;&amp;nbsp;&amp;nbsp;&amp;nbsp;&amp;nbsp;&amp;nbsp;&amp;nbsp;&amp;nbsp;&amp;nbsp;&amp;nbsp;}&lt;/div&gt;&lt;div&gt;&amp;nbsp;&amp;nbsp;&amp;nbsp;&amp;nbsp;&amp;nbsp;&amp;nbsp;&amp;nbsp;&amp;nbsp;&amp;nbsp;&amp;nbsp;&amp;nbsp;&amp;nbsp;&amp;nbsp;&amp;nbsp;&lt;span style=&quot;color: #c678dd&quot;&gt;else&lt;/span&gt;&amp;nbsp;&lt;span style=&quot;color: #c678dd&quot;&gt;if&lt;/span&gt;&amp;nbsp;(s[&lt;span style=&quot;color: #d19a66&quot;&gt;1&lt;/span&gt;]&amp;nbsp;&lt;span style=&quot;color: #56b6c2&quot;&gt;===&lt;/span&gt;&amp;nbsp;&lt;span style=&quot;color: #98c379&quot;&gt;'!'&lt;/span&gt;)&amp;nbsp;{&lt;/div&gt;&lt;div&gt;&amp;nbsp;&amp;nbsp;&amp;nbsp;&amp;nbsp;&amp;nbsp;&amp;nbsp;&amp;nbsp;&amp;nbsp;&amp;nbsp;&amp;nbsp;&amp;nbsp;&amp;nbsp;&amp;nbsp;&amp;nbsp;&amp;nbsp;&amp;nbsp;&amp;nbsp;&amp;nbsp;&lt;span style=&quot;color: #5c6370 ; font-style: italic&quot;&gt;//&amp;nbsp;https://html.spec.whatwg.org/multipage/parsing.html#markup-declaration-open-state&lt;/span&gt;&lt;/div&gt;&lt;div&gt;&amp;nbsp;&amp;nbsp;&amp;nbsp;&amp;nbsp;&amp;nbsp;&amp;nbsp;&amp;nbsp;&amp;nbsp;&amp;nbsp;&amp;nbsp;&amp;nbsp;&amp;nbsp;&amp;nbsp;&amp;nbsp;&amp;nbsp;&amp;nbsp;&amp;nbsp;&amp;nbsp;&lt;span style=&quot;color: #c678dd&quot;&gt;if&lt;/span&gt;&amp;nbsp;(&lt;span style=&quot;color: #61afef&quot;&gt;startsWith&lt;/span&gt;(s,&amp;nbsp;&lt;span style=&quot;color: #98c379&quot;&gt;'&amp;lt;!--'&lt;/span&gt;))&amp;nbsp;{&lt;/div&gt;&lt;div&gt;&amp;nbsp;&amp;nbsp;&amp;nbsp;&amp;nbsp;&amp;nbsp;&amp;nbsp;&amp;nbsp;&amp;nbsp;&amp;nbsp;&amp;nbsp;&amp;nbsp;&amp;nbsp;&amp;nbsp;&amp;nbsp;&amp;nbsp;&amp;nbsp;&amp;nbsp;&amp;nbsp;&amp;nbsp;&amp;nbsp;&amp;nbsp;&amp;nbsp;node&amp;nbsp;&lt;span style=&quot;color: #56b6c2&quot;&gt;=&lt;/span&gt;&amp;nbsp;&lt;span style=&quot;color: #61afef&quot;&gt;parseComment&lt;/span&gt;(context);&lt;/div&gt;&lt;div&gt;&amp;nbsp;&amp;nbsp;&amp;nbsp;&amp;nbsp;&amp;nbsp;&amp;nbsp;&amp;nbsp;&amp;nbsp;&amp;nbsp;&amp;nbsp;&amp;nbsp;&amp;nbsp;&amp;nbsp;&amp;nbsp;&amp;nbsp;&amp;nbsp;&amp;nbsp;&amp;nbsp;}&lt;/div&gt;&lt;div&gt;&amp;nbsp;&amp;nbsp;&amp;nbsp;&amp;nbsp;&amp;nbsp;&amp;nbsp;&amp;nbsp;&amp;nbsp;&amp;nbsp;&amp;nbsp;&amp;nbsp;&amp;nbsp;&amp;nbsp;&amp;nbsp;&amp;nbsp;&amp;nbsp;&amp;nbsp;&amp;nbsp;&lt;span style=&quot;color: #c678dd&quot;&gt;else&lt;/span&gt;&amp;nbsp;&lt;span style=&quot;color: #c678dd&quot;&gt;if&lt;/span&gt;&amp;nbsp;(&lt;span style=&quot;color: #61afef&quot;&gt;startsWith&lt;/span&gt;(s,&amp;nbsp;&lt;span style=&quot;color: #98c379&quot;&gt;'&amp;lt;!DOCTYPE'&lt;/span&gt;))&amp;nbsp;{&lt;/div&gt;&lt;div&gt;&amp;nbsp;&amp;nbsp;&amp;nbsp;&amp;nbsp;&amp;nbsp;&amp;nbsp;&amp;nbsp;&amp;nbsp;&amp;nbsp;&amp;nbsp;&amp;nbsp;&amp;nbsp;&amp;nbsp;&amp;nbsp;&amp;nbsp;&amp;nbsp;&amp;nbsp;&amp;nbsp;&amp;nbsp;&amp;nbsp;&amp;nbsp;&amp;nbsp;&lt;span style=&quot;color: #5c6370 ; font-style: italic&quot;&gt;//&amp;nbsp;Ignore&amp;nbsp;DOCTYPE&amp;nbsp;by&amp;nbsp;a&amp;nbsp;limitation.&lt;/span&gt;&lt;/div&gt;&lt;div&gt;&amp;nbsp;&amp;nbsp;&amp;nbsp;&amp;nbsp;&amp;nbsp;&amp;nbsp;&amp;nbsp;&amp;nbsp;&amp;nbsp;&amp;nbsp;&amp;nbsp;&amp;nbsp;&amp;nbsp;&amp;nbsp;&amp;nbsp;&amp;nbsp;&amp;nbsp;&amp;nbsp;&amp;nbsp;&amp;nbsp;&amp;nbsp;&amp;nbsp;node&amp;nbsp;&lt;span style=&quot;color: #56b6c2&quot;&gt;=&lt;/span&gt;&amp;nbsp;&lt;span style=&quot;color: #61afef&quot;&gt;parseBogusComment&lt;/span&gt;(context);&lt;/div&gt;&lt;div&gt;&amp;nbsp;&amp;nbsp;&amp;nbsp;&amp;nbsp;&amp;nbsp;&amp;nbsp;&amp;nbsp;&amp;nbsp;&amp;nbsp;&amp;nbsp;&amp;nbsp;&amp;nbsp;&amp;nbsp;&amp;nbsp;&amp;nbsp;&amp;nbsp;&amp;nbsp;&amp;nbsp;}&lt;/div&gt;&lt;div&gt;&amp;nbsp;&amp;nbsp;&amp;nbsp;&amp;nbsp;&amp;nbsp;&amp;nbsp;&amp;nbsp;&amp;nbsp;&amp;nbsp;&amp;nbsp;&amp;nbsp;&amp;nbsp;&amp;nbsp;&amp;nbsp;&amp;nbsp;&amp;nbsp;&amp;nbsp;&amp;nbsp;&lt;span style=&quot;color: #c678dd&quot;&gt;else&lt;/span&gt;&amp;nbsp;&lt;span style=&quot;color: #c678dd&quot;&gt;if&lt;/span&gt;&amp;nbsp;(&lt;span style=&quot;color: #61afef&quot;&gt;startsWith&lt;/span&gt;(s,&amp;nbsp;&lt;span style=&quot;color: #98c379&quot;&gt;'&amp;lt;![CDATA['&lt;/span&gt;))&amp;nbsp;{&lt;/div&gt;&lt;div&gt;&amp;nbsp;&amp;nbsp;&amp;nbsp;&amp;nbsp;&amp;nbsp;&amp;nbsp;&amp;nbsp;&amp;nbsp;&amp;nbsp;&amp;nbsp;&amp;nbsp;&amp;nbsp;&amp;nbsp;&amp;nbsp;&amp;nbsp;&amp;nbsp;&amp;nbsp;&amp;nbsp;&amp;nbsp;&amp;nbsp;&amp;nbsp;&amp;nbsp;&lt;span style=&quot;color: #c678dd&quot;&gt;if&lt;/span&gt;&amp;nbsp;(ns&amp;nbsp;&lt;span style=&quot;color: #56b6c2&quot;&gt;!==&lt;/span&gt;&amp;nbsp;&lt;span style=&quot;color: #d19a66&quot;&gt;0&lt;/span&gt;&amp;nbsp;&lt;span style=&quot;color: #5c6370 ; font-style: italic&quot;&gt;/*&amp;nbsp;HTML&amp;nbsp;*/&lt;/span&gt;)&amp;nbsp;{&lt;/div&gt;&lt;div&gt;&amp;nbsp;&amp;nbsp;&amp;nbsp;&amp;nbsp;&amp;nbsp;&amp;nbsp;&amp;nbsp;&amp;nbsp;&amp;nbsp;&amp;nbsp;&amp;nbsp;&amp;nbsp;&amp;nbsp;&amp;nbsp;&amp;nbsp;&amp;nbsp;&amp;nbsp;&amp;nbsp;&amp;nbsp;&amp;nbsp;&amp;nbsp;&amp;nbsp;&amp;nbsp;&amp;nbsp;&amp;nbsp;&amp;nbsp;node&amp;nbsp;&lt;span style=&quot;color: #56b6c2&quot;&gt;=&lt;/span&gt;&amp;nbsp;&lt;span style=&quot;color: #61afef&quot;&gt;parseCDATA&lt;/span&gt;(context,&amp;nbsp;ancestors);&lt;/div&gt;&lt;div&gt;&amp;nbsp;&amp;nbsp;&amp;nbsp;&amp;nbsp;&amp;nbsp;&amp;nbsp;&amp;nbsp;&amp;nbsp;&amp;nbsp;&amp;nbsp;&amp;nbsp;&amp;nbsp;&amp;nbsp;&amp;nbsp;&amp;nbsp;&amp;nbsp;&amp;nbsp;&amp;nbsp;&amp;nbsp;&amp;nbsp;&amp;nbsp;&amp;nbsp;}&lt;/div&gt;&lt;div&gt;&amp;nbsp;&amp;nbsp;&amp;nbsp;&amp;nbsp;&amp;nbsp;&amp;nbsp;&amp;nbsp;&amp;nbsp;&amp;nbsp;&amp;nbsp;&amp;nbsp;&amp;nbsp;&amp;nbsp;&amp;nbsp;&amp;nbsp;&amp;nbsp;&amp;nbsp;&amp;nbsp;&amp;nbsp;&amp;nbsp;&amp;nbsp;&amp;nbsp;&lt;span style=&quot;color: #c678dd&quot;&gt;else&lt;/span&gt;&amp;nbsp;{&lt;/div&gt;&lt;div&gt;&amp;nbsp;&amp;nbsp;&amp;nbsp;&amp;nbsp;&amp;nbsp;&amp;nbsp;&amp;nbsp;&amp;nbsp;&amp;nbsp;&amp;nbsp;&amp;nbsp;&amp;nbsp;&amp;nbsp;&amp;nbsp;&amp;nbsp;&amp;nbsp;&amp;nbsp;&amp;nbsp;&amp;nbsp;&amp;nbsp;&amp;nbsp;&amp;nbsp;&amp;nbsp;&amp;nbsp;&amp;nbsp;&amp;nbsp;&lt;span style=&quot;color: #61afef&quot;&gt;emitError&lt;/span&gt;(context,&amp;nbsp;&lt;span style=&quot;color: #d19a66&quot;&gt;1&lt;/span&gt;&amp;nbsp;&lt;span style=&quot;color: #5c6370 ; font-style: italic&quot;&gt;/*&amp;nbsp;CDATA_IN_HTML_CONTENT&amp;nbsp;*/&lt;/span&gt;);&lt;/div&gt;&lt;div&gt;&amp;nbsp;&amp;nbsp;&amp;nbsp;&amp;nbsp;&amp;nbsp;&amp;nbsp;&amp;nbsp;&amp;nbsp;&amp;nbsp;&amp;nbsp;&amp;nbsp;&amp;nbsp;&amp;nbsp;&amp;nbsp;&amp;nbsp;&amp;nbsp;&amp;nbsp;&amp;nbsp;&amp;nbsp;&amp;nbsp;&amp;nbsp;&amp;nbsp;&amp;nbsp;&amp;nbsp;&amp;nbsp;&amp;nbsp;node&amp;nbsp;&lt;span style=&quot;color: #56b6c2&quot;&gt;=&lt;/span&gt;&amp;nbsp;&lt;span style=&quot;color: #61afef&quot;&gt;parseBogusComment&lt;/span&gt;(context);&lt;/div&gt;&lt;div&gt;&amp;nbsp;&amp;nbsp;&amp;nbsp;&amp;nbsp;&amp;nbsp;&amp;nbsp;&amp;nbsp;&amp;nbsp;&amp;nbsp;&amp;nbsp;&amp;nbsp;&amp;nbsp;&amp;nbsp;&amp;nbsp;&amp;nbsp;&amp;nbsp;&amp;nbsp;&amp;nbsp;&amp;nbsp;&amp;nbsp;&amp;nbsp;&amp;nbsp;}&lt;/div&gt;&lt;div&gt;&amp;nbsp;&amp;nbsp;&amp;nbsp;&amp;nbsp;&amp;nbsp;&amp;nbsp;&amp;nbsp;&amp;nbsp;&amp;nbsp;&amp;nbsp;&amp;nbsp;&amp;nbsp;&amp;nbsp;&amp;nbsp;&amp;nbsp;&amp;nbsp;&amp;nbsp;&amp;nbsp;}&lt;/div&gt;&lt;div&gt;&amp;nbsp;&amp;nbsp;&amp;nbsp;&amp;nbsp;&amp;nbsp;&amp;nbsp;&amp;nbsp;&amp;nbsp;&amp;nbsp;&amp;nbsp;&amp;nbsp;&amp;nbsp;&amp;nbsp;&amp;nbsp;&amp;nbsp;&amp;nbsp;&amp;nbsp;&amp;nbsp;&lt;span style=&quot;color: #c678dd&quot;&gt;else&lt;/span&gt;&amp;nbsp;{&lt;/div&gt;&lt;div&gt;&amp;nbsp;&amp;nbsp;&amp;nbsp;&amp;nbsp;&amp;nbsp;&amp;nbsp;&amp;nbsp;&amp;nbsp;&amp;nbsp;&amp;nbsp;&amp;nbsp;&amp;nbsp;&amp;nbsp;&amp;nbsp;&amp;nbsp;&amp;nbsp;&amp;nbsp;&amp;nbsp;&amp;nbsp;&amp;nbsp;&amp;nbsp;&amp;nbsp;&lt;span style=&quot;color: #61afef&quot;&gt;emitError&lt;/span&gt;(context,&amp;nbsp;&lt;span style=&quot;color: #d19a66&quot;&gt;11&lt;/span&gt;&amp;nbsp;&lt;span style=&quot;color: #5c6370 ; font-style: italic&quot;&gt;/*&amp;nbsp;INCORRECTLY_OPENED_COMMENT&amp;nbsp;*/&lt;/span&gt;);&lt;/div&gt;&lt;div&gt;&amp;nbsp;&amp;nbsp;&amp;nbsp;&amp;nbsp;&amp;nbsp;&amp;nbsp;&amp;nbsp;&amp;nbsp;&amp;nbsp;&amp;nbsp;&amp;nbsp;&amp;nbsp;&amp;nbsp;&amp;nbsp;&amp;nbsp;&amp;nbsp;&amp;nbsp;&amp;nbsp;&amp;nbsp;&amp;nbsp;&amp;nbsp;&amp;nbsp;node&amp;nbsp;&lt;span style=&quot;color: #56b6c2&quot;&gt;=&lt;/span&gt;&amp;nbsp;&lt;span style=&quot;color: #61afef&quot;&gt;parseBogusComment&lt;/span&gt;(context);&lt;/div&gt;&lt;div&gt;&amp;nbsp;&amp;nbsp;&amp;nbsp;&amp;nbsp;&amp;nbsp;&amp;nbsp;&amp;nbsp;&amp;nbsp;&amp;nbsp;&amp;nbsp;&amp;nbsp;&amp;nbsp;&amp;nbsp;&amp;nbsp;&amp;nbsp;&amp;nbsp;&amp;nbsp;&amp;nbsp;}&lt;/div&gt;&lt;div&gt;&amp;nbsp;&amp;nbsp;&amp;nbsp;&amp;nbsp;&amp;nbsp;&amp;nbsp;&amp;nbsp;&amp;nbsp;&amp;nbsp;&amp;nbsp;&amp;nbsp;&amp;nbsp;&amp;nbsp;&amp;nbsp;}&lt;/div&gt;&lt;div&gt;&amp;nbsp;&amp;nbsp;&amp;nbsp;&amp;nbsp;&amp;nbsp;&amp;nbsp;&amp;nbsp;&amp;nbsp;&amp;nbsp;&amp;nbsp;&amp;nbsp;&amp;nbsp;&amp;nbsp;&amp;nbsp;&lt;span style=&quot;color: #c678dd&quot;&gt;else&lt;/span&gt;&amp;nbsp;&lt;span style=&quot;color: #c678dd&quot;&gt;if&lt;/span&gt;&amp;nbsp;(s[&lt;span style=&quot;color: #d19a66&quot;&gt;1&lt;/span&gt;]&amp;nbsp;&lt;span style=&quot;color: #56b6c2&quot;&gt;===&lt;/span&gt;&amp;nbsp;&lt;span style=&quot;color: #98c379&quot;&gt;'/'&lt;/span&gt;)&amp;nbsp;{&lt;/div&gt;&lt;div&gt;&amp;nbsp;&amp;nbsp;&amp;nbsp;&amp;nbsp;&amp;nbsp;&amp;nbsp;&amp;nbsp;&amp;nbsp;&amp;nbsp;&amp;nbsp;&amp;nbsp;&amp;nbsp;&amp;nbsp;&amp;nbsp;&amp;nbsp;&amp;nbsp;&amp;nbsp;&amp;nbsp;&lt;span style=&quot;color: #5c6370 ; font-style: italic&quot;&gt;//&amp;nbsp;https://html.spec.whatwg.org/multipage/parsing.html#end-tag-open-state&lt;/span&gt;&lt;/div&gt;&lt;div&gt;&amp;nbsp;&amp;nbsp;&amp;nbsp;&amp;nbsp;&amp;nbsp;&amp;nbsp;&amp;nbsp;&amp;nbsp;&amp;nbsp;&amp;nbsp;&amp;nbsp;&amp;nbsp;&amp;nbsp;&amp;nbsp;&amp;nbsp;&amp;nbsp;&amp;nbsp;&amp;nbsp;&lt;span style=&quot;color: #c678dd&quot;&gt;if&lt;/span&gt;&amp;nbsp;(s.&lt;span style=&quot;color: #e06c75&quot;&gt;length&lt;/span&gt;&amp;nbsp;&lt;span style=&quot;color: #56b6c2&quot;&gt;===&lt;/span&gt;&amp;nbsp;&lt;span style=&quot;color: #d19a66&quot;&gt;2&lt;/span&gt;)&amp;nbsp;{&lt;/div&gt;&lt;div&gt;&amp;nbsp;&amp;nbsp;&amp;nbsp;&amp;nbsp;&amp;nbsp;&amp;nbsp;&amp;nbsp;&amp;nbsp;&amp;nbsp;&amp;nbsp;&amp;nbsp;&amp;nbsp;&amp;nbsp;&amp;nbsp;&amp;nbsp;&amp;nbsp;&amp;nbsp;&amp;nbsp;&amp;nbsp;&amp;nbsp;&amp;nbsp;&amp;nbsp;&lt;span style=&quot;color: #61afef&quot;&gt;emitError&lt;/span&gt;(context,&amp;nbsp;&lt;span style=&quot;color: #d19a66&quot;&gt;5&lt;/span&gt;&amp;nbsp;&lt;span style=&quot;color: #5c6370 ; font-style: italic&quot;&gt;/*&amp;nbsp;EOF_BEFORE_TAG_NAME&amp;nbsp;*/&lt;/span&gt;,&amp;nbsp;&lt;span style=&quot;color: #d19a66&quot;&gt;2&lt;/span&gt;);&lt;/div&gt;&lt;div&gt;&amp;nbsp;&amp;nbsp;&amp;nbsp;&amp;nbsp;&amp;nbsp;&amp;nbsp;&amp;nbsp;&amp;nbsp;&amp;nbsp;&amp;nbsp;&amp;nbsp;&amp;nbsp;&amp;nbsp;&amp;nbsp;&amp;nbsp;&amp;nbsp;&amp;nbsp;&amp;nbsp;}&lt;/div&gt;&lt;div&gt;&amp;nbsp;&amp;nbsp;&amp;nbsp;&amp;nbsp;&amp;nbsp;&amp;nbsp;&amp;nbsp;&amp;nbsp;&amp;nbsp;&amp;nbsp;&amp;nbsp;&amp;nbsp;&amp;nbsp;&amp;nbsp;&amp;nbsp;&amp;nbsp;&amp;nbsp;&amp;nbsp;&lt;span style=&quot;color: #c678dd&quot;&gt;else&lt;/span&gt;&amp;nbsp;&lt;span style=&quot;color: #c678dd&quot;&gt;if&lt;/span&gt;&amp;nbsp;(s[&lt;span style=&quot;color: #d19a66&quot;&gt;2&lt;/span&gt;]&amp;nbsp;&lt;span style=&quot;color: #56b6c2&quot;&gt;===&lt;/span&gt;&amp;nbsp;&lt;span style=&quot;color: #98c379&quot;&gt;'&amp;gt;'&lt;/span&gt;)&amp;nbsp;{&lt;/div&gt;&lt;div&gt;&amp;nbsp;&amp;nbsp;&amp;nbsp;&amp;nbsp;&amp;nbsp;&amp;nbsp;&amp;nbsp;&amp;nbsp;&amp;nbsp;&amp;nbsp;&amp;nbsp;&amp;nbsp;&amp;nbsp;&amp;nbsp;&amp;nbsp;&amp;nbsp;&amp;nbsp;&amp;nbsp;&amp;nbsp;&amp;nbsp;&amp;nbsp;&amp;nbsp;&lt;span style=&quot;color: #61afef&quot;&gt;emitError&lt;/span&gt;(context,&amp;nbsp;&lt;span style=&quot;color: #d19a66&quot;&gt;14&lt;/span&gt;&amp;nbsp;&lt;span style=&quot;color: #5c6370 ; font-style: italic&quot;&gt;/*&amp;nbsp;MISSING_END_TAG_NAME&amp;nbsp;*/&lt;/span&gt;,&amp;nbsp;&lt;span style=&quot;color: #d19a66&quot;&gt;2&lt;/span&gt;);&lt;/div&gt;&lt;div&gt;&amp;nbsp;&amp;nbsp;&amp;nbsp;&amp;nbsp;&amp;nbsp;&amp;nbsp;&amp;nbsp;&amp;nbsp;&amp;nbsp;&amp;nbsp;&amp;nbsp;&amp;nbsp;&amp;nbsp;&amp;nbsp;&amp;nbsp;&amp;nbsp;&amp;nbsp;&amp;nbsp;&amp;nbsp;&amp;nbsp;&amp;nbsp;&amp;nbsp;&lt;span style=&quot;color: #61afef&quot;&gt;advanceBy&lt;/span&gt;(context,&amp;nbsp;&lt;span style=&quot;color: #d19a66&quot;&gt;3&lt;/span&gt;);&lt;/div&gt;&lt;div&gt;&amp;nbsp;&amp;nbsp;&amp;nbsp;&amp;nbsp;&amp;nbsp;&amp;nbsp;&amp;nbsp;&amp;nbsp;&amp;nbsp;&amp;nbsp;&amp;nbsp;&amp;nbsp;&amp;nbsp;&amp;nbsp;&amp;nbsp;&amp;nbsp;&amp;nbsp;&amp;nbsp;&amp;nbsp;&amp;nbsp;&amp;nbsp;&amp;nbsp;&lt;span style=&quot;color: #c678dd&quot;&gt;continue&lt;/span&gt;;&lt;/div&gt;&lt;div&gt;&amp;nbsp;&amp;nbsp;&amp;nbsp;&amp;nbsp;&amp;nbsp;&amp;nbsp;&amp;nbsp;&amp;nbsp;&amp;nbsp;&amp;nbsp;&amp;nbsp;&amp;nbsp;&amp;nbsp;&amp;nbsp;&amp;nbsp;&amp;nbsp;&amp;nbsp;&amp;nbsp;}&lt;/div&gt;&lt;div&gt;&amp;nbsp;&amp;nbsp;&amp;nbsp;&amp;nbsp;&amp;nbsp;&amp;nbsp;&amp;nbsp;&amp;nbsp;&amp;nbsp;&amp;nbsp;&amp;nbsp;&amp;nbsp;&amp;nbsp;&amp;nbsp;&amp;nbsp;&amp;nbsp;&amp;nbsp;&amp;nbsp;&lt;span style=&quot;color: #c678dd&quot;&gt;else&lt;/span&gt;&amp;nbsp;&lt;span style=&quot;color: #c678dd&quot;&gt;if&lt;/span&gt;&amp;nbsp;(&lt;span style=&quot;color: #56b6c2&quot;&gt;/&lt;/span&gt;&lt;span style=&quot;color: #d19a66&quot;&gt;[a-z]&lt;/span&gt;&lt;span style=&quot;color: #56b6c2&quot;&gt;/&lt;/span&gt;&lt;span style=&quot;color: #c678dd&quot;&gt;i&lt;/span&gt;.&lt;span style=&quot;color: #61afef&quot;&gt;test&lt;/span&gt;(s[&lt;span style=&quot;color: #d19a66&quot;&gt;2&lt;/span&gt;]))&amp;nbsp;{&lt;/div&gt;&lt;div&gt;&amp;nbsp;&amp;nbsp;&amp;nbsp;&amp;nbsp;&amp;nbsp;&amp;nbsp;&amp;nbsp;&amp;nbsp;&amp;nbsp;&amp;nbsp;&amp;nbsp;&amp;nbsp;&amp;nbsp;&amp;nbsp;&amp;nbsp;&amp;nbsp;&amp;nbsp;&amp;nbsp;&amp;nbsp;&amp;nbsp;&amp;nbsp;&amp;nbsp;&lt;span style=&quot;color: #61afef&quot;&gt;emitError&lt;/span&gt;(context,&amp;nbsp;&lt;span style=&quot;color: #d19a66&quot;&gt;23&lt;/span&gt;&amp;nbsp;&lt;span style=&quot;color: #5c6370 ; font-style: italic&quot;&gt;/*&amp;nbsp;X_INVALID_END_TAG&amp;nbsp;*/&lt;/span&gt;);&lt;/div&gt;&lt;div&gt;&amp;nbsp;&amp;nbsp;&amp;nbsp;&amp;nbsp;&amp;nbsp;&amp;nbsp;&amp;nbsp;&amp;nbsp;&amp;nbsp;&amp;nbsp;&amp;nbsp;&amp;nbsp;&amp;nbsp;&amp;nbsp;&amp;nbsp;&amp;nbsp;&amp;nbsp;&amp;nbsp;&amp;nbsp;&amp;nbsp;&amp;nbsp;&amp;nbsp;&lt;span style=&quot;color: #61afef&quot;&gt;parseTag&lt;/span&gt;(context,&amp;nbsp;&lt;span style=&quot;color: #d19a66&quot;&gt;1&lt;/span&gt;&amp;nbsp;&lt;span style=&quot;color: #5c6370 ; font-style: italic&quot;&gt;/*&amp;nbsp;End&amp;nbsp;*/&lt;/span&gt;,&amp;nbsp;parent);&lt;/div&gt;&lt;div&gt;&amp;nbsp;&amp;nbsp;&amp;nbsp;&amp;nbsp;&amp;nbsp;&amp;nbsp;&amp;nbsp;&amp;nbsp;&amp;nbsp;&amp;nbsp;&amp;nbsp;&amp;nbsp;&amp;nbsp;&amp;nbsp;&amp;nbsp;&amp;nbsp;&amp;nbsp;&amp;nbsp;&amp;nbsp;&amp;nbsp;&amp;nbsp;&amp;nbsp;&lt;span style=&quot;color: #c678dd&quot;&gt;continue&lt;/span&gt;;&lt;/div&gt;&lt;div&gt;&amp;nbsp;&amp;nbsp;&amp;nbsp;&amp;nbsp;&amp;nbsp;&amp;nbsp;&amp;nbsp;&amp;nbsp;&amp;nbsp;&amp;nbsp;&amp;nbsp;&amp;nbsp;&amp;nbsp;&amp;nbsp;&amp;nbsp;&amp;nbsp;&amp;nbsp;&amp;nbsp;}&lt;/div&gt;&lt;div&gt;&amp;nbsp;&amp;nbsp;&amp;nbsp;&amp;nbsp;&amp;nbsp;&amp;nbsp;&amp;nbsp;&amp;nbsp;&amp;nbsp;&amp;nbsp;&amp;nbsp;&amp;nbsp;&amp;nbsp;&amp;nbsp;&amp;nbsp;&amp;nbsp;&amp;nbsp;&amp;nbsp;&lt;span style=&quot;color: #c678dd&quot;&gt;else&lt;/span&gt;&amp;nbsp;{&lt;/div&gt;&lt;div&gt;&amp;nbsp;&amp;nbsp;&amp;nbsp;&amp;nbsp;&amp;nbsp;&amp;nbsp;&amp;nbsp;&amp;nbsp;&amp;nbsp;&amp;nbsp;&amp;nbsp;&amp;nbsp;&amp;nbsp;&amp;nbsp;&amp;nbsp;&amp;nbsp;&amp;nbsp;&amp;nbsp;&amp;nbsp;&amp;nbsp;&amp;nbsp;&amp;nbsp;&lt;span style=&quot;color: #61afef&quot;&gt;emitError&lt;/span&gt;(context,&amp;nbsp;&lt;span style=&quot;color: #d19a66&quot;&gt;12&lt;/span&gt;&amp;nbsp;&lt;span style=&quot;color: #5c6370 ; font-style: italic&quot;&gt;/*&amp;nbsp;INVALID_FIRST_CHARACTER_OF_TAG_NAME&amp;nbsp;*/&lt;/span&gt;,&amp;nbsp;&lt;span style=&quot;color: #d19a66&quot;&gt;2&lt;/span&gt;);&lt;/div&gt;&lt;div&gt;&amp;nbsp;&amp;nbsp;&amp;nbsp;&amp;nbsp;&amp;nbsp;&amp;nbsp;&amp;nbsp;&amp;nbsp;&amp;nbsp;&amp;nbsp;&amp;nbsp;&amp;nbsp;&amp;nbsp;&amp;nbsp;&amp;nbsp;&amp;nbsp;&amp;nbsp;&amp;nbsp;&amp;nbsp;&amp;nbsp;&amp;nbsp;&amp;nbsp;node&amp;nbsp;&lt;span style=&quot;color: #56b6c2&quot;&gt;=&lt;/span&gt;&amp;nbsp;&lt;span style=&quot;color: #61afef&quot;&gt;parseBogusComment&lt;/span&gt;(context);&lt;/div&gt;&lt;div&gt;&amp;nbsp;&amp;nbsp;&amp;nbsp;&amp;nbsp;&amp;nbsp;&amp;nbsp;&amp;nbsp;&amp;nbsp;&amp;nbsp;&amp;nbsp;&amp;nbsp;&amp;nbsp;&amp;nbsp;&amp;nbsp;&amp;nbsp;&amp;nbsp;&amp;nbsp;&amp;nbsp;}&lt;/div&gt;&lt;div&gt;&amp;nbsp;&amp;nbsp;&amp;nbsp;&amp;nbsp;&amp;nbsp;&amp;nbsp;&amp;nbsp;&amp;nbsp;&amp;nbsp;&amp;nbsp;&amp;nbsp;&amp;nbsp;&amp;nbsp;&amp;nbsp;}&lt;/div&gt;&lt;div&gt;&amp;nbsp;&amp;nbsp;&amp;nbsp;&amp;nbsp;&amp;nbsp;&amp;nbsp;&amp;nbsp;&amp;nbsp;&amp;nbsp;&amp;nbsp;&amp;nbsp;&amp;nbsp;&amp;nbsp;&amp;nbsp;&lt;span style=&quot;color: #c678dd&quot;&gt;else&lt;/span&gt;&amp;nbsp;&lt;span style=&quot;color: #c678dd&quot;&gt;if&lt;/span&gt;&amp;nbsp;(&lt;span style=&quot;color: #56b6c2&quot;&gt;/&lt;/span&gt;&lt;span style=&quot;color: #d19a66&quot;&gt;[a-z]&lt;/span&gt;&lt;span style=&quot;color: #56b6c2&quot;&gt;/&lt;/span&gt;&lt;span style=&quot;color: #c678dd&quot;&gt;i&lt;/span&gt;.&lt;span style=&quot;color: #61afef&quot;&gt;test&lt;/span&gt;(s[&lt;span style=&quot;color: #d19a66&quot;&gt;1&lt;/span&gt;]))&amp;nbsp;{&lt;/div&gt;&lt;div&gt;&amp;nbsp;&amp;nbsp;&amp;nbsp;&amp;nbsp;&amp;nbsp;&amp;nbsp;&amp;nbsp;&amp;nbsp;&amp;nbsp;&amp;nbsp;&amp;nbsp;&amp;nbsp;&amp;nbsp;&amp;nbsp;&amp;nbsp;&amp;nbsp;&amp;nbsp;&amp;nbsp;&lt;span style=&quot;color: #5c6370 ; font-style: italic&quot;&gt;//&amp;nbsp;解析&amp;nbsp;element,该函数会与parseChildren递归调用&lt;/span&gt;&lt;/div&gt;&lt;div&gt;&amp;nbsp;&amp;nbsp;&amp;nbsp;&amp;nbsp;&amp;nbsp;&amp;nbsp;&amp;nbsp;&amp;nbsp;&amp;nbsp;&amp;nbsp;&amp;nbsp;&amp;nbsp;&amp;nbsp;&amp;nbsp;&amp;nbsp;&amp;nbsp;&amp;nbsp;&amp;nbsp;node&amp;nbsp;&lt;span style=&quot;color: #56b6c2&quot;&gt;=&lt;/span&gt;&amp;nbsp;&lt;span style=&quot;color: #61afef&quot;&gt;parseElement&lt;/span&gt;(context,&amp;nbsp;ancestors);&lt;/div&gt;&lt;div&gt;&amp;nbsp;&amp;nbsp;&amp;nbsp;&amp;nbsp;&amp;nbsp;&amp;nbsp;&amp;nbsp;&amp;nbsp;&amp;nbsp;&amp;nbsp;&amp;nbsp;&amp;nbsp;&amp;nbsp;&amp;nbsp;}&lt;/div&gt;&lt;div&gt;&amp;nbsp;&amp;nbsp;&amp;nbsp;&amp;nbsp;&amp;nbsp;&amp;nbsp;&amp;nbsp;&amp;nbsp;&amp;nbsp;&amp;nbsp;&amp;nbsp;&amp;nbsp;&amp;nbsp;&amp;nbsp;&lt;span style=&quot;color: #c678dd&quot;&gt;else&lt;/span&gt;&amp;nbsp;&lt;span style=&quot;color: #c678dd&quot;&gt;if&lt;/span&gt;&amp;nbsp;(s[&lt;span style=&quot;color: #d19a66&quot;&gt;1&lt;/span&gt;]&amp;nbsp;&lt;span style=&quot;color: #56b6c2&quot;&gt;===&lt;/span&gt;&amp;nbsp;&lt;span style=&quot;color: #98c379&quot;&gt;'?'&lt;/span&gt;)&amp;nbsp;{&lt;/div&gt;&lt;div&gt;&amp;nbsp;&amp;nbsp;&amp;nbsp;&amp;nbsp;&amp;nbsp;&amp;nbsp;&amp;nbsp;&amp;nbsp;&amp;nbsp;&amp;nbsp;&amp;nbsp;&amp;nbsp;&amp;nbsp;&amp;nbsp;&amp;nbsp;&amp;nbsp;&amp;nbsp;&amp;nbsp;&lt;span style=&quot;color: #61afef&quot;&gt;emitError&lt;/span&gt;(context,&amp;nbsp;&lt;span style=&quot;color: #d19a66&quot;&gt;21&lt;/span&gt;&amp;nbsp;&lt;span style=&quot;color: #5c6370 ; font-style: italic&quot;&gt;/*&amp;nbsp;UNEXPECTED_QUESTION_MARK_INSTEAD_OF_TAG_NAME&amp;nbsp;*/&lt;/span&gt;,&amp;nbsp;&lt;span style=&quot;color: #d19a66&quot;&gt;1&lt;/span&gt;);&lt;/div&gt;&lt;div&gt;&amp;nbsp;&amp;nbsp;&amp;nbsp;&amp;nbsp;&amp;nbsp;&amp;nbsp;&amp;nbsp;&amp;nbsp;&amp;nbsp;&amp;nbsp;&amp;nbsp;&amp;nbsp;&amp;nbsp;&amp;nbsp;&amp;nbsp;&amp;nbsp;&amp;nbsp;&amp;nbsp;node&amp;nbsp;&lt;span style=&quot;color: #56b6c2&quot;&gt;=&lt;/span&gt;&amp;nbsp;&lt;span style=&quot;color: #61afef&quot;&gt;parseBogusComment&lt;/span&gt;(context);&lt;/div&gt;&lt;div&gt;&amp;nbsp;&amp;nbsp;&amp;nbsp;&amp;nbsp;&amp;nbsp;&amp;nbsp;&amp;nbsp;&amp;nbsp;&amp;nbsp;&amp;nbsp;&amp;nbsp;&amp;nbsp;&amp;nbsp;&amp;nbsp;}&lt;/div&gt;&lt;div&gt;&amp;nbsp;&amp;nbsp;&amp;nbsp;&amp;nbsp;&amp;nbsp;&amp;nbsp;&amp;nbsp;&amp;nbsp;&amp;nbsp;&amp;nbsp;&amp;nbsp;&amp;nbsp;&amp;nbsp;&amp;nbsp;&lt;span style=&quot;color: #c678dd&quot;&gt;else&lt;/span&gt;&amp;nbsp;{&lt;/div&gt;&lt;div&gt;&amp;nbsp;&amp;nbsp;&amp;nbsp;&amp;nbsp;&amp;nbsp;&amp;nbsp;&amp;nbsp;&amp;nbsp;&amp;nbsp;&amp;nbsp;&amp;nbsp;&amp;nbsp;&amp;nbsp;&amp;nbsp;&amp;nbsp;&amp;nbsp;&amp;nbsp;&amp;nbsp;&lt;span style=&quot;color: #61afef&quot;&gt;emitError&lt;/span&gt;(context,&amp;nbsp;&lt;span style=&quot;color: #d19a66&quot;&gt;12&lt;/span&gt;&amp;nbsp;&lt;span style=&quot;color: #5c6370 ; font-style: italic&quot;&gt;/*&amp;nbsp;INVALID_FIRST_CHARACTER_OF_TAG_NAME&amp;nbsp;*/&lt;/span&gt;,&amp;nbsp;&lt;span style=&quot;color: #d19a66&quot;&gt;1&lt;/span&gt;);&lt;/div&gt;&lt;div&gt;&amp;nbsp;&amp;nbsp;&amp;nbsp;&amp;nbsp;&amp;nbsp;&amp;nbsp;&amp;nbsp;&amp;nbsp;&amp;nbsp;&amp;nbsp;&amp;nbsp;&amp;nbsp;&amp;nbsp;&amp;nbsp;}&lt;/div&gt;&lt;div&gt;&amp;nbsp;&amp;nbsp;&amp;nbsp;&amp;nbsp;&amp;nbsp;&amp;nbsp;&amp;nbsp;&amp;nbsp;&amp;nbsp;&amp;nbsp;}&lt;/div&gt;&lt;div&gt;&amp;nbsp;&amp;nbsp;&amp;nbsp;&amp;nbsp;&amp;nbsp;&amp;nbsp;}&lt;/div&gt;&lt;div&gt;&amp;nbsp;&amp;nbsp;&amp;nbsp;&amp;nbsp;&amp;nbsp;&amp;nbsp;&lt;span style=&quot;color: #c678dd&quot;&gt;if&lt;/span&gt;&amp;nbsp;(&lt;span style=&quot;color: #56b6c2&quot;&gt;!&lt;/span&gt;node)&amp;nbsp;{&lt;/div&gt;&lt;div&gt;&amp;nbsp;&amp;nbsp;&amp;nbsp;&amp;nbsp;&amp;nbsp;&amp;nbsp;&amp;nbsp;&amp;nbsp;&amp;nbsp;&amp;nbsp;node&amp;nbsp;&lt;span style=&quot;color: #56b6c2&quot;&gt;=&lt;/span&gt;&amp;nbsp;&lt;span style=&quot;color: #61afef&quot;&gt;parseText&lt;/span&gt;(context,&amp;nbsp;mode);&lt;/div&gt;&lt;div&gt;&amp;nbsp;&amp;nbsp;&amp;nbsp;&amp;nbsp;&amp;nbsp;&amp;nbsp;}&lt;/div&gt;&lt;div&gt;&amp;nbsp;&amp;nbsp;&amp;nbsp;&amp;nbsp;&amp;nbsp;&amp;nbsp;&lt;span style=&quot;color: #c678dd&quot;&gt;if&lt;/span&gt;&amp;nbsp;(shared.&lt;span style=&quot;color: #61afef&quot;&gt;isArray&lt;/span&gt;(node))&amp;nbsp;{&lt;/div&gt;&lt;div&gt;&amp;nbsp;&amp;nbsp;&amp;nbsp;&amp;nbsp;&amp;nbsp;&amp;nbsp;&amp;nbsp;&amp;nbsp;&amp;nbsp;&amp;nbsp;&lt;span style=&quot;color: #c678dd&quot;&gt;for&lt;/span&gt;&amp;nbsp;(&lt;span style=&quot;color: #c678dd&quot;&gt;let&lt;/span&gt;&amp;nbsp;i&amp;nbsp;&lt;span style=&quot;color: #56b6c2&quot;&gt;=&lt;/span&gt;&amp;nbsp;&lt;span style=&quot;color: #d19a66&quot;&gt;0&lt;/span&gt;;&amp;nbsp;i&amp;nbsp;&lt;span style=&quot;color: #56b6c2&quot;&gt;&amp;lt;&lt;/span&gt;&amp;nbsp;node.&lt;span style=&quot;color: #e06c75&quot;&gt;length&lt;/span&gt;;&amp;nbsp;i&lt;span style=&quot;color: #56b6c2&quot;&gt;++&lt;/span&gt;)&amp;nbsp;{&lt;/div&gt;&lt;div&gt;&amp;nbsp;&amp;nbsp;&amp;nbsp;&amp;nbsp;&amp;nbsp;&amp;nbsp;&amp;nbsp;&amp;nbsp;&amp;nbsp;&amp;nbsp;&amp;nbsp;&amp;nbsp;&amp;nbsp;&amp;nbsp;&lt;span style=&quot;color: #61afef&quot;&gt;pushNode&lt;/span&gt;(nodes,&amp;nbsp;node[i]);&lt;/div&gt;&lt;div&gt;&amp;nbsp;&amp;nbsp;&amp;nbsp;&amp;nbsp;&amp;nbsp;&amp;nbsp;&amp;nbsp;&amp;nbsp;&amp;nbsp;&amp;nbsp;}&lt;/div&gt;&lt;div&gt;&amp;nbsp;&amp;nbsp;&amp;nbsp;&amp;nbsp;&amp;nbsp;&amp;nbsp;}&lt;/div&gt;&lt;div&gt;&amp;nbsp;&amp;nbsp;&amp;nbsp;&amp;nbsp;&amp;nbsp;&amp;nbsp;&lt;span style=&quot;color: #c678dd&quot;&gt;else&lt;/span&gt;&amp;nbsp;{&lt;/div&gt;&lt;div&gt;&amp;nbsp;&amp;nbsp;&amp;nbsp;&amp;nbsp;&amp;nbsp;&amp;nbsp;&amp;nbsp;&amp;nbsp;&amp;nbsp;&amp;nbsp;&lt;span style=&quot;color: #61afef&quot;&gt;pushNode&lt;/span&gt;(nodes,&amp;nbsp;node);&lt;/div&gt;&lt;div&gt;&amp;nbsp;&amp;nbsp;&amp;nbsp;&amp;nbsp;&amp;nbsp;&amp;nbsp;}&lt;/div&gt;&lt;div&gt;&amp;nbsp;&amp;nbsp;}&lt;/div&gt;&lt;br&gt;&lt;div&gt;&amp;nbsp;&amp;nbsp;&lt;span style=&quot;color: #c678dd&quot;&gt;return&lt;/span&gt;&amp;nbsp;removedWhitespace&amp;nbsp;&lt;span style=&quot;color: #56b6c2&quot;&gt;?&lt;/span&gt;&amp;nbsp;nodes.&lt;span style=&quot;color: #61afef&quot;&gt;filter&lt;/span&gt;(&lt;span style=&quot;color: #e5c07b&quot;&gt;Boolean&lt;/span&gt;)&amp;nbsp;&lt;span style=&quot;color: #56b6c2&quot;&gt;:&lt;/span&gt;&amp;nbsp;nodes;&lt;/div&gt;&lt;div&gt;}&lt;/div&gt;&lt;br&gt;&lt;br&gt;&lt;/div&gt;&lt;/div&gt;" style="rounded=1;whiteSpace=wrap;html=1;align=left;" vertex="1" parent="1">
                    <mxGeometry x="5520" y="480.63" width="800" height="1948.75" as="geometry"/>
                </mxCell>
                <mxCell id="41" style="edgeStyle=orthogonalEdgeStyle;rounded=0;orthogonalLoop=1;jettySize=auto;html=1;" edge="1" parent="1" source="38" target="40">
                    <mxGeometry relative="1" as="geometry"/>
                </mxCell>
                <mxCell id="42" style="edgeStyle=orthogonalEdgeStyle;rounded=0;orthogonalLoop=1;jettySize=auto;html=1;entryX=1;entryY=0.5;entryDx=0;entryDy=0;" edge="1" parent="1" source="38" target="35">
                    <mxGeometry relative="1" as="geometry"/>
                </mxCell>
                <mxCell id="38" value="&#10;&#10;&lt;div style=&quot;color: rgb(171, 178, 191); background-color: rgb(40, 44, 52); font-family: consolas, &amp;quot;courier new&amp;quot;, monospace; font-weight: normal; font-size: 14px; line-height: 19px;&quot;&gt;&lt;div&gt;&lt;span style=&quot;color: #c678dd&quot;&gt;function&lt;/span&gt;&lt;span style=&quot;color: #abb2bf&quot;&gt;&amp;nbsp;&lt;/span&gt;&lt;span style=&quot;color: #61afef&quot;&gt;parseElement&lt;/span&gt;&lt;span style=&quot;color: #abb2bf&quot;&gt;(context,&amp;nbsp;ancestors)&amp;nbsp;{&lt;/span&gt;&lt;/div&gt;&lt;div&gt;&lt;span style=&quot;color: #abb2bf&quot;&gt;&amp;nbsp;&amp;nbsp;&lt;/span&gt;&lt;span style=&quot;color: #5c6370 ; font-style: italic&quot;&gt;//&amp;nbsp;Start&amp;nbsp;tag.&lt;/span&gt;&lt;/div&gt;&lt;div&gt;&lt;span style=&quot;color: #abb2bf&quot;&gt;&amp;nbsp;&amp;nbsp;&lt;/span&gt;&lt;span style=&quot;color: #c678dd&quot;&gt;const&lt;/span&gt;&lt;span style=&quot;color: #abb2bf&quot;&gt;&amp;nbsp;&lt;/span&gt;&lt;span style=&quot;color: #d19a66&quot;&gt;wasInPre&lt;/span&gt;&lt;span style=&quot;color: #abb2bf&quot;&gt;&amp;nbsp;&lt;/span&gt;&lt;span style=&quot;color: #56b6c2&quot;&gt;=&lt;/span&gt;&lt;span style=&quot;color: #abb2bf&quot;&gt;&amp;nbsp;context.&lt;/span&gt;&lt;span style=&quot;color: #e06c75&quot;&gt;inPre&lt;/span&gt;&lt;span style=&quot;color: #abb2bf&quot;&gt;;&lt;/span&gt;&lt;/div&gt;&lt;div&gt;&lt;span style=&quot;color: #abb2bf&quot;&gt;&amp;nbsp;&amp;nbsp;&lt;/span&gt;&lt;span style=&quot;color: #c678dd&quot;&gt;const&lt;/span&gt;&lt;span style=&quot;color: #abb2bf&quot;&gt;&amp;nbsp;&lt;/span&gt;&lt;span style=&quot;color: #d19a66&quot;&gt;wasInVPre&lt;/span&gt;&lt;span style=&quot;color: #abb2bf&quot;&gt;&amp;nbsp;&lt;/span&gt;&lt;span style=&quot;color: #56b6c2&quot;&gt;=&lt;/span&gt;&lt;span style=&quot;color: #abb2bf&quot;&gt;&amp;nbsp;context.&lt;/span&gt;&lt;span style=&quot;color: #e06c75&quot;&gt;inVPre&lt;/span&gt;&lt;span style=&quot;color: #abb2bf&quot;&gt;;&lt;/span&gt;&lt;/div&gt;&lt;div&gt;&lt;span style=&quot;color: #abb2bf&quot;&gt;&amp;nbsp;&amp;nbsp;&lt;/span&gt;&lt;span style=&quot;color: #c678dd&quot;&gt;const&lt;/span&gt;&lt;span style=&quot;color: #abb2bf&quot;&gt;&amp;nbsp;&lt;/span&gt;&lt;span style=&quot;color: #d19a66&quot;&gt;parent&lt;/span&gt;&lt;span style=&quot;color: #abb2bf&quot;&gt;&amp;nbsp;&lt;/span&gt;&lt;span style=&quot;color: #56b6c2&quot;&gt;=&lt;/span&gt;&lt;span style=&quot;color: #abb2bf&quot;&gt;&amp;nbsp;&lt;/span&gt;&lt;span style=&quot;color: #61afef&quot;&gt;last&lt;/span&gt;&lt;span style=&quot;color: #abb2bf&quot;&gt;(ancestors);&lt;/span&gt;&lt;/div&gt;&lt;div&gt;&lt;span style=&quot;color: #abb2bf&quot;&gt;&amp;nbsp;&amp;nbsp;&lt;/span&gt;&lt;span style=&quot;color: #5c6370 ; font-style: italic&quot;&gt;//&amp;nbsp;tag&amp;nbsp;对象&lt;/span&gt;&lt;/div&gt;&lt;div&gt;&lt;span style=&quot;color: #abb2bf&quot;&gt;&amp;nbsp;&amp;nbsp;&lt;/span&gt;&lt;span style=&quot;color: #5c6370 ; font-style: italic&quot;&gt;/**&lt;/span&gt;&lt;/div&gt;&lt;div&gt;&lt;span style=&quot;color: #5c6370 ; font-style: italic&quot;&gt;&amp;nbsp;&amp;nbsp;&amp;nbsp;*&amp;nbsp;return&amp;nbsp;{&lt;/span&gt;&lt;/div&gt;&lt;div&gt;&lt;span style=&quot;color: #5c6370 ; font-style: italic&quot;&gt;&amp;nbsp;&amp;nbsp;&amp;nbsp;&amp;nbsp;&amp;nbsp;&amp;nbsp;&amp;nbsp;&amp;nbsp;type:&amp;nbsp;&lt;/span&gt;&lt;/div&gt;&lt;div&gt;&lt;span style=&quot;color: #5c6370 ; font-style: italic&quot;&gt;&amp;nbsp;&amp;nbsp;&amp;nbsp;&amp;nbsp;&amp;nbsp;&amp;nbsp;&amp;nbsp;&amp;nbsp;ns,&lt;/span&gt;&lt;/div&gt;&lt;div&gt;&lt;span style=&quot;color: #5c6370 ; font-style: italic&quot;&gt;&amp;nbsp;&amp;nbsp;&amp;nbsp;&amp;nbsp;&amp;nbsp;&amp;nbsp;&amp;nbsp;&amp;nbsp;tag,&lt;/span&gt;&lt;/div&gt;&lt;div&gt;&lt;span style=&quot;color: #5c6370 ; font-style: italic&quot;&gt;&amp;nbsp;&amp;nbsp;&amp;nbsp;&amp;nbsp;&amp;nbsp;&amp;nbsp;&amp;nbsp;&amp;nbsp;tagType,&lt;/span&gt;&lt;/div&gt;&lt;div&gt;&lt;span style=&quot;color: #5c6370 ; font-style: italic&quot;&gt;&amp;nbsp;&amp;nbsp;&amp;nbsp;&amp;nbsp;&amp;nbsp;&amp;nbsp;&amp;nbsp;&amp;nbsp;props,&lt;/span&gt;&lt;/div&gt;&lt;div&gt;&lt;span style=&quot;color: #5c6370 ; font-style: italic&quot;&gt;&amp;nbsp;&amp;nbsp;&amp;nbsp;&amp;nbsp;&amp;nbsp;&amp;nbsp;&amp;nbsp;&amp;nbsp;isSelfClosing,&lt;/span&gt;&lt;/div&gt;&lt;div&gt;&lt;span style=&quot;color: #5c6370 ; font-style: italic&quot;&gt;&amp;nbsp;&amp;nbsp;&amp;nbsp;&amp;nbsp;&amp;nbsp;&amp;nbsp;&amp;nbsp;&amp;nbsp;children:&amp;nbsp;[],&lt;/span&gt;&lt;/div&gt;&lt;div&gt;&lt;span style=&quot;color: #5c6370 ; font-style: italic&quot;&gt;&amp;nbsp;&amp;nbsp;&amp;nbsp;&amp;nbsp;&amp;nbsp;&amp;nbsp;&amp;nbsp;&amp;nbsp;loc:&amp;nbsp;getSelection(context,&amp;nbsp;start),&lt;/span&gt;&lt;/div&gt;&lt;div&gt;&lt;span style=&quot;color: #5c6370 ; font-style: italic&quot;&gt;&amp;nbsp;&amp;nbsp;&amp;nbsp;&amp;nbsp;&amp;nbsp;&amp;nbsp;&amp;nbsp;&amp;nbsp;codegenNode:&amp;nbsp;undefined&amp;nbsp;//&amp;nbsp;to&amp;nbsp;be&amp;nbsp;created&amp;nbsp;during&amp;nbsp;transform&amp;nbsp;phase&lt;/span&gt;&lt;/div&gt;&lt;div&gt;&lt;span style=&quot;color: #5c6370 ; font-style: italic&quot;&gt;&amp;nbsp;&amp;nbsp;&amp;nbsp;&amp;nbsp;};&lt;/span&gt;&lt;/div&gt;&lt;div&gt;&lt;span style=&quot;color: #5c6370 ; font-style: italic&quot;&gt;&amp;nbsp;&amp;nbsp;&amp;nbsp;*/&lt;/span&gt;&lt;/div&gt;&lt;div&gt;&lt;span style=&quot;color: #abb2bf&quot;&gt;&amp;nbsp;&amp;nbsp;&lt;/span&gt;&lt;span style=&quot;color: #c678dd&quot;&gt;const&lt;/span&gt;&lt;span style=&quot;color: #abb2bf&quot;&gt;&amp;nbsp;&lt;/span&gt;&lt;span style=&quot;color: #d19a66&quot;&gt;element&lt;/span&gt;&lt;span style=&quot;color: #abb2bf&quot;&gt;&amp;nbsp;&lt;/span&gt;&lt;span style=&quot;color: #56b6c2&quot;&gt;=&lt;/span&gt;&lt;span style=&quot;color: #abb2bf&quot;&gt;&amp;nbsp;&lt;/span&gt;&lt;span style=&quot;color: #61afef&quot;&gt;parseTag&lt;/span&gt;&lt;span style=&quot;color: #abb2bf&quot;&gt;(context,&amp;nbsp;&lt;/span&gt;&lt;span style=&quot;color: #d19a66&quot;&gt;0&lt;/span&gt;&lt;span style=&quot;color: #abb2bf&quot;&gt;&amp;nbsp;&lt;/span&gt;&lt;span style=&quot;color: #5c6370 ; font-style: italic&quot;&gt;/*&amp;nbsp;Start&amp;nbsp;*/&lt;/span&gt;&lt;span style=&quot;color: #abb2bf&quot;&gt;,&amp;nbsp;parent);&lt;/span&gt;&lt;/div&gt;&lt;div&gt;&lt;span style=&quot;color: #abb2bf&quot;&gt;&amp;nbsp;&amp;nbsp;&lt;/span&gt;&lt;span style=&quot;color: #c678dd&quot;&gt;const&lt;/span&gt;&lt;span style=&quot;color: #abb2bf&quot;&gt;&amp;nbsp;&lt;/span&gt;&lt;span style=&quot;color: #d19a66&quot;&gt;isPreBoundary&lt;/span&gt;&lt;span style=&quot;color: #abb2bf&quot;&gt;&amp;nbsp;&lt;/span&gt;&lt;span style=&quot;color: #56b6c2&quot;&gt;=&lt;/span&gt;&lt;span style=&quot;color: #abb2bf&quot;&gt;&amp;nbsp;context.&lt;/span&gt;&lt;span style=&quot;color: #e06c75&quot;&gt;inPre&lt;/span&gt;&lt;span style=&quot;color: #abb2bf&quot;&gt;&amp;nbsp;&lt;/span&gt;&lt;span style=&quot;color: #56b6c2&quot;&gt;&amp;amp;&amp;amp;&lt;/span&gt;&lt;span style=&quot;color: #abb2bf&quot;&gt;&amp;nbsp;&lt;/span&gt;&lt;span style=&quot;color: #56b6c2&quot;&gt;!&lt;/span&gt;&lt;span style=&quot;color: #abb2bf&quot;&gt;wasInPre;&lt;/span&gt;&lt;/div&gt;&lt;div&gt;&lt;span style=&quot;color: #abb2bf&quot;&gt;&amp;nbsp;&amp;nbsp;&lt;/span&gt;&lt;span style=&quot;color: #c678dd&quot;&gt;const&lt;/span&gt;&lt;span style=&quot;color: #abb2bf&quot;&gt;&amp;nbsp;&lt;/span&gt;&lt;span style=&quot;color: #d19a66&quot;&gt;isVPreBoundary&lt;/span&gt;&lt;span style=&quot;color: #abb2bf&quot;&gt;&amp;nbsp;&lt;/span&gt;&lt;span style=&quot;color: #56b6c2&quot;&gt;=&lt;/span&gt;&lt;span style=&quot;color: #abb2bf&quot;&gt;&amp;nbsp;context.&lt;/span&gt;&lt;span style=&quot;color: #e06c75&quot;&gt;inVPre&lt;/span&gt;&lt;span style=&quot;color: #abb2bf&quot;&gt;&amp;nbsp;&lt;/span&gt;&lt;span style=&quot;color: #56b6c2&quot;&gt;&amp;amp;&amp;amp;&lt;/span&gt;&lt;span style=&quot;color: #abb2bf&quot;&gt;&amp;nbsp;&lt;/span&gt;&lt;span style=&quot;color: #56b6c2&quot;&gt;!&lt;/span&gt;&lt;span style=&quot;color: #abb2bf&quot;&gt;wasInVPre;&lt;/span&gt;&lt;/div&gt;&lt;div&gt;&lt;span style=&quot;color: #abb2bf&quot;&gt;&amp;nbsp;&amp;nbsp;&lt;/span&gt;&lt;span style=&quot;color: #c678dd&quot;&gt;if&lt;/span&gt;&lt;span style=&quot;color: #abb2bf&quot;&gt;&amp;nbsp;(element.&lt;/span&gt;&lt;span style=&quot;color: #e06c75&quot;&gt;isSelfClosing&lt;/span&gt;&lt;span style=&quot;color: #abb2bf&quot;&gt;&amp;nbsp;&lt;/span&gt;&lt;span style=&quot;color: #56b6c2&quot;&gt;||&lt;/span&gt;&lt;span style=&quot;color: #abb2bf&quot;&gt;&amp;nbsp;context.&lt;/span&gt;&lt;span style=&quot;color: #e06c75&quot;&gt;options&lt;/span&gt;&lt;span style=&quot;color: #abb2bf&quot;&gt;.&lt;/span&gt;&lt;span style=&quot;color: #61afef&quot;&gt;isVoidTag&lt;/span&gt;&lt;span style=&quot;color: #abb2bf&quot;&gt;(element.&lt;/span&gt;&lt;span style=&quot;color: #e06c75&quot;&gt;tag&lt;/span&gt;&lt;span style=&quot;color: #abb2bf&quot;&gt;))&amp;nbsp;{&lt;/span&gt;&lt;/div&gt;&lt;div&gt;&lt;span style=&quot;color: #abb2bf&quot;&gt;&amp;nbsp;&amp;nbsp;&amp;nbsp;&amp;nbsp;&amp;nbsp;&amp;nbsp;&lt;/span&gt;&lt;span style=&quot;color: #c678dd&quot;&gt;return&lt;/span&gt;&lt;span style=&quot;color: #abb2bf&quot;&gt;&amp;nbsp;element;&lt;/span&gt;&lt;/div&gt;&lt;div&gt;&lt;span style=&quot;color: #abb2bf&quot;&gt;&amp;nbsp;&amp;nbsp;}&lt;/span&gt;&lt;/div&gt;&lt;div&gt;&lt;span style=&quot;color: #abb2bf&quot;&gt;&amp;nbsp;&amp;nbsp;&lt;/span&gt;&lt;span style=&quot;color: #5c6370 ; font-style: italic&quot;&gt;//&amp;nbsp;Children.&lt;/span&gt;&lt;/div&gt;&lt;div&gt;&lt;span style=&quot;color: #abb2bf&quot;&gt;&amp;nbsp;&amp;nbsp;ancestors.&lt;/span&gt;&lt;span style=&quot;color: #61afef&quot;&gt;push&lt;/span&gt;&lt;span style=&quot;color: #abb2bf&quot;&gt;(element);&lt;/span&gt;&lt;/div&gt;&lt;div&gt;&lt;span style=&quot;color: #abb2bf&quot;&gt;&amp;nbsp;&amp;nbsp;&lt;/span&gt;&lt;span style=&quot;color: #c678dd&quot;&gt;const&lt;/span&gt;&lt;span style=&quot;color: #abb2bf&quot;&gt;&amp;nbsp;&lt;/span&gt;&lt;span style=&quot;color: #d19a66&quot;&gt;mode&lt;/span&gt;&lt;span style=&quot;color: #abb2bf&quot;&gt;&amp;nbsp;&lt;/span&gt;&lt;span style=&quot;color: #56b6c2&quot;&gt;=&lt;/span&gt;&lt;span style=&quot;color: #abb2bf&quot;&gt;&amp;nbsp;context.&lt;/span&gt;&lt;span style=&quot;color: #e06c75&quot;&gt;options&lt;/span&gt;&lt;span style=&quot;color: #abb2bf&quot;&gt;.&lt;/span&gt;&lt;span style=&quot;color: #61afef&quot;&gt;getTextMode&lt;/span&gt;&lt;span style=&quot;color: #abb2bf&quot;&gt;(element,&amp;nbsp;parent);&lt;/span&gt;&lt;/div&gt;&lt;div&gt;&lt;span style=&quot;color: #abb2bf&quot;&gt;&amp;nbsp;&amp;nbsp;&lt;/span&gt;&lt;span style=&quot;color: #c678dd&quot;&gt;const&lt;/span&gt;&lt;span style=&quot;color: #abb2bf&quot;&gt;&amp;nbsp;&lt;/span&gt;&lt;span style=&quot;color: #d19a66&quot;&gt;children&lt;/span&gt;&lt;span style=&quot;color: #abb2bf&quot;&gt;&amp;nbsp;&lt;/span&gt;&lt;span style=&quot;color: #56b6c2&quot;&gt;=&lt;/span&gt;&lt;span style=&quot;color: #abb2bf&quot;&gt;&amp;nbsp;&lt;/span&gt;&lt;span style=&quot;color: #61afef&quot;&gt;parseChildren&lt;/span&gt;&lt;span style=&quot;color: #abb2bf&quot;&gt;(context,&amp;nbsp;mode,&amp;nbsp;ancestors);&lt;/span&gt;&lt;/div&gt;&lt;div&gt;&lt;span style=&quot;color: #abb2bf&quot;&gt;&amp;nbsp;&amp;nbsp;ancestors.&lt;/span&gt;&lt;span style=&quot;color: #61afef&quot;&gt;pop&lt;/span&gt;&lt;span style=&quot;color: #abb2bf&quot;&gt;();&lt;/span&gt;&lt;/div&gt;&lt;div&gt;&lt;span style=&quot;color: #abb2bf&quot;&gt;&amp;nbsp;&amp;nbsp;element.&lt;/span&gt;&lt;span style=&quot;color: #e06c75&quot;&gt;children&lt;/span&gt;&lt;span style=&quot;color: #abb2bf&quot;&gt;&amp;nbsp;&lt;/span&gt;&lt;span style=&quot;color: #56b6c2&quot;&gt;=&lt;/span&gt;&lt;span style=&quot;color: #abb2bf&quot;&gt;&amp;nbsp;children;&lt;/span&gt;&lt;/div&gt;&lt;div&gt;&lt;span style=&quot;color: #abb2bf&quot;&gt;&amp;nbsp;&amp;nbsp;&lt;/span&gt;&lt;span style=&quot;color: #5c6370 ; font-style: italic&quot;&gt;//&amp;nbsp;End&amp;nbsp;tag.&lt;/span&gt;&lt;/div&gt;&lt;div&gt;&lt;span style=&quot;color: #abb2bf&quot;&gt;&amp;nbsp;&amp;nbsp;&lt;/span&gt;&lt;span style=&quot;color: #c678dd&quot;&gt;if&lt;/span&gt;&lt;span style=&quot;color: #abb2bf&quot;&gt;&amp;nbsp;(&lt;/span&gt;&lt;span style=&quot;color: #61afef&quot;&gt;startsWithEndTagOpen&lt;/span&gt;&lt;span style=&quot;color: #abb2bf&quot;&gt;(context.&lt;/span&gt;&lt;span style=&quot;color: #e06c75&quot;&gt;source&lt;/span&gt;&lt;span style=&quot;color: #abb2bf&quot;&gt;,&amp;nbsp;element.&lt;/span&gt;&lt;span style=&quot;color: #e06c75&quot;&gt;tag&lt;/span&gt;&lt;span style=&quot;color: #abb2bf&quot;&gt;))&amp;nbsp;{&lt;/span&gt;&lt;/div&gt;&lt;div&gt;&lt;span style=&quot;color: #abb2bf&quot;&gt;&amp;nbsp;&amp;nbsp;&amp;nbsp;&amp;nbsp;&amp;nbsp;&amp;nbsp;&lt;/span&gt;&lt;span style=&quot;color: #61afef&quot;&gt;parseTag&lt;/span&gt;&lt;span style=&quot;color: #abb2bf&quot;&gt;(context,&amp;nbsp;&lt;/span&gt;&lt;span style=&quot;color: #d19a66&quot;&gt;1&lt;/span&gt;&lt;span style=&quot;color: #abb2bf&quot;&gt;&amp;nbsp;&lt;/span&gt;&lt;span style=&quot;color: #5c6370 ; font-style: italic&quot;&gt;/*&amp;nbsp;End&amp;nbsp;*/&lt;/span&gt;&lt;span style=&quot;color: #abb2bf&quot;&gt;,&amp;nbsp;parent);&lt;/span&gt;&lt;/div&gt;&lt;div&gt;&lt;span style=&quot;color: #abb2bf&quot;&gt;&amp;nbsp;&amp;nbsp;}&lt;/span&gt;&lt;/div&gt;&lt;div&gt;&lt;span style=&quot;color: #abb2bf&quot;&gt;&amp;nbsp;&amp;nbsp;&lt;/span&gt;&lt;span style=&quot;color: #c678dd&quot;&gt;else&lt;/span&gt;&lt;span style=&quot;color: #abb2bf&quot;&gt;&amp;nbsp;{&lt;/span&gt;&lt;/div&gt;&lt;div&gt;&lt;span style=&quot;color: #abb2bf&quot;&gt;&amp;nbsp;&amp;nbsp;&amp;nbsp;&amp;nbsp;&amp;nbsp;&amp;nbsp;&lt;/span&gt;&lt;span style=&quot;color: #61afef&quot;&gt;emitError&lt;/span&gt;&lt;span style=&quot;color: #abb2bf&quot;&gt;(context,&amp;nbsp;&lt;/span&gt;&lt;span style=&quot;color: #d19a66&quot;&gt;24&lt;/span&gt;&lt;span style=&quot;color: #abb2bf&quot;&gt;&amp;nbsp;&lt;/span&gt;&lt;span style=&quot;color: #5c6370 ; font-style: italic&quot;&gt;/*&amp;nbsp;X_MISSING_END_TAG&amp;nbsp;*/&lt;/span&gt;&lt;span style=&quot;color: #abb2bf&quot;&gt;,&amp;nbsp;&lt;/span&gt;&lt;span style=&quot;color: #d19a66&quot;&gt;0&lt;/span&gt;&lt;span style=&quot;color: #abb2bf&quot;&gt;,&amp;nbsp;element.&lt;/span&gt;&lt;span style=&quot;color: #e06c75&quot;&gt;loc&lt;/span&gt;&lt;span style=&quot;color: #abb2bf&quot;&gt;.&lt;/span&gt;&lt;span style=&quot;color: #e06c75&quot;&gt;start&lt;/span&gt;&lt;span style=&quot;color: #abb2bf&quot;&gt;);&lt;/span&gt;&lt;/div&gt;&lt;div&gt;&lt;span style=&quot;color: #abb2bf&quot;&gt;&amp;nbsp;&amp;nbsp;&amp;nbsp;&amp;nbsp;&amp;nbsp;&amp;nbsp;&lt;/span&gt;&lt;span style=&quot;color: #c678dd&quot;&gt;if&lt;/span&gt;&lt;span style=&quot;color: #abb2bf&quot;&gt;&amp;nbsp;(context.&lt;/span&gt;&lt;span style=&quot;color: #e06c75&quot;&gt;source&lt;/span&gt;&lt;span style=&quot;color: #abb2bf&quot;&gt;.&lt;/span&gt;&lt;span style=&quot;color: #e06c75&quot;&gt;length&lt;/span&gt;&lt;span style=&quot;color: #abb2bf&quot;&gt;&amp;nbsp;&lt;/span&gt;&lt;span style=&quot;color: #56b6c2&quot;&gt;===&lt;/span&gt;&lt;span style=&quot;color: #abb2bf&quot;&gt;&amp;nbsp;&lt;/span&gt;&lt;span style=&quot;color: #d19a66&quot;&gt;0&lt;/span&gt;&lt;span style=&quot;color: #abb2bf&quot;&gt;&amp;nbsp;&lt;/span&gt;&lt;span style=&quot;color: #56b6c2&quot;&gt;&amp;amp;&amp;amp;&lt;/span&gt;&lt;span style=&quot;color: #abb2bf&quot;&gt;&amp;nbsp;element.&lt;/span&gt;&lt;span style=&quot;color: #e06c75&quot;&gt;tag&lt;/span&gt;&lt;span style=&quot;color: #abb2bf&quot;&gt;.&lt;/span&gt;&lt;span style=&quot;color: #61afef&quot;&gt;toLowerCase&lt;/span&gt;&lt;span style=&quot;color: #abb2bf&quot;&gt;()&amp;nbsp;&lt;/span&gt;&lt;span style=&quot;color: #56b6c2&quot;&gt;===&lt;/span&gt;&lt;span style=&quot;color: #abb2bf&quot;&gt;&amp;nbsp;&lt;/span&gt;&lt;span style=&quot;color: #98c379&quot;&gt;'script'&lt;/span&gt;&lt;span style=&quot;color: #abb2bf&quot;&gt;)&amp;nbsp;{&lt;/span&gt;&lt;/div&gt;&lt;div&gt;&lt;span style=&quot;color: #abb2bf&quot;&gt;&amp;nbsp;&amp;nbsp;&amp;nbsp;&amp;nbsp;&amp;nbsp;&amp;nbsp;&amp;nbsp;&amp;nbsp;&amp;nbsp;&amp;nbsp;&lt;/span&gt;&lt;span style=&quot;color: #c678dd&quot;&gt;const&lt;/span&gt;&lt;span style=&quot;color: #abb2bf&quot;&gt;&amp;nbsp;&lt;/span&gt;&lt;span style=&quot;color: #d19a66&quot;&gt;first&lt;/span&gt;&lt;span style=&quot;color: #abb2bf&quot;&gt;&amp;nbsp;&lt;/span&gt;&lt;span style=&quot;color: #56b6c2&quot;&gt;=&lt;/span&gt;&lt;span style=&quot;color: #abb2bf&quot;&gt;&amp;nbsp;children[&lt;/span&gt;&lt;span style=&quot;color: #d19a66&quot;&gt;0&lt;/span&gt;&lt;span style=&quot;color: #abb2bf&quot;&gt;];&lt;/span&gt;&lt;/div&gt;&lt;div&gt;&lt;span style=&quot;color: #abb2bf&quot;&gt;&amp;nbsp;&amp;nbsp;&amp;nbsp;&amp;nbsp;&amp;nbsp;&amp;nbsp;&amp;nbsp;&amp;nbsp;&amp;nbsp;&amp;nbsp;&lt;/span&gt;&lt;span style=&quot;color: #c678dd&quot;&gt;if&lt;/span&gt;&lt;span style=&quot;color: #abb2bf&quot;&gt;&amp;nbsp;(first&amp;nbsp;&lt;/span&gt;&lt;span style=&quot;color: #56b6c2&quot;&gt;&amp;amp;&amp;amp;&lt;/span&gt;&lt;span style=&quot;color: #abb2bf&quot;&gt;&amp;nbsp;&lt;/span&gt;&lt;span style=&quot;color: #61afef&quot;&gt;startsWith&lt;/span&gt;&lt;span style=&quot;color: #abb2bf&quot;&gt;(first.&lt;/span&gt;&lt;span style=&quot;color: #e06c75&quot;&gt;loc&lt;/span&gt;&lt;span style=&quot;color: #abb2bf&quot;&gt;.&lt;/span&gt;&lt;span style=&quot;color: #e06c75&quot;&gt;source&lt;/span&gt;&lt;span style=&quot;color: #abb2bf&quot;&gt;,&amp;nbsp;&lt;/span&gt;&lt;span style=&quot;color: #98c379&quot;&gt;'&amp;lt;!--'&lt;/span&gt;&lt;span style=&quot;color: #abb2bf&quot;&gt;))&amp;nbsp;{&lt;/span&gt;&lt;/div&gt;&lt;div&gt;&lt;span style=&quot;color: #abb2bf&quot;&gt;&amp;nbsp;&amp;nbsp;&amp;nbsp;&amp;nbsp;&amp;nbsp;&amp;nbsp;&amp;nbsp;&amp;nbsp;&amp;nbsp;&amp;nbsp;&amp;nbsp;&amp;nbsp;&amp;nbsp;&amp;nbsp;&lt;/span&gt;&lt;span style=&quot;color: #61afef&quot;&gt;emitError&lt;/span&gt;&lt;span style=&quot;color: #abb2bf&quot;&gt;(context,&amp;nbsp;&lt;/span&gt;&lt;span style=&quot;color: #d19a66&quot;&gt;8&lt;/span&gt;&lt;span style=&quot;color: #abb2bf&quot;&gt;&amp;nbsp;&lt;/span&gt;&lt;span style=&quot;color: #5c6370 ; font-style: italic&quot;&gt;/*&amp;nbsp;EOF_IN_SCRIPT_HTML_COMMENT_LIKE_TEXT&amp;nbsp;*/&lt;/span&gt;&lt;span style=&quot;color: #abb2bf&quot;&gt;);&lt;/span&gt;&lt;/div&gt;&lt;div&gt;&lt;span style=&quot;color: #abb2bf&quot;&gt;&amp;nbsp;&amp;nbsp;&amp;nbsp;&amp;nbsp;&amp;nbsp;&amp;nbsp;&amp;nbsp;&amp;nbsp;&amp;nbsp;&amp;nbsp;}&lt;/span&gt;&lt;/div&gt;&lt;div&gt;&lt;span style=&quot;color: #abb2bf&quot;&gt;&amp;nbsp;&amp;nbsp;&amp;nbsp;&amp;nbsp;&amp;nbsp;&amp;nbsp;}&lt;/span&gt;&lt;/div&gt;&lt;div&gt;&lt;span style=&quot;color: #abb2bf&quot;&gt;&amp;nbsp;&amp;nbsp;}&lt;/span&gt;&lt;/div&gt;&lt;div&gt;&lt;span style=&quot;color: #abb2bf&quot;&gt;&amp;nbsp;&amp;nbsp;element.&lt;/span&gt;&lt;span style=&quot;color: #e06c75&quot;&gt;loc&lt;/span&gt;&lt;span style=&quot;color: #abb2bf&quot;&gt;&amp;nbsp;&lt;/span&gt;&lt;span style=&quot;color: #56b6c2&quot;&gt;=&lt;/span&gt;&lt;span style=&quot;color: #abb2bf&quot;&gt;&amp;nbsp;&lt;/span&gt;&lt;span style=&quot;color: #61afef&quot;&gt;getSelection&lt;/span&gt;&lt;span style=&quot;color: #abb2bf&quot;&gt;(context,&amp;nbsp;element.&lt;/span&gt;&lt;span style=&quot;color: #e06c75&quot;&gt;loc&lt;/span&gt;&lt;span style=&quot;color: #abb2bf&quot;&gt;.&lt;/span&gt;&lt;span style=&quot;color: #e06c75&quot;&gt;start&lt;/span&gt;&lt;span style=&quot;color: #abb2bf&quot;&gt;);&lt;/span&gt;&lt;/div&gt;&lt;div&gt;&lt;span style=&quot;color: #abb2bf&quot;&gt;&amp;nbsp;&amp;nbsp;&lt;/span&gt;&lt;span style=&quot;color: #c678dd&quot;&gt;if&lt;/span&gt;&lt;span style=&quot;color: #abb2bf&quot;&gt;&amp;nbsp;(isPreBoundary)&amp;nbsp;{&lt;/span&gt;&lt;/div&gt;&lt;div&gt;&lt;span style=&quot;color: #abb2bf&quot;&gt;&amp;nbsp;&amp;nbsp;&amp;nbsp;&amp;nbsp;&amp;nbsp;&amp;nbsp;context.&lt;/span&gt;&lt;span style=&quot;color: #e06c75&quot;&gt;inPre&lt;/span&gt;&lt;span style=&quot;color: #abb2bf&quot;&gt;&amp;nbsp;&lt;/span&gt;&lt;span style=&quot;color: #56b6c2&quot;&gt;=&lt;/span&gt;&lt;span style=&quot;color: #abb2bf&quot;&gt;&amp;nbsp;&lt;/span&gt;&lt;span style=&quot;color: #d19a66&quot;&gt;false&lt;/span&gt;&lt;span style=&quot;color: #abb2bf&quot;&gt;;&lt;/span&gt;&lt;/div&gt;&lt;div&gt;&lt;span style=&quot;color: #abb2bf&quot;&gt;&amp;nbsp;&amp;nbsp;}&lt;/span&gt;&lt;/div&gt;&lt;div&gt;&lt;span style=&quot;color: #abb2bf&quot;&gt;&amp;nbsp;&amp;nbsp;&lt;/span&gt;&lt;span style=&quot;color: #c678dd&quot;&gt;if&lt;/span&gt;&lt;span style=&quot;color: #abb2bf&quot;&gt;&amp;nbsp;(isVPreBoundary)&amp;nbsp;{&lt;/span&gt;&lt;/div&gt;&lt;div&gt;&lt;span style=&quot;color: #abb2bf&quot;&gt;&amp;nbsp;&amp;nbsp;&amp;nbsp;&amp;nbsp;&amp;nbsp;&amp;nbsp;context.&lt;/span&gt;&lt;span style=&quot;color: #e06c75&quot;&gt;inVPre&lt;/span&gt;&lt;span style=&quot;color: #abb2bf&quot;&gt;&amp;nbsp;&lt;/span&gt;&lt;span style=&quot;color: #56b6c2&quot;&gt;=&lt;/span&gt;&lt;span style=&quot;color: #abb2bf&quot;&gt;&amp;nbsp;&lt;/span&gt;&lt;span style=&quot;color: #d19a66&quot;&gt;false&lt;/span&gt;&lt;span style=&quot;color: #abb2bf&quot;&gt;;&lt;/span&gt;&lt;/div&gt;&lt;div&gt;&lt;span style=&quot;color: #abb2bf&quot;&gt;&amp;nbsp;&amp;nbsp;}&lt;/span&gt;&lt;/div&gt;&lt;div&gt;&lt;span style=&quot;color: #abb2bf&quot;&gt;&amp;nbsp;&amp;nbsp;&lt;/span&gt;&lt;span style=&quot;color: #c678dd&quot;&gt;return&lt;/span&gt;&lt;span style=&quot;color: #abb2bf&quot;&gt;&amp;nbsp;element;&lt;/span&gt;&lt;/div&gt;&lt;div&gt;&lt;span style=&quot;color: #abb2bf&quot;&gt;}&lt;/span&gt;&lt;/div&gt;&lt;/div&gt;&#10;&#10;" style="rounded=1;whiteSpace=wrap;html=1;align=left;" vertex="1" parent="1">
                    <mxGeometry x="6540" y="867.5" width="640" height="1175" as="geometry"/>
                </mxCell>
                <mxCell id="40" value="&#10;&#10;&lt;div style=&quot;color: rgb(171, 178, 191); background-color: rgb(40, 44, 52); font-family: consolas, &amp;quot;courier new&amp;quot;, monospace; font-weight: normal; font-size: 14px; line-height: 19px;&quot;&gt;&lt;div&gt;&lt;span style=&quot;color: #c678dd&quot;&gt;function&lt;/span&gt;&lt;span style=&quot;color: #abb2bf&quot;&gt;&amp;nbsp;&lt;/span&gt;&lt;span style=&quot;color: #61afef&quot;&gt;parseTag&lt;/span&gt;&lt;span style=&quot;color: #abb2bf&quot;&gt;(context,&amp;nbsp;type,&amp;nbsp;parent)&amp;nbsp;{&lt;/span&gt;&lt;/div&gt;&lt;div&gt;&lt;span style=&quot;color: #abb2bf&quot;&gt;&amp;nbsp;&amp;nbsp;&amp;nbsp;&amp;nbsp;&lt;/span&gt;&lt;span style=&quot;color: #5c6370 ; font-style: italic&quot;&gt;//&amp;nbsp;Tag&amp;nbsp;open.&lt;/span&gt;&lt;/div&gt;&lt;div&gt;&lt;span style=&quot;color: #abb2bf&quot;&gt;&amp;nbsp;&amp;nbsp;&amp;nbsp;&amp;nbsp;&lt;/span&gt;&lt;span style=&quot;color: #c678dd&quot;&gt;const&lt;/span&gt;&lt;span style=&quot;color: #abb2bf&quot;&gt;&amp;nbsp;&lt;/span&gt;&lt;span style=&quot;color: #d19a66&quot;&gt;start&lt;/span&gt;&lt;span style=&quot;color: #abb2bf&quot;&gt;&amp;nbsp;&lt;/span&gt;&lt;span style=&quot;color: #56b6c2&quot;&gt;=&lt;/span&gt;&lt;span style=&quot;color: #abb2bf&quot;&gt;&amp;nbsp;&lt;/span&gt;&lt;span style=&quot;color: #61afef&quot;&gt;getCursor&lt;/span&gt;&lt;span style=&quot;color: #abb2bf&quot;&gt;(context);&lt;/span&gt;&lt;/div&gt;&lt;div&gt;&lt;span style=&quot;color: #abb2bf&quot;&gt;&amp;nbsp;&amp;nbsp;&amp;nbsp;&amp;nbsp;&lt;/span&gt;&lt;span style=&quot;color: #c678dd&quot;&gt;const&lt;/span&gt;&lt;span style=&quot;color: #abb2bf&quot;&gt;&amp;nbsp;&lt;/span&gt;&lt;span style=&quot;color: #d19a66&quot;&gt;match&lt;/span&gt;&lt;span style=&quot;color: #abb2bf&quot;&gt;&amp;nbsp;&lt;/span&gt;&lt;span style=&quot;color: #56b6c2&quot;&gt;=&lt;/span&gt;&lt;span style=&quot;color: #56b6c2&quot;&gt;&amp;nbsp;/&lt;/span&gt;&lt;span style=&quot;color: #c678dd&quot;&gt;^&lt;/span&gt;&lt;span style=&quot;color: #56b6c2&quot;&gt;&amp;lt;\/?(&lt;/span&gt;&lt;span style=&quot;color: #d19a66&quot;&gt;[a-z][&lt;/span&gt;&lt;span style=&quot;color: #56b6c2&quot;&gt;^&lt;/span&gt;&lt;span style=&quot;color: #d19a66&quot;&gt;\t\r\n\f&amp;nbsp;/&amp;gt;]&lt;/span&gt;&lt;span style=&quot;color: #56b6c2&quot;&gt;*)/&lt;/span&gt;&lt;span style=&quot;color: #c678dd&quot;&gt;i&lt;/span&gt;&lt;span style=&quot;color: #abb2bf&quot;&gt;.&lt;/span&gt;&lt;span style=&quot;color: #61afef&quot;&gt;exec&lt;/span&gt;&lt;span style=&quot;color: #abb2bf&quot;&gt;(context.&lt;/span&gt;&lt;span style=&quot;color: #e06c75&quot;&gt;source&lt;/span&gt;&lt;span style=&quot;color: #abb2bf&quot;&gt;);&lt;/span&gt;&lt;/div&gt;&lt;div&gt;&lt;span style=&quot;color: #abb2bf&quot;&gt;&amp;nbsp;&amp;nbsp;&amp;nbsp;&amp;nbsp;&lt;/span&gt;&lt;span style=&quot;color: #c678dd&quot;&gt;const&lt;/span&gt;&lt;span style=&quot;color: #abb2bf&quot;&gt;&amp;nbsp;&lt;/span&gt;&lt;span style=&quot;color: #d19a66&quot;&gt;tag&lt;/span&gt;&lt;span style=&quot;color: #abb2bf&quot;&gt;&amp;nbsp;&lt;/span&gt;&lt;span style=&quot;color: #56b6c2&quot;&gt;=&lt;/span&gt;&lt;span style=&quot;color: #abb2bf&quot;&gt;&amp;nbsp;match[&lt;/span&gt;&lt;span style=&quot;color: #d19a66&quot;&gt;1&lt;/span&gt;&lt;span style=&quot;color: #abb2bf&quot;&gt;];&lt;/span&gt;&lt;/div&gt;&lt;div&gt;&lt;span style=&quot;color: #abb2bf&quot;&gt;&amp;nbsp;&amp;nbsp;&amp;nbsp;&amp;nbsp;&lt;/span&gt;&lt;span style=&quot;color: #c678dd&quot;&gt;const&lt;/span&gt;&lt;span style=&quot;color: #abb2bf&quot;&gt;&amp;nbsp;&lt;/span&gt;&lt;span style=&quot;color: #d19a66&quot;&gt;ns&lt;/span&gt;&lt;span style=&quot;color: #abb2bf&quot;&gt;&amp;nbsp;&lt;/span&gt;&lt;span style=&quot;color: #56b6c2&quot;&gt;=&lt;/span&gt;&lt;span style=&quot;color: #abb2bf&quot;&gt;&amp;nbsp;context.&lt;/span&gt;&lt;span style=&quot;color: #e06c75&quot;&gt;options&lt;/span&gt;&lt;span style=&quot;color: #abb2bf&quot;&gt;.&lt;/span&gt;&lt;span style=&quot;color: #61afef&quot;&gt;getNamespace&lt;/span&gt;&lt;span style=&quot;color: #abb2bf&quot;&gt;(tag,&amp;nbsp;parent);&lt;/span&gt;&lt;/div&gt;&lt;div&gt;&lt;span style=&quot;color: #abb2bf&quot;&gt;&amp;nbsp;&amp;nbsp;&amp;nbsp;&amp;nbsp;&lt;/span&gt;&lt;span style=&quot;color: #61afef&quot;&gt;advanceBy&lt;/span&gt;&lt;span style=&quot;color: #abb2bf&quot;&gt;(context,&amp;nbsp;match[&lt;/span&gt;&lt;span style=&quot;color: #d19a66&quot;&gt;0&lt;/span&gt;&lt;span style=&quot;color: #abb2bf&quot;&gt;].&lt;/span&gt;&lt;span style=&quot;color: #e06c75&quot;&gt;length&lt;/span&gt;&lt;span style=&quot;color: #abb2bf&quot;&gt;);&lt;/span&gt;&lt;/div&gt;&lt;div&gt;&lt;span style=&quot;color: #abb2bf&quot;&gt;&amp;nbsp;&amp;nbsp;&amp;nbsp;&amp;nbsp;&lt;/span&gt;&lt;span style=&quot;color: #61afef&quot;&gt;advanceSpaces&lt;/span&gt;&lt;span style=&quot;color: #abb2bf&quot;&gt;(context);&lt;/span&gt;&lt;/div&gt;&lt;div&gt;&lt;span style=&quot;color: #abb2bf&quot;&gt;&amp;nbsp;&amp;nbsp;&amp;nbsp;&amp;nbsp;&lt;/span&gt;&lt;span style=&quot;color: #5c6370 ; font-style: italic&quot;&gt;//&amp;nbsp;save&amp;nbsp;current&amp;nbsp;state&amp;nbsp;in&amp;nbsp;case&amp;nbsp;we&amp;nbsp;need&amp;nbsp;to&amp;nbsp;re-parse&amp;nbsp;attributes&amp;nbsp;with&amp;nbsp;v-pre&lt;/span&gt;&lt;/div&gt;&lt;div&gt;&lt;span style=&quot;color: #abb2bf&quot;&gt;&amp;nbsp;&amp;nbsp;&amp;nbsp;&amp;nbsp;&lt;/span&gt;&lt;span style=&quot;color: #c678dd&quot;&gt;const&lt;/span&gt;&lt;span style=&quot;color: #abb2bf&quot;&gt;&amp;nbsp;&lt;/span&gt;&lt;span style=&quot;color: #d19a66&quot;&gt;cursor&lt;/span&gt;&lt;span style=&quot;color: #abb2bf&quot;&gt;&amp;nbsp;&lt;/span&gt;&lt;span style=&quot;color: #56b6c2&quot;&gt;=&lt;/span&gt;&lt;span style=&quot;color: #abb2bf&quot;&gt;&amp;nbsp;&lt;/span&gt;&lt;span style=&quot;color: #61afef&quot;&gt;getCursor&lt;/span&gt;&lt;span style=&quot;color: #abb2bf&quot;&gt;(context);&lt;/span&gt;&lt;/div&gt;&lt;div&gt;&lt;span style=&quot;color: #abb2bf&quot;&gt;&amp;nbsp;&amp;nbsp;&amp;nbsp;&amp;nbsp;&lt;/span&gt;&lt;span style=&quot;color: #c678dd&quot;&gt;const&lt;/span&gt;&lt;span style=&quot;color: #abb2bf&quot;&gt;&amp;nbsp;&lt;/span&gt;&lt;span style=&quot;color: #d19a66&quot;&gt;currentSource&lt;/span&gt;&lt;span style=&quot;color: #abb2bf&quot;&gt;&amp;nbsp;&lt;/span&gt;&lt;span style=&quot;color: #56b6c2&quot;&gt;=&lt;/span&gt;&lt;span style=&quot;color: #abb2bf&quot;&gt;&amp;nbsp;context.&lt;/span&gt;&lt;span style=&quot;color: #e06c75&quot;&gt;source&lt;/span&gt;&lt;span style=&quot;color: #abb2bf&quot;&gt;;&lt;/span&gt;&lt;/div&gt;&lt;div&gt;&lt;span style=&quot;color: #abb2bf&quot;&gt;&amp;nbsp;&amp;nbsp;&amp;nbsp;&amp;nbsp;&lt;/span&gt;&lt;span style=&quot;color: #5c6370 ; font-style: italic&quot;&gt;//&amp;nbsp;Attributes.&lt;/span&gt;&lt;/div&gt;&lt;div&gt;&lt;span style=&quot;color: #abb2bf&quot;&gt;&amp;nbsp;&amp;nbsp;&amp;nbsp;&amp;nbsp;&lt;/span&gt;&lt;span style=&quot;color: #c678dd&quot;&gt;let&lt;/span&gt;&lt;span style=&quot;color: #abb2bf&quot;&gt;&amp;nbsp;props&amp;nbsp;&lt;/span&gt;&lt;span style=&quot;color: #56b6c2&quot;&gt;=&lt;/span&gt;&lt;span style=&quot;color: #abb2bf&quot;&gt;&amp;nbsp;&lt;/span&gt;&lt;span style=&quot;color: #61afef&quot;&gt;parseAttributes&lt;/span&gt;&lt;span style=&quot;color: #abb2bf&quot;&gt;(context,&amp;nbsp;type);&lt;/span&gt;&lt;/div&gt;&lt;div&gt;&lt;span style=&quot;color: #abb2bf&quot;&gt;&amp;nbsp;&amp;nbsp;&amp;nbsp;&amp;nbsp;&lt;/span&gt;&lt;span style=&quot;color: #5c6370 ; font-style: italic&quot;&gt;//&amp;nbsp;check&amp;nbsp;&amp;lt;pre&amp;gt;&amp;nbsp;tag&lt;/span&gt;&lt;/div&gt;&lt;div&gt;&lt;span style=&quot;color: #abb2bf&quot;&gt;&amp;nbsp;&amp;nbsp;&amp;nbsp;&amp;nbsp;&lt;/span&gt;&lt;span style=&quot;color: #c678dd&quot;&gt;if&lt;/span&gt;&lt;span style=&quot;color: #abb2bf&quot;&gt;&amp;nbsp;(context.&lt;/span&gt;&lt;span style=&quot;color: #e06c75&quot;&gt;options&lt;/span&gt;&lt;span style=&quot;color: #abb2bf&quot;&gt;.&lt;/span&gt;&lt;span style=&quot;color: #61afef&quot;&gt;isPreTag&lt;/span&gt;&lt;span style=&quot;color: #abb2bf&quot;&gt;(tag))&amp;nbsp;{&lt;/span&gt;&lt;/div&gt;&lt;div&gt;&lt;span style=&quot;color: #abb2bf&quot;&gt;&amp;nbsp;&amp;nbsp;&amp;nbsp;&amp;nbsp;&amp;nbsp;&amp;nbsp;&amp;nbsp;&amp;nbsp;context.&lt;/span&gt;&lt;span style=&quot;color: #e06c75&quot;&gt;inPre&lt;/span&gt;&lt;span style=&quot;color: #abb2bf&quot;&gt;&amp;nbsp;&lt;/span&gt;&lt;span style=&quot;color: #56b6c2&quot;&gt;=&lt;/span&gt;&lt;span style=&quot;color: #abb2bf&quot;&gt;&amp;nbsp;&lt;/span&gt;&lt;span style=&quot;color: #d19a66&quot;&gt;true&lt;/span&gt;&lt;span style=&quot;color: #abb2bf&quot;&gt;;&lt;/span&gt;&lt;/div&gt;&lt;div&gt;&lt;span style=&quot;color: #abb2bf&quot;&gt;&amp;nbsp;&amp;nbsp;&amp;nbsp;&amp;nbsp;}&lt;/span&gt;&lt;/div&gt;&lt;div&gt;&lt;span style=&quot;color: #abb2bf&quot;&gt;&amp;nbsp;&amp;nbsp;&amp;nbsp;&amp;nbsp;&lt;/span&gt;&lt;span style=&quot;color: #5c6370 ; font-style: italic&quot;&gt;//&amp;nbsp;check&amp;nbsp;v-pre&lt;/span&gt;&lt;/div&gt;&lt;div&gt;&lt;span style=&quot;color: #abb2bf&quot;&gt;&amp;nbsp;&amp;nbsp;&amp;nbsp;&amp;nbsp;&lt;/span&gt;&lt;span style=&quot;color: #c678dd&quot;&gt;if&lt;/span&gt;&lt;span style=&quot;color: #abb2bf&quot;&gt;&amp;nbsp;(&lt;/span&gt;&lt;span style=&quot;color: #56b6c2&quot;&gt;!&lt;/span&gt;&lt;span style=&quot;color: #abb2bf&quot;&gt;context.&lt;/span&gt;&lt;span style=&quot;color: #e06c75&quot;&gt;inVPre&lt;/span&gt;&lt;span style=&quot;color: #abb2bf&quot;&gt;&amp;nbsp;&lt;/span&gt;&lt;span style=&quot;color: #56b6c2&quot;&gt;&amp;amp;&amp;amp;&lt;/span&gt;&lt;/div&gt;&lt;div&gt;&lt;span style=&quot;color: #abb2bf&quot;&gt;&amp;nbsp;&amp;nbsp;&amp;nbsp;&amp;nbsp;&amp;nbsp;&amp;nbsp;&amp;nbsp;&amp;nbsp;props.&lt;/span&gt;&lt;span style=&quot;color: #61afef&quot;&gt;some&lt;/span&gt;&lt;span style=&quot;color: #abb2bf&quot;&gt;(p&amp;nbsp;&lt;/span&gt;&lt;span style=&quot;color: #c678dd&quot;&gt;=&amp;gt;&lt;/span&gt;&lt;span style=&quot;color: #abb2bf&quot;&gt;&amp;nbsp;p.&lt;/span&gt;&lt;span style=&quot;color: #e06c75&quot;&gt;type&lt;/span&gt;&lt;span style=&quot;color: #abb2bf&quot;&gt;&amp;nbsp;&lt;/span&gt;&lt;span style=&quot;color: #56b6c2&quot;&gt;===&lt;/span&gt;&lt;span style=&quot;color: #abb2bf&quot;&gt;&amp;nbsp;&lt;/span&gt;&lt;span style=&quot;color: #d19a66&quot;&gt;7&lt;/span&gt;&lt;span style=&quot;color: #abb2bf&quot;&gt;&amp;nbsp;&lt;/span&gt;&lt;span style=&quot;color: #5c6370 ; font-style: italic&quot;&gt;/*&amp;nbsp;DIRECTIVE&amp;nbsp;*/&lt;/span&gt;&lt;span style=&quot;color: #abb2bf&quot;&gt;&amp;nbsp;&lt;/span&gt;&lt;span style=&quot;color: #56b6c2&quot;&gt;&amp;amp;&amp;amp;&lt;/span&gt;&lt;span style=&quot;color: #abb2bf&quot;&gt;&amp;nbsp;p.&lt;/span&gt;&lt;span style=&quot;color: #e06c75&quot;&gt;name&lt;/span&gt;&lt;span style=&quot;color: #abb2bf&quot;&gt;&amp;nbsp;&lt;/span&gt;&lt;span style=&quot;color: #56b6c2&quot;&gt;===&lt;/span&gt;&lt;span style=&quot;color: #abb2bf&quot;&gt;&amp;nbsp;&lt;/span&gt;&lt;span style=&quot;color: #98c379&quot;&gt;'pre'&lt;/span&gt;&lt;span style=&quot;color: #abb2bf&quot;&gt;))&amp;nbsp;{&lt;/span&gt;&lt;/div&gt;&lt;div&gt;&lt;span style=&quot;color: #abb2bf&quot;&gt;&amp;nbsp;&amp;nbsp;&amp;nbsp;&amp;nbsp;&amp;nbsp;&amp;nbsp;&amp;nbsp;&amp;nbsp;context.&lt;/span&gt;&lt;span style=&quot;color: #e06c75&quot;&gt;inVPre&lt;/span&gt;&lt;span style=&quot;color: #abb2bf&quot;&gt;&amp;nbsp;&lt;/span&gt;&lt;span style=&quot;color: #56b6c2&quot;&gt;=&lt;/span&gt;&lt;span style=&quot;color: #abb2bf&quot;&gt;&amp;nbsp;&lt;/span&gt;&lt;span style=&quot;color: #d19a66&quot;&gt;true&lt;/span&gt;&lt;span style=&quot;color: #abb2bf&quot;&gt;;&lt;/span&gt;&lt;/div&gt;&lt;div&gt;&lt;span style=&quot;color: #abb2bf&quot;&gt;&amp;nbsp;&amp;nbsp;&amp;nbsp;&amp;nbsp;&amp;nbsp;&amp;nbsp;&amp;nbsp;&amp;nbsp;&lt;/span&gt;&lt;span style=&quot;color: #5c6370 ; font-style: italic&quot;&gt;//&amp;nbsp;reset&amp;nbsp;context&lt;/span&gt;&lt;/div&gt;&lt;div&gt;&lt;span style=&quot;color: #abb2bf&quot;&gt;&amp;nbsp;&amp;nbsp;&amp;nbsp;&amp;nbsp;&amp;nbsp;&amp;nbsp;&amp;nbsp;&amp;nbsp;shared.&lt;/span&gt;&lt;span style=&quot;color: #61afef&quot;&gt;extend&lt;/span&gt;&lt;span style=&quot;color: #abb2bf&quot;&gt;(context,&amp;nbsp;cursor);&lt;/span&gt;&lt;/div&gt;&lt;div&gt;&lt;span style=&quot;color: #abb2bf&quot;&gt;&amp;nbsp;&amp;nbsp;&amp;nbsp;&amp;nbsp;&amp;nbsp;&amp;nbsp;&amp;nbsp;&amp;nbsp;context.&lt;/span&gt;&lt;span style=&quot;color: #e06c75&quot;&gt;source&lt;/span&gt;&lt;span style=&quot;color: #abb2bf&quot;&gt;&amp;nbsp;&lt;/span&gt;&lt;span style=&quot;color: #56b6c2&quot;&gt;=&lt;/span&gt;&lt;span style=&quot;color: #abb2bf&quot;&gt;&amp;nbsp;currentSource;&lt;/span&gt;&lt;/div&gt;&lt;div&gt;&lt;span style=&quot;color: #abb2bf&quot;&gt;&amp;nbsp;&amp;nbsp;&amp;nbsp;&amp;nbsp;&amp;nbsp;&amp;nbsp;&amp;nbsp;&amp;nbsp;&lt;/span&gt;&lt;span style=&quot;color: #5c6370 ; font-style: italic&quot;&gt;//&amp;nbsp;re-parse&amp;nbsp;attrs&amp;nbsp;and&amp;nbsp;filter&amp;nbsp;out&amp;nbsp;v-pre&amp;nbsp;itself&lt;/span&gt;&lt;/div&gt;&lt;div&gt;&lt;span style=&quot;color: #abb2bf&quot;&gt;&amp;nbsp;&amp;nbsp;&amp;nbsp;&amp;nbsp;&amp;nbsp;&amp;nbsp;&amp;nbsp;&amp;nbsp;props&amp;nbsp;&lt;/span&gt;&lt;span style=&quot;color: #56b6c2&quot;&gt;=&lt;/span&gt;&lt;span style=&quot;color: #abb2bf&quot;&gt;&amp;nbsp;&lt;/span&gt;&lt;span style=&quot;color: #61afef&quot;&gt;parseAttributes&lt;/span&gt;&lt;span style=&quot;color: #abb2bf&quot;&gt;(context,&amp;nbsp;type).&lt;/span&gt;&lt;span style=&quot;color: #61afef&quot;&gt;filter&lt;/span&gt;&lt;span style=&quot;color: #abb2bf&quot;&gt;(p&amp;nbsp;&lt;/span&gt;&lt;span style=&quot;color: #c678dd&quot;&gt;=&amp;gt;&lt;/span&gt;&lt;span style=&quot;color: #abb2bf&quot;&gt;&amp;nbsp;p.&lt;/span&gt;&lt;span style=&quot;color: #e06c75&quot;&gt;name&lt;/span&gt;&lt;span style=&quot;color: #abb2bf&quot;&gt;&amp;nbsp;&lt;/span&gt;&lt;span style=&quot;color: #56b6c2&quot;&gt;!==&lt;/span&gt;&lt;span style=&quot;color: #abb2bf&quot;&gt;&amp;nbsp;&lt;/span&gt;&lt;span style=&quot;color: #98c379&quot;&gt;'v-pre'&lt;/span&gt;&lt;span style=&quot;color: #abb2bf&quot;&gt;);&lt;/span&gt;&lt;/div&gt;&lt;div&gt;&lt;span style=&quot;color: #abb2bf&quot;&gt;&amp;nbsp;&amp;nbsp;&amp;nbsp;&amp;nbsp;}&lt;/span&gt;&lt;/div&gt;&lt;div&gt;&lt;span style=&quot;color: #abb2bf&quot;&gt;&amp;nbsp;&amp;nbsp;&amp;nbsp;&amp;nbsp;&lt;/span&gt;&lt;span style=&quot;color: #5c6370 ; font-style: italic&quot;&gt;//&amp;nbsp;Tag&amp;nbsp;close.&lt;/span&gt;&lt;/div&gt;&lt;div&gt;&lt;span style=&quot;color: #abb2bf&quot;&gt;&amp;nbsp;&amp;nbsp;&amp;nbsp;&amp;nbsp;&lt;/span&gt;&lt;span style=&quot;color: #c678dd&quot;&gt;let&lt;/span&gt;&lt;span style=&quot;color: #abb2bf&quot;&gt;&amp;nbsp;isSelfClosing&amp;nbsp;&lt;/span&gt;&lt;span style=&quot;color: #56b6c2&quot;&gt;=&lt;/span&gt;&lt;span style=&quot;color: #abb2bf&quot;&gt;&amp;nbsp;&lt;/span&gt;&lt;span style=&quot;color: #d19a66&quot;&gt;false&lt;/span&gt;&lt;span style=&quot;color: #abb2bf&quot;&gt;;&lt;/span&gt;&lt;/div&gt;&lt;div&gt;&lt;span style=&quot;color: #abb2bf&quot;&gt;&amp;nbsp;&amp;nbsp;&amp;nbsp;&amp;nbsp;&lt;/span&gt;&lt;span style=&quot;color: #c678dd&quot;&gt;if&lt;/span&gt;&lt;span style=&quot;color: #abb2bf&quot;&gt;&amp;nbsp;(context.&lt;/span&gt;&lt;span style=&quot;color: #e06c75&quot;&gt;source&lt;/span&gt;&lt;span style=&quot;color: #abb2bf&quot;&gt;.&lt;/span&gt;&lt;span style=&quot;color: #e06c75&quot;&gt;length&lt;/span&gt;&lt;span style=&quot;color: #abb2bf&quot;&gt;&amp;nbsp;&lt;/span&gt;&lt;span style=&quot;color: #56b6c2&quot;&gt;===&lt;/span&gt;&lt;span style=&quot;color: #abb2bf&quot;&gt;&amp;nbsp;&lt;/span&gt;&lt;span style=&quot;color: #d19a66&quot;&gt;0&lt;/span&gt;&lt;span style=&quot;color: #abb2bf&quot;&gt;)&amp;nbsp;{&lt;/span&gt;&lt;/div&gt;&lt;div&gt;&lt;span style=&quot;color: #abb2bf&quot;&gt;&amp;nbsp;&amp;nbsp;&amp;nbsp;&amp;nbsp;&amp;nbsp;&amp;nbsp;&amp;nbsp;&amp;nbsp;&lt;/span&gt;&lt;span style=&quot;color: #61afef&quot;&gt;emitError&lt;/span&gt;&lt;span style=&quot;color: #abb2bf&quot;&gt;(context,&amp;nbsp;&lt;/span&gt;&lt;span style=&quot;color: #d19a66&quot;&gt;9&lt;/span&gt;&lt;span style=&quot;color: #abb2bf&quot;&gt;&amp;nbsp;&lt;/span&gt;&lt;span style=&quot;color: #5c6370 ; font-style: italic&quot;&gt;/*&amp;nbsp;EOF_IN_TAG&amp;nbsp;*/&lt;/span&gt;&lt;span style=&quot;color: #abb2bf&quot;&gt;);&lt;/span&gt;&lt;/div&gt;&lt;div&gt;&lt;span style=&quot;color: #abb2bf&quot;&gt;&amp;nbsp;&amp;nbsp;&amp;nbsp;&amp;nbsp;}&lt;/span&gt;&lt;/div&gt;&lt;div&gt;&lt;span style=&quot;color: #abb2bf&quot;&gt;&amp;nbsp;&amp;nbsp;&amp;nbsp;&amp;nbsp;&lt;/span&gt;&lt;span style=&quot;color: #c678dd&quot;&gt;else&lt;/span&gt;&lt;span style=&quot;color: #abb2bf&quot;&gt;&amp;nbsp;{&lt;/span&gt;&lt;/div&gt;&lt;div&gt;&lt;span style=&quot;color: #abb2bf&quot;&gt;&amp;nbsp;&amp;nbsp;&amp;nbsp;&amp;nbsp;&amp;nbsp;&amp;nbsp;&amp;nbsp;&amp;nbsp;isSelfClosing&amp;nbsp;&lt;/span&gt;&lt;span style=&quot;color: #56b6c2&quot;&gt;=&lt;/span&gt;&lt;span style=&quot;color: #abb2bf&quot;&gt;&amp;nbsp;&lt;/span&gt;&lt;span style=&quot;color: #61afef&quot;&gt;startsWith&lt;/span&gt;&lt;span style=&quot;color: #abb2bf&quot;&gt;(context.&lt;/span&gt;&lt;span style=&quot;color: #e06c75&quot;&gt;source&lt;/span&gt;&lt;span style=&quot;color: #abb2bf&quot;&gt;,&amp;nbsp;&lt;/span&gt;&lt;span style=&quot;color: #98c379&quot;&gt;'/&amp;gt;'&lt;/span&gt;&lt;span style=&quot;color: #abb2bf&quot;&gt;);&lt;/span&gt;&lt;/div&gt;&lt;div&gt;&lt;span style=&quot;color: #abb2bf&quot;&gt;&amp;nbsp;&amp;nbsp;&amp;nbsp;&amp;nbsp;&amp;nbsp;&amp;nbsp;&amp;nbsp;&amp;nbsp;&lt;/span&gt;&lt;span style=&quot;color: #c678dd&quot;&gt;if&lt;/span&gt;&lt;span style=&quot;color: #abb2bf&quot;&gt;&amp;nbsp;(type&amp;nbsp;&lt;/span&gt;&lt;span style=&quot;color: #56b6c2&quot;&gt;===&lt;/span&gt;&lt;span style=&quot;color: #abb2bf&quot;&gt;&amp;nbsp;&lt;/span&gt;&lt;span style=&quot;color: #d19a66&quot;&gt;1&lt;/span&gt;&lt;span style=&quot;color: #abb2bf&quot;&gt;&amp;nbsp;&lt;/span&gt;&lt;span style=&quot;color: #5c6370 ; font-style: italic&quot;&gt;/*&amp;nbsp;End&amp;nbsp;*/&lt;/span&gt;&lt;span style=&quot;color: #abb2bf&quot;&gt;&amp;nbsp;&lt;/span&gt;&lt;span style=&quot;color: #56b6c2&quot;&gt;&amp;amp;&amp;amp;&lt;/span&gt;&lt;span style=&quot;color: #abb2bf&quot;&gt;&amp;nbsp;isSelfClosing)&amp;nbsp;{&lt;/span&gt;&lt;/div&gt;&lt;div&gt;&lt;span style=&quot;color: #abb2bf&quot;&gt;&amp;nbsp;&amp;nbsp;&amp;nbsp;&amp;nbsp;&amp;nbsp;&amp;nbsp;&amp;nbsp;&amp;nbsp;&amp;nbsp;&amp;nbsp;&amp;nbsp;&amp;nbsp;&lt;/span&gt;&lt;span style=&quot;color: #61afef&quot;&gt;emitError&lt;/span&gt;&lt;span style=&quot;color: #abb2bf&quot;&gt;(context,&amp;nbsp;&lt;/span&gt;&lt;span style=&quot;color: #d19a66&quot;&gt;4&lt;/span&gt;&lt;span style=&quot;color: #abb2bf&quot;&gt;&amp;nbsp;&lt;/span&gt;&lt;span style=&quot;color: #5c6370 ; font-style: italic&quot;&gt;/*&amp;nbsp;END_TAG_WITH_TRAILING_SOLIDUS&amp;nbsp;*/&lt;/span&gt;&lt;span style=&quot;color: #abb2bf&quot;&gt;);&lt;/span&gt;&lt;/div&gt;&lt;div&gt;&lt;span style=&quot;color: #abb2bf&quot;&gt;&amp;nbsp;&amp;nbsp;&amp;nbsp;&amp;nbsp;&amp;nbsp;&amp;nbsp;&amp;nbsp;&amp;nbsp;}&lt;/span&gt;&lt;/div&gt;&lt;div&gt;&lt;span style=&quot;color: #abb2bf&quot;&gt;&amp;nbsp;&amp;nbsp;&amp;nbsp;&amp;nbsp;&amp;nbsp;&amp;nbsp;&amp;nbsp;&amp;nbsp;&lt;/span&gt;&lt;span style=&quot;color: #61afef&quot;&gt;advanceBy&lt;/span&gt;&lt;span style=&quot;color: #abb2bf&quot;&gt;(context,&amp;nbsp;isSelfClosing&amp;nbsp;&lt;/span&gt;&lt;span style=&quot;color: #56b6c2&quot;&gt;?&lt;/span&gt;&lt;span style=&quot;color: #abb2bf&quot;&gt;&amp;nbsp;&lt;/span&gt;&lt;span style=&quot;color: #d19a66&quot;&gt;2&lt;/span&gt;&lt;span style=&quot;color: #abb2bf&quot;&gt;&amp;nbsp;&lt;/span&gt;&lt;span style=&quot;color: #56b6c2&quot;&gt;:&lt;/span&gt;&lt;span style=&quot;color: #abb2bf&quot;&gt;&amp;nbsp;&lt;/span&gt;&lt;span style=&quot;color: #d19a66&quot;&gt;1&lt;/span&gt;&lt;span style=&quot;color: #abb2bf&quot;&gt;);&lt;/span&gt;&lt;/div&gt;&lt;div&gt;&lt;span style=&quot;color: #abb2bf&quot;&gt;&amp;nbsp;&amp;nbsp;&amp;nbsp;&amp;nbsp;}&lt;/span&gt;&lt;/div&gt;&lt;div&gt;&lt;span style=&quot;color: #abb2bf&quot;&gt;&amp;nbsp;&amp;nbsp;&amp;nbsp;&amp;nbsp;&lt;/span&gt;&lt;span style=&quot;color: #c678dd&quot;&gt;let&lt;/span&gt;&lt;span style=&quot;color: #abb2bf&quot;&gt;&amp;nbsp;tagType&amp;nbsp;&lt;/span&gt;&lt;span style=&quot;color: #56b6c2&quot;&gt;=&lt;/span&gt;&lt;span style=&quot;color: #abb2bf&quot;&gt;&amp;nbsp;&lt;/span&gt;&lt;span style=&quot;color: #d19a66&quot;&gt;0&lt;/span&gt;&lt;span style=&quot;color: #abb2bf&quot;&gt;&amp;nbsp;&lt;/span&gt;&lt;span style=&quot;color: #5c6370 ; font-style: italic&quot;&gt;/*&amp;nbsp;ELEMENT&amp;nbsp;*/&lt;/span&gt;&lt;span style=&quot;color: #abb2bf&quot;&gt;;&lt;/span&gt;&lt;/div&gt;&lt;div&gt;&lt;span style=&quot;color: #abb2bf&quot;&gt;&amp;nbsp;&amp;nbsp;&amp;nbsp;&amp;nbsp;&lt;/span&gt;&lt;span style=&quot;color: #c678dd&quot;&gt;const&lt;/span&gt;&lt;span style=&quot;color: #abb2bf&quot;&gt;&amp;nbsp;&lt;/span&gt;&lt;span style=&quot;color: #d19a66&quot;&gt;options&lt;/span&gt;&lt;span style=&quot;color: #abb2bf&quot;&gt;&amp;nbsp;&lt;/span&gt;&lt;span style=&quot;color: #56b6c2&quot;&gt;=&lt;/span&gt;&lt;span style=&quot;color: #abb2bf&quot;&gt;&amp;nbsp;context.&lt;/span&gt;&lt;span style=&quot;color: #e06c75&quot;&gt;options&lt;/span&gt;&lt;span style=&quot;color: #abb2bf&quot;&gt;;&lt;/span&gt;&lt;/div&gt;&lt;div&gt;&lt;span style=&quot;color: #abb2bf&quot;&gt;&amp;nbsp;&amp;nbsp;&amp;nbsp;&amp;nbsp;&lt;/span&gt;&lt;span style=&quot;color: #c678dd&quot;&gt;if&lt;/span&gt;&lt;span style=&quot;color: #abb2bf&quot;&gt;&amp;nbsp;(&lt;/span&gt;&lt;span style=&quot;color: #56b6c2&quot;&gt;!&lt;/span&gt;&lt;span style=&quot;color: #abb2bf&quot;&gt;context.&lt;/span&gt;&lt;span style=&quot;color: #e06c75&quot;&gt;inVPre&lt;/span&gt;&lt;span style=&quot;color: #abb2bf&quot;&gt;&amp;nbsp;&lt;/span&gt;&lt;span style=&quot;color: #56b6c2&quot;&gt;&amp;amp;&amp;amp;&lt;/span&gt;&lt;span style=&quot;color: #abb2bf&quot;&gt;&amp;nbsp;&lt;/span&gt;&lt;span style=&quot;color: #56b6c2&quot;&gt;!&lt;/span&gt;&lt;span style=&quot;color: #abb2bf&quot;&gt;options.&lt;/span&gt;&lt;span style=&quot;color: #61afef&quot;&gt;isCustomElement&lt;/span&gt;&lt;span style=&quot;color: #abb2bf&quot;&gt;(tag))&amp;nbsp;{&lt;/span&gt;&lt;/div&gt;&lt;div&gt;&lt;span style=&quot;color: #abb2bf&quot;&gt;&amp;nbsp;&amp;nbsp;&amp;nbsp;&amp;nbsp;&amp;nbsp;&amp;nbsp;&amp;nbsp;&amp;nbsp;&lt;/span&gt;&lt;span style=&quot;color: #c678dd&quot;&gt;const&lt;/span&gt;&lt;span style=&quot;color: #abb2bf&quot;&gt;&amp;nbsp;&lt;/span&gt;&lt;span style=&quot;color: #d19a66&quot;&gt;hasVIs&lt;/span&gt;&lt;span style=&quot;color: #abb2bf&quot;&gt;&amp;nbsp;&lt;/span&gt;&lt;span style=&quot;color: #56b6c2&quot;&gt;=&lt;/span&gt;&lt;span style=&quot;color: #abb2bf&quot;&gt;&amp;nbsp;props.&lt;/span&gt;&lt;span style=&quot;color: #61afef&quot;&gt;some&lt;/span&gt;&lt;span style=&quot;color: #abb2bf&quot;&gt;(p&amp;nbsp;&lt;/span&gt;&lt;span style=&quot;color: #c678dd&quot;&gt;=&amp;gt;&lt;/span&gt;&lt;span style=&quot;color: #abb2bf&quot;&gt;&amp;nbsp;p.&lt;/span&gt;&lt;span style=&quot;color: #e06c75&quot;&gt;type&lt;/span&gt;&lt;span style=&quot;color: #abb2bf&quot;&gt;&amp;nbsp;&lt;/span&gt;&lt;span style=&quot;color: #56b6c2&quot;&gt;===&lt;/span&gt;&lt;span style=&quot;color: #abb2bf&quot;&gt;&amp;nbsp;&lt;/span&gt;&lt;span style=&quot;color: #d19a66&quot;&gt;7&lt;/span&gt;&lt;span style=&quot;color: #abb2bf&quot;&gt;&amp;nbsp;&lt;/span&gt;&lt;span style=&quot;color: #5c6370 ; font-style: italic&quot;&gt;/*&amp;nbsp;DIRECTIVE&amp;nbsp;*/&lt;/span&gt;&lt;span style=&quot;color: #abb2bf&quot;&gt;&amp;nbsp;&lt;/span&gt;&lt;span style=&quot;color: #56b6c2&quot;&gt;&amp;amp;&amp;amp;&lt;/span&gt;&lt;span style=&quot;color: #abb2bf&quot;&gt;&amp;nbsp;p.&lt;/span&gt;&lt;span style=&quot;color: #e06c75&quot;&gt;name&lt;/span&gt;&lt;span style=&quot;color: #abb2bf&quot;&gt;&amp;nbsp;&lt;/span&gt;&lt;span style=&quot;color: #56b6c2&quot;&gt;===&lt;/span&gt;&lt;span style=&quot;color: #abb2bf&quot;&gt;&amp;nbsp;&lt;/span&gt;&lt;span style=&quot;color: #98c379&quot;&gt;'is'&lt;/span&gt;&lt;span style=&quot;color: #abb2bf&quot;&gt;);&lt;/span&gt;&lt;/div&gt;&lt;div&gt;&lt;span style=&quot;color: #abb2bf&quot;&gt;&amp;nbsp;&amp;nbsp;&amp;nbsp;&amp;nbsp;&amp;nbsp;&amp;nbsp;&amp;nbsp;&amp;nbsp;&lt;/span&gt;&lt;span style=&quot;color: #c678dd&quot;&gt;if&lt;/span&gt;&lt;span style=&quot;color: #abb2bf&quot;&gt;&amp;nbsp;(options.&lt;/span&gt;&lt;span style=&quot;color: #e06c75&quot;&gt;isNativeTag&lt;/span&gt;&lt;span style=&quot;color: #abb2bf&quot;&gt;&amp;nbsp;&lt;/span&gt;&lt;span style=&quot;color: #56b6c2&quot;&gt;&amp;amp;&amp;amp;&lt;/span&gt;&lt;span style=&quot;color: #abb2bf&quot;&gt;&amp;nbsp;&lt;/span&gt;&lt;span style=&quot;color: #56b6c2&quot;&gt;!&lt;/span&gt;&lt;span style=&quot;color: #abb2bf&quot;&gt;hasVIs)&amp;nbsp;{&lt;/span&gt;&lt;/div&gt;&lt;div&gt;&lt;span style=&quot;color: #abb2bf&quot;&gt;&amp;nbsp;&amp;nbsp;&amp;nbsp;&amp;nbsp;&amp;nbsp;&amp;nbsp;&amp;nbsp;&amp;nbsp;&amp;nbsp;&amp;nbsp;&amp;nbsp;&amp;nbsp;&lt;/span&gt;&lt;span style=&quot;color: #c678dd&quot;&gt;if&lt;/span&gt;&lt;span style=&quot;color: #abb2bf&quot;&gt;&amp;nbsp;(&lt;/span&gt;&lt;span style=&quot;color: #56b6c2&quot;&gt;!&lt;/span&gt;&lt;span style=&quot;color: #abb2bf&quot;&gt;options.&lt;/span&gt;&lt;span style=&quot;color: #61afef&quot;&gt;isNativeTag&lt;/span&gt;&lt;span style=&quot;color: #abb2bf&quot;&gt;(tag))&lt;/span&gt;&lt;/div&gt;&lt;div&gt;&lt;span style=&quot;color: #abb2bf&quot;&gt;&amp;nbsp;&amp;nbsp;&amp;nbsp;&amp;nbsp;&amp;nbsp;&amp;nbsp;&amp;nbsp;&amp;nbsp;&amp;nbsp;&amp;nbsp;&amp;nbsp;&amp;nbsp;&amp;nbsp;&amp;nbsp;&amp;nbsp;&amp;nbsp;tagType&amp;nbsp;&lt;/span&gt;&lt;span style=&quot;color: #56b6c2&quot;&gt;=&lt;/span&gt;&lt;span style=&quot;color: #abb2bf&quot;&gt;&amp;nbsp;&lt;/span&gt;&lt;span style=&quot;color: #d19a66&quot;&gt;1&lt;/span&gt;&lt;span style=&quot;color: #abb2bf&quot;&gt;&amp;nbsp;&lt;/span&gt;&lt;span style=&quot;color: #5c6370 ; font-style: italic&quot;&gt;/*&amp;nbsp;COMPONENT&amp;nbsp;*/&lt;/span&gt;&lt;span style=&quot;color: #abb2bf&quot;&gt;;&lt;/span&gt;&lt;/div&gt;&lt;div&gt;&lt;span style=&quot;color: #abb2bf&quot;&gt;&amp;nbsp;&amp;nbsp;&amp;nbsp;&amp;nbsp;&amp;nbsp;&amp;nbsp;&amp;nbsp;&amp;nbsp;}&lt;/span&gt;&lt;/div&gt;&lt;div&gt;&lt;span style=&quot;color: #abb2bf&quot;&gt;&amp;nbsp;&amp;nbsp;&amp;nbsp;&amp;nbsp;&amp;nbsp;&amp;nbsp;&amp;nbsp;&amp;nbsp;&lt;/span&gt;&lt;span style=&quot;color: #c678dd&quot;&gt;else&lt;/span&gt;&lt;span style=&quot;color: #abb2bf&quot;&gt;&amp;nbsp;&lt;/span&gt;&lt;span style=&quot;color: #c678dd&quot;&gt;if&lt;/span&gt;&lt;span style=&quot;color: #abb2bf&quot;&gt;&amp;nbsp;(hasVIs&amp;nbsp;&lt;/span&gt;&lt;span style=&quot;color: #56b6c2&quot;&gt;||&lt;/span&gt;&lt;/div&gt;&lt;div&gt;&lt;span style=&quot;color: #abb2bf&quot;&gt;&amp;nbsp;&amp;nbsp;&amp;nbsp;&amp;nbsp;&amp;nbsp;&amp;nbsp;&amp;nbsp;&amp;nbsp;&amp;nbsp;&amp;nbsp;&amp;nbsp;&amp;nbsp;&lt;/span&gt;&lt;span style=&quot;color: #61afef&quot;&gt;isCoreComponent&lt;/span&gt;&lt;span style=&quot;color: #abb2bf&quot;&gt;(tag)&amp;nbsp;&lt;/span&gt;&lt;span style=&quot;color: #56b6c2&quot;&gt;||&lt;/span&gt;&lt;/div&gt;&lt;div&gt;&lt;span style=&quot;color: #abb2bf&quot;&gt;&amp;nbsp;&amp;nbsp;&amp;nbsp;&amp;nbsp;&amp;nbsp;&amp;nbsp;&amp;nbsp;&amp;nbsp;&amp;nbsp;&amp;nbsp;&amp;nbsp;&amp;nbsp;(options.&lt;/span&gt;&lt;span style=&quot;color: #e06c75&quot;&gt;isBuiltInComponent&lt;/span&gt;&lt;span style=&quot;color: #abb2bf&quot;&gt;&amp;nbsp;&lt;/span&gt;&lt;span style=&quot;color: #56b6c2&quot;&gt;&amp;amp;&amp;amp;&lt;/span&gt;&lt;span style=&quot;color: #abb2bf&quot;&gt;&amp;nbsp;options.&lt;/span&gt;&lt;span style=&quot;color: #61afef&quot;&gt;isBuiltInComponent&lt;/span&gt;&lt;span style=&quot;color: #abb2bf&quot;&gt;(tag))&amp;nbsp;&lt;/span&gt;&lt;span style=&quot;color: #56b6c2&quot;&gt;||&lt;/span&gt;&lt;/div&gt;&lt;div&gt;&lt;span style=&quot;color: #abb2bf&quot;&gt;&amp;nbsp;&amp;nbsp;&amp;nbsp;&amp;nbsp;&amp;nbsp;&amp;nbsp;&amp;nbsp;&amp;nbsp;&amp;nbsp;&amp;nbsp;&amp;nbsp;&amp;nbsp;&lt;/span&gt;&lt;span style=&quot;color: #56b6c2&quot;&gt;/&lt;/span&gt;&lt;span style=&quot;color: #c678dd&quot;&gt;^&lt;/span&gt;&lt;span style=&quot;color: #d19a66&quot;&gt;[A-Z]&lt;/span&gt;&lt;span style=&quot;color: #56b6c2&quot;&gt;/&lt;/span&gt;&lt;span style=&quot;color: #abb2bf&quot;&gt;.&lt;/span&gt;&lt;span style=&quot;color: #61afef&quot;&gt;test&lt;/span&gt;&lt;span style=&quot;color: #abb2bf&quot;&gt;(tag)&amp;nbsp;&lt;/span&gt;&lt;span style=&quot;color: #56b6c2&quot;&gt;||&lt;/span&gt;&lt;/div&gt;&lt;div&gt;&lt;span style=&quot;color: #abb2bf&quot;&gt;&amp;nbsp;&amp;nbsp;&amp;nbsp;&amp;nbsp;&amp;nbsp;&amp;nbsp;&amp;nbsp;&amp;nbsp;&amp;nbsp;&amp;nbsp;&amp;nbsp;&amp;nbsp;tag&amp;nbsp;&lt;/span&gt;&lt;span style=&quot;color: #56b6c2&quot;&gt;===&lt;/span&gt;&lt;span style=&quot;color: #abb2bf&quot;&gt;&amp;nbsp;&lt;/span&gt;&lt;span style=&quot;color: #98c379&quot;&gt;'component'&lt;/span&gt;&lt;span style=&quot;color: #abb2bf&quot;&gt;)&amp;nbsp;{&lt;/span&gt;&lt;/div&gt;&lt;div&gt;&lt;span style=&quot;color: #abb2bf&quot;&gt;&amp;nbsp;&amp;nbsp;&amp;nbsp;&amp;nbsp;&amp;nbsp;&amp;nbsp;&amp;nbsp;&amp;nbsp;&amp;nbsp;&amp;nbsp;&amp;nbsp;&amp;nbsp;tagType&amp;nbsp;&lt;/span&gt;&lt;span style=&quot;color: #56b6c2&quot;&gt;=&lt;/span&gt;&lt;span style=&quot;color: #abb2bf&quot;&gt;&amp;nbsp;&lt;/span&gt;&lt;span style=&quot;color: #d19a66&quot;&gt;1&lt;/span&gt;&lt;span style=&quot;color: #abb2bf&quot;&gt;&amp;nbsp;&lt;/span&gt;&lt;span style=&quot;color: #5c6370 ; font-style: italic&quot;&gt;/*&amp;nbsp;COMPONENT&amp;nbsp;*/&lt;/span&gt;&lt;span style=&quot;color: #abb2bf&quot;&gt;;&lt;/span&gt;&lt;/div&gt;&lt;div&gt;&lt;span style=&quot;color: #abb2bf&quot;&gt;&amp;nbsp;&amp;nbsp;&amp;nbsp;&amp;nbsp;&amp;nbsp;&amp;nbsp;&amp;nbsp;&amp;nbsp;}&lt;/span&gt;&lt;/div&gt;&lt;div&gt;&lt;span style=&quot;color: #abb2bf&quot;&gt;&amp;nbsp;&amp;nbsp;&amp;nbsp;&amp;nbsp;&amp;nbsp;&amp;nbsp;&amp;nbsp;&amp;nbsp;&lt;/span&gt;&lt;span style=&quot;color: #c678dd&quot;&gt;if&lt;/span&gt;&lt;span style=&quot;color: #abb2bf&quot;&gt;&amp;nbsp;(tag&amp;nbsp;&lt;/span&gt;&lt;span style=&quot;color: #56b6c2&quot;&gt;===&lt;/span&gt;&lt;span style=&quot;color: #abb2bf&quot;&gt;&amp;nbsp;&lt;/span&gt;&lt;span style=&quot;color: #98c379&quot;&gt;'slot'&lt;/span&gt;&lt;span style=&quot;color: #abb2bf&quot;&gt;)&amp;nbsp;{&lt;/span&gt;&lt;/div&gt;&lt;div&gt;&lt;span style=&quot;color: #abb2bf&quot;&gt;&amp;nbsp;&amp;nbsp;&amp;nbsp;&amp;nbsp;&amp;nbsp;&amp;nbsp;&amp;nbsp;&amp;nbsp;&amp;nbsp;&amp;nbsp;&amp;nbsp;&amp;nbsp;tagType&amp;nbsp;&lt;/span&gt;&lt;span style=&quot;color: #56b6c2&quot;&gt;=&lt;/span&gt;&lt;span style=&quot;color: #abb2bf&quot;&gt;&amp;nbsp;&lt;/span&gt;&lt;span style=&quot;color: #d19a66&quot;&gt;2&lt;/span&gt;&lt;span style=&quot;color: #abb2bf&quot;&gt;&amp;nbsp;&lt;/span&gt;&lt;span style=&quot;color: #5c6370 ; font-style: italic&quot;&gt;/*&amp;nbsp;SLOT&amp;nbsp;*/&lt;/span&gt;&lt;span style=&quot;color: #abb2bf&quot;&gt;;&lt;/span&gt;&lt;/div&gt;&lt;div&gt;&lt;span style=&quot;color: #abb2bf&quot;&gt;&amp;nbsp;&amp;nbsp;&amp;nbsp;&amp;nbsp;&amp;nbsp;&amp;nbsp;&amp;nbsp;&amp;nbsp;}&lt;/span&gt;&lt;/div&gt;&lt;div&gt;&lt;span style=&quot;color: #abb2bf&quot;&gt;&amp;nbsp;&amp;nbsp;&amp;nbsp;&amp;nbsp;&amp;nbsp;&amp;nbsp;&amp;nbsp;&amp;nbsp;&lt;/span&gt;&lt;span style=&quot;color: #c678dd&quot;&gt;else&lt;/span&gt;&lt;span style=&quot;color: #abb2bf&quot;&gt;&amp;nbsp;&lt;/span&gt;&lt;span style=&quot;color: #c678dd&quot;&gt;if&lt;/span&gt;&lt;span style=&quot;color: #abb2bf&quot;&gt;&amp;nbsp;(tag&amp;nbsp;&lt;/span&gt;&lt;span style=&quot;color: #56b6c2&quot;&gt;===&lt;/span&gt;&lt;span style=&quot;color: #abb2bf&quot;&gt;&amp;nbsp;&lt;/span&gt;&lt;span style=&quot;color: #98c379&quot;&gt;'template'&lt;/span&gt;&lt;span style=&quot;color: #abb2bf&quot;&gt;&amp;nbsp;&lt;/span&gt;&lt;span style=&quot;color: #56b6c2&quot;&gt;&amp;amp;&amp;amp;&lt;/span&gt;&lt;/div&gt;&lt;div&gt;&lt;span style=&quot;color: #abb2bf&quot;&gt;&amp;nbsp;&amp;nbsp;&amp;nbsp;&amp;nbsp;&amp;nbsp;&amp;nbsp;&amp;nbsp;&amp;nbsp;&amp;nbsp;&amp;nbsp;&amp;nbsp;&amp;nbsp;props.&lt;/span&gt;&lt;span style=&quot;color: #61afef&quot;&gt;some&lt;/span&gt;&lt;span style=&quot;color: #abb2bf&quot;&gt;(p&amp;nbsp;&lt;/span&gt;&lt;span style=&quot;color: #c678dd&quot;&gt;=&amp;gt;&lt;/span&gt;&lt;span style=&quot;color: #abb2bf&quot;&gt;&amp;nbsp;{&lt;/span&gt;&lt;/div&gt;&lt;div&gt;&lt;span style=&quot;color: #abb2bf&quot;&gt;&amp;nbsp;&amp;nbsp;&amp;nbsp;&amp;nbsp;&amp;nbsp;&amp;nbsp;&amp;nbsp;&amp;nbsp;&amp;nbsp;&amp;nbsp;&amp;nbsp;&amp;nbsp;&amp;nbsp;&amp;nbsp;&amp;nbsp;&amp;nbsp;&lt;/span&gt;&lt;span style=&quot;color: #c678dd&quot;&gt;return&lt;/span&gt;&lt;span style=&quot;color: #abb2bf&quot;&gt;&amp;nbsp;(p.&lt;/span&gt;&lt;span style=&quot;color: #e06c75&quot;&gt;type&lt;/span&gt;&lt;span style=&quot;color: #abb2bf&quot;&gt;&amp;nbsp;&lt;/span&gt;&lt;span style=&quot;color: #56b6c2&quot;&gt;===&lt;/span&gt;&lt;span style=&quot;color: #abb2bf&quot;&gt;&amp;nbsp;&lt;/span&gt;&lt;span style=&quot;color: #d19a66&quot;&gt;7&lt;/span&gt;&lt;span style=&quot;color: #abb2bf&quot;&gt;&amp;nbsp;&lt;/span&gt;&lt;span style=&quot;color: #5c6370 ; font-style: italic&quot;&gt;/*&amp;nbsp;DIRECTIVE&amp;nbsp;*/&lt;/span&gt;&lt;span style=&quot;color: #abb2bf&quot;&gt;&amp;nbsp;&lt;/span&gt;&lt;span style=&quot;color: #56b6c2&quot;&gt;&amp;amp;&amp;amp;&lt;/span&gt;&lt;span style=&quot;color: #abb2bf&quot;&gt;&amp;nbsp;&lt;/span&gt;&lt;span style=&quot;color: #61afef&quot;&gt;isSpecialTemplateDirective&lt;/span&gt;&lt;span style=&quot;color: #abb2bf&quot;&gt;(p.&lt;/span&gt;&lt;span style=&quot;color: #e06c75&quot;&gt;name&lt;/span&gt;&lt;span style=&quot;color: #abb2bf&quot;&gt;));&lt;/span&gt;&lt;/div&gt;&lt;div&gt;&lt;span style=&quot;color: #abb2bf&quot;&gt;&amp;nbsp;&amp;nbsp;&amp;nbsp;&amp;nbsp;&amp;nbsp;&amp;nbsp;&amp;nbsp;&amp;nbsp;&amp;nbsp;&amp;nbsp;&amp;nbsp;&amp;nbsp;}))&amp;nbsp;{&lt;/span&gt;&lt;/div&gt;&lt;div&gt;&lt;span style=&quot;color: #abb2bf&quot;&gt;&amp;nbsp;&amp;nbsp;&amp;nbsp;&amp;nbsp;&amp;nbsp;&amp;nbsp;&amp;nbsp;&amp;nbsp;&amp;nbsp;&amp;nbsp;&amp;nbsp;&amp;nbsp;tagType&amp;nbsp;&lt;/span&gt;&lt;span style=&quot;color: #56b6c2&quot;&gt;=&lt;/span&gt;&lt;span style=&quot;color: #abb2bf&quot;&gt;&amp;nbsp;&lt;/span&gt;&lt;span style=&quot;color: #d19a66&quot;&gt;3&lt;/span&gt;&lt;span style=&quot;color: #abb2bf&quot;&gt;&amp;nbsp;&lt;/span&gt;&lt;span style=&quot;color: #5c6370 ; font-style: italic&quot;&gt;/*&amp;nbsp;TEMPLATE&amp;nbsp;*/&lt;/span&gt;&lt;span style=&quot;color: #abb2bf&quot;&gt;;&lt;/span&gt;&lt;/div&gt;&lt;div&gt;&lt;span style=&quot;color: #abb2bf&quot;&gt;&amp;nbsp;&amp;nbsp;&amp;nbsp;&amp;nbsp;&amp;nbsp;&amp;nbsp;&amp;nbsp;&amp;nbsp;}&lt;/span&gt;&lt;/div&gt;&lt;div&gt;&lt;span style=&quot;color: #abb2bf&quot;&gt;&amp;nbsp;&amp;nbsp;&amp;nbsp;&amp;nbsp;}&lt;/span&gt;&lt;/div&gt;&lt;div&gt;&lt;span style=&quot;color: #abb2bf&quot;&gt;&amp;nbsp;&amp;nbsp;&amp;nbsp;&amp;nbsp;&lt;/span&gt;&lt;span style=&quot;color: #c678dd&quot;&gt;return&lt;/span&gt;&lt;span style=&quot;color: #abb2bf&quot;&gt;&amp;nbsp;{&lt;/span&gt;&lt;/div&gt;&lt;div&gt;&lt;span style=&quot;color: #abb2bf&quot;&gt;&amp;nbsp;&amp;nbsp;&amp;nbsp;&amp;nbsp;&amp;nbsp;&amp;nbsp;&amp;nbsp;&amp;nbsp;&lt;/span&gt;&lt;span style=&quot;color: #e06c75&quot;&gt;type&lt;/span&gt;&lt;span style=&quot;color: #56b6c2&quot;&gt;:&lt;/span&gt;&lt;span style=&quot;color: #abb2bf&quot;&gt;&amp;nbsp;&lt;/span&gt;&lt;span style=&quot;color: #d19a66&quot;&gt;1&lt;/span&gt;&lt;span style=&quot;color: #abb2bf&quot;&gt;&amp;nbsp;&lt;/span&gt;&lt;span style=&quot;color: #5c6370 ; font-style: italic&quot;&gt;/*&amp;nbsp;ELEMENT&amp;nbsp;*/&lt;/span&gt;&lt;span style=&quot;color: #abb2bf&quot;&gt;,&lt;/span&gt;&lt;/div&gt;&lt;div&gt;&lt;span style=&quot;color: #abb2bf&quot;&gt;&amp;nbsp;&amp;nbsp;&amp;nbsp;&amp;nbsp;&amp;nbsp;&amp;nbsp;&amp;nbsp;&amp;nbsp;ns,&lt;/span&gt;&lt;/div&gt;&lt;div&gt;&lt;span style=&quot;color: #abb2bf&quot;&gt;&amp;nbsp;&amp;nbsp;&amp;nbsp;&amp;nbsp;&amp;nbsp;&amp;nbsp;&amp;nbsp;&amp;nbsp;tag,&lt;/span&gt;&lt;/div&gt;&lt;div&gt;&lt;span style=&quot;color: #abb2bf&quot;&gt;&amp;nbsp;&amp;nbsp;&amp;nbsp;&amp;nbsp;&amp;nbsp;&amp;nbsp;&amp;nbsp;&amp;nbsp;tagType,&lt;/span&gt;&lt;/div&gt;&lt;div&gt;&lt;span style=&quot;color: #abb2bf&quot;&gt;&amp;nbsp;&amp;nbsp;&amp;nbsp;&amp;nbsp;&amp;nbsp;&amp;nbsp;&amp;nbsp;&amp;nbsp;props,&lt;/span&gt;&lt;/div&gt;&lt;div&gt;&lt;span style=&quot;color: #abb2bf&quot;&gt;&amp;nbsp;&amp;nbsp;&amp;nbsp;&amp;nbsp;&amp;nbsp;&amp;nbsp;&amp;nbsp;&amp;nbsp;isSelfClosing,&lt;/span&gt;&lt;/div&gt;&lt;div&gt;&lt;span style=&quot;color: #abb2bf&quot;&gt;&amp;nbsp;&amp;nbsp;&amp;nbsp;&amp;nbsp;&amp;nbsp;&amp;nbsp;&amp;nbsp;&amp;nbsp;&lt;/span&gt;&lt;span style=&quot;color: #e06c75&quot;&gt;children&lt;/span&gt;&lt;span style=&quot;color: #56b6c2&quot;&gt;:&lt;/span&gt;&lt;span style=&quot;color: #abb2bf&quot;&gt;&amp;nbsp;[],&lt;/span&gt;&lt;/div&gt;&lt;div&gt;&lt;span style=&quot;color: #abb2bf&quot;&gt;&amp;nbsp;&amp;nbsp;&amp;nbsp;&amp;nbsp;&amp;nbsp;&amp;nbsp;&amp;nbsp;&amp;nbsp;&lt;/span&gt;&lt;span style=&quot;color: #e06c75&quot;&gt;loc&lt;/span&gt;&lt;span style=&quot;color: #56b6c2&quot;&gt;:&lt;/span&gt;&lt;span style=&quot;color: #abb2bf&quot;&gt;&amp;nbsp;&lt;/span&gt;&lt;span style=&quot;color: #61afef&quot;&gt;getSelection&lt;/span&gt;&lt;span style=&quot;color: #abb2bf&quot;&gt;(context,&amp;nbsp;start),&lt;/span&gt;&lt;/div&gt;&lt;div&gt;&lt;span style=&quot;color: #abb2bf&quot;&gt;&amp;nbsp;&amp;nbsp;&amp;nbsp;&amp;nbsp;&amp;nbsp;&amp;nbsp;&amp;nbsp;&amp;nbsp;&lt;/span&gt;&lt;span style=&quot;color: #e06c75&quot;&gt;codegenNode&lt;/span&gt;&lt;span style=&quot;color: #56b6c2&quot;&gt;:&lt;/span&gt;&lt;span style=&quot;color: #abb2bf&quot;&gt;&amp;nbsp;&lt;/span&gt;&lt;span style=&quot;color: #d19a66&quot;&gt;undefined&lt;/span&gt;&lt;span style=&quot;color: #abb2bf&quot;&gt;&amp;nbsp;&lt;/span&gt;&lt;span style=&quot;color: #5c6370 ; font-style: italic&quot;&gt;//&amp;nbsp;to&amp;nbsp;be&amp;nbsp;created&amp;nbsp;during&amp;nbsp;transform&amp;nbsp;phase&lt;/span&gt;&lt;/div&gt;&lt;div&gt;&lt;span style=&quot;color: #abb2bf&quot;&gt;&amp;nbsp;&amp;nbsp;&amp;nbsp;&amp;nbsp;};&lt;/span&gt;&lt;/div&gt;&lt;div&gt;&lt;span style=&quot;color: #abb2bf&quot;&gt;}&lt;/span&gt;&lt;/div&gt;&lt;/div&gt;&#10;&#10;" style="rounded=1;whiteSpace=wrap;html=1;align=left;" vertex="1" parent="1">
                    <mxGeometry x="7400" y="642.5" width="720" height="1625" as="geometry"/>
                </mxCell>
                <mxCell id="44" value="相互递归调用" style="text;html=1;strokeColor=none;fillColor=none;align=center;verticalAlign=middle;whiteSpace=wrap;rounded=0;" vertex="1" parent="1">
                    <mxGeometry x="6380" y="1410" width="90" height="20" as="geometry"/>
                </mxCell>
            </root>
        </mxGraphModel>
    </diagram>
</mxfile>